<svg width="193" height="151" viewBox="0 0 193 151" fill="none" xmlns="http://www.w3.org/2000/svg">
<g clip-path="url(#clip0_987_8035)">
<rect width="262.335" height="150.811" rx="10.1385" fill="#FAFAFA"/>
<path d="M-0.3125 116.808C2.94862 114.813 13.2 110.731 28.1168 110.363C46.7627 109.902 46.0721 120.952 60.3442 122.563C74.6164 124.175 76.2278 100.81 90.2698 96.2056C104.312 91.6017 121.461 118.995 137.805 119.916C154.149 120.837 149.419 74.5884 165.072 70.6751C180.726 66.7617 178.665 117.269 198.692 119.916C218.719 122.563 247.027 76.9893 261.918 76.0388" stroke="#A75BFE" stroke-width="1.01385"/>
<path d="M28.1168 110.766C13.2 111.134 2.94862 115.216 -0.3125 117.211L1.27165 149.248L262.483 147.959L261.918 76.3552C257.555 76.8927 254.314 78.8898 248.611 84.2759C233.194 97.5088 213.218 122.239 198.692 120.319C178.665 117.671 180.726 67.0778 165.072 70.9911C149.419 74.9044 154.149 121.239 137.805 120.319C121.461 119.398 104.312 92.0045 90.2698 96.6084C76.2278 101.212 74.6164 124.577 60.3442 122.966C46.0721 121.355 46.7627 110.305 28.1168 110.766Z" fill="url(#paint0_linear_987_8035)"/>
<rect x="54.8125" y="53.9834" width="108.356" height="55.079" rx="7.60391" fill="#42464E"/>
<rect x="56.0781" y="55.251" width="105.821" height="52.5444" rx="6.33659" fill="#1B1D20"/>
<path d="M63.3221 67.3915C62.9652 67.3915 62.6548 67.3358 62.3908 67.2244C62.1288 67.113 61.9236 66.9511 61.7751 66.7386C61.6266 66.5262 61.5461 66.2683 61.5337 65.9651H62.3475C62.3619 66.126 62.4124 66.2601 62.4991 66.3673C62.5857 66.4746 62.7002 66.5551 62.8425 66.6087C62.9848 66.6603 63.1426 66.686 63.3159 66.686C63.4974 66.686 63.6573 66.6582 63.7955 66.6025C63.9357 66.5468 64.0451 66.4695 64.1234 66.3704C64.2018 66.2694 64.241 66.1528 64.241 66.0208C64.241 65.9012 64.2059 65.8022 64.1358 65.7238C64.0677 65.6454 63.9708 65.5794 63.845 65.5258C63.7212 65.4701 63.5758 65.4216 63.4087 65.3804L62.8858 65.2442C62.5001 65.1452 62.1989 64.9957 61.9824 64.7956C61.7678 64.5955 61.6606 64.3325 61.6606 64.0066C61.6606 63.7343 61.7338 63.4961 61.8803 63.2919C62.0267 63.0877 62.2268 62.9299 62.4805 62.8185C62.7342 62.705 63.022 62.6483 63.3437 62.6483C63.6717 62.6483 63.9595 62.705 64.207 62.8185C64.4545 62.9319 64.6474 63.0887 64.7856 63.2888C64.9258 63.4889 64.9991 63.7168 65.0052 63.9726H64.2039C64.1833 63.7745 64.0946 63.6219 63.9378 63.5146C63.7831 63.4053 63.581 63.3507 63.3314 63.3507C63.1581 63.3507 63.0086 63.3775 62.8827 63.4311C62.759 63.4827 62.6631 63.5538 62.595 63.6446C62.529 63.7354 62.496 63.8395 62.496 63.9571C62.496 64.085 62.5352 64.1902 62.6135 64.2727C62.694 64.3552 62.794 64.4212 62.9137 64.4707C63.0354 64.5202 63.1581 64.5604 63.2819 64.5914L63.7119 64.7028C63.8831 64.744 64.0492 64.7987 64.2101 64.8667C64.371 64.9348 64.5154 65.0214 64.6432 65.1266C64.7732 65.2298 64.8763 65.3556 64.9526 65.5041C65.029 65.6526 65.0671 65.8269 65.0671 66.027C65.0671 66.2972 64.998 66.5355 64.8598 66.7417C64.7216 66.9459 64.5226 67.1058 64.2627 67.2213C64.0028 67.3348 63.6892 67.3915 63.3221 67.3915ZM67.1898 67.3915C66.8412 67.3915 66.541 67.3182 66.2894 67.1718C66.0398 67.0253 65.8469 66.8191 65.7108 66.553C65.5767 66.2869 65.5097 65.9734 65.5097 65.6124C65.5097 65.2556 65.5757 64.9431 65.7077 64.6749C65.8418 64.4068 66.0305 64.1974 66.2739 64.0468C66.5194 63.8942 66.8071 63.8179 67.1372 63.8179C67.3475 63.8179 67.5476 63.8519 67.7374 63.92C67.9292 63.988 68.0984 64.0932 68.2448 64.2356C68.3933 64.3779 68.5088 64.5594 68.5914 64.7801C68.6759 64.9988 68.7182 65.2597 68.7182 65.5629V65.8166H65.8903V65.269H68.3191L67.9416 65.4299C67.9416 65.236 67.9117 65.0658 67.8519 64.9193C67.7921 64.7708 67.7023 64.6553 67.5827 64.5728C67.4651 64.4903 67.3176 64.449 67.1402 64.449C66.9629 64.449 66.8123 64.4913 66.6885 64.5759C66.5648 64.6584 66.4699 64.7698 66.4039 64.9101C66.3399 65.0483 66.308 65.203 66.308 65.3742V65.7516C66.308 65.9703 66.3451 66.1549 66.4193 66.3055C66.4936 66.456 66.5978 66.5695 66.7318 66.6458C66.8659 66.7221 67.0216 66.7603 67.199 66.7603C67.3166 66.7603 67.4228 66.7438 67.5177 66.7108C67.6147 66.6757 67.6982 66.6252 67.7683 66.5592C67.8385 66.4911 67.8911 66.4086 67.9261 66.3117L68.6656 66.4633C68.6099 66.6489 68.515 66.8119 68.381 66.9521C68.2469 67.0903 68.0788 67.1986 67.8766 67.277C67.6765 67.3533 67.4476 67.3915 67.1898 67.3915ZM69.2845 68.6136V63.8612H70.0704V64.4336H70.123C70.1643 64.3511 70.2231 64.2624 70.2994 64.1675C70.3757 64.0726 70.4788 63.9911 70.6088 63.9231C70.7408 63.8529 70.9089 63.8179 71.1131 63.8179C71.3813 63.8179 71.6226 63.8859 71.8371 64.0221C72.0516 64.1582 72.2218 64.3593 72.3476 64.6254C72.4755 64.8894 72.5395 65.2133 72.5395 65.5969C72.5395 65.9765 72.4776 66.2993 72.3538 66.5654C72.2301 66.8315 72.0599 67.0346 71.8433 67.1749C71.6288 67.3131 71.3844 67.3822 71.11 67.3822C70.9141 67.3822 70.7501 67.3492 70.6181 67.2832C70.4861 67.2151 70.3809 67.1336 70.3025 67.0388C70.2241 66.9439 70.1643 66.8552 70.123 66.7727H70.089V68.6136H69.2845ZM70.8934 66.7201C71.0729 66.7201 71.2235 66.6716 71.3452 66.5746C71.4669 66.4756 71.5587 66.3416 71.6205 66.1724C71.6824 66.0012 71.7134 65.8084 71.7134 65.5938C71.7134 65.3793 71.6824 65.1885 71.6205 65.0214C71.5607 64.8523 71.47 64.7203 71.3483 64.6254C71.2266 64.5285 71.075 64.48 70.8934 64.48C70.716 64.48 70.5665 64.5264 70.4448 64.6192C70.3231 64.712 70.2303 64.842 70.1663 65.0091C70.1045 65.1741 70.0735 65.369 70.0735 65.5938C70.0735 65.8187 70.1045 66.0157 70.1663 66.1848C70.2303 66.3539 70.3231 66.486 70.4448 66.5808C70.5686 66.6737 70.7181 66.7201 70.8934 66.7201ZM74.7116 63.8612V64.4924H72.7469V63.8612H74.7116ZM73.2388 63.0382H74.0433V66.3457C74.0433 66.4715 74.0701 66.5643 74.1237 66.6242C74.1774 66.6819 74.265 66.7108 74.3867 66.7108C74.4239 66.7108 74.4723 66.7067 74.5322 66.6984C74.594 66.6881 74.6435 66.6788 74.6807 66.6706L74.8075 67.2925C74.7188 67.3193 74.6281 67.3378 74.5352 67.3482C74.4424 67.3605 74.3537 67.3667 74.2692 67.3667C73.9371 67.3667 73.6823 67.2842 73.5049 67.1192C73.3275 66.9542 73.2388 66.719 73.2388 66.4138V63.0382ZM76.6919 67.3915C76.3433 67.3915 76.0432 67.3182 75.7916 67.1718C75.542 67.0253 75.3491 66.8191 75.213 66.553C75.0789 66.2869 75.0119 65.9734 75.0119 65.6124C75.0119 65.2556 75.0779 64.9431 75.2099 64.6749C75.3439 64.4068 75.5327 64.1974 75.7761 64.0468C76.0215 63.8942 76.3093 63.8179 76.6393 63.8179C76.8497 63.8179 77.0498 63.8519 77.2396 63.92C77.4314 63.988 77.6005 64.0932 77.747 64.2356C77.8955 64.3779 78.011 64.5594 78.0935 64.7801C78.1781 64.9988 78.2204 65.2597 78.2204 65.5629V65.8166H75.3924V65.269H77.8212L77.4438 65.4299C77.4438 65.236 77.4139 65.0658 77.354 64.9193C77.2942 64.7708 77.2045 64.6553 77.0849 64.5728C76.9673 64.4903 76.8198 64.449 76.6424 64.449C76.465 64.449 76.3144 64.4913 76.1907 64.5759C76.0669 64.6584 75.972 64.7698 75.906 64.9101C75.8421 65.0483 75.8101 65.203 75.8101 65.3742V65.7516C75.8101 65.9703 75.8472 66.1549 75.9215 66.3055C75.9958 66.456 76.0999 66.5695 76.234 66.6458C76.3681 66.7221 76.5238 66.7603 76.7012 66.7603C76.8188 66.7603 76.925 66.7438 77.0199 66.7108C77.1168 66.6757 77.2004 66.6252 77.2705 66.5592C77.3406 66.4911 77.3932 66.4086 77.4283 66.3117L78.1678 66.4633C78.1121 66.6489 78.0172 66.8119 77.8831 66.9521C77.749 67.0903 77.5809 67.1986 77.3788 67.277C77.1787 67.3533 76.9498 67.3915 76.6919 67.3915ZM78.7867 67.3203V63.8612H79.5416L79.5726 64.6935H79.5138C79.5633 64.4872 79.6396 64.3191 79.7428 64.1891C79.848 64.0592 79.9697 63.9633 80.1079 63.9014C80.2481 63.8375 80.3946 63.8055 80.5472 63.8055C80.7968 63.8055 80.9979 63.8839 81.1505 64.0406C81.3052 64.1974 81.4146 64.4284 81.4785 64.7337H81.3826C81.43 64.5274 81.5105 64.3562 81.6239 64.2201C81.7394 64.0819 81.8756 63.9788 82.0323 63.9107C82.1912 63.8406 82.3603 63.8055 82.5398 63.8055C82.7481 63.8055 82.9348 63.8509 83.0998 63.9416C83.2648 64.0324 83.3958 64.1654 83.4927 64.3408C83.5897 64.514 83.6382 64.7296 83.6382 64.9874V67.3203H82.8306V65.1112C82.8306 64.8966 82.7718 64.7399 82.6543 64.6409C82.5387 64.5419 82.3985 64.4924 82.2335 64.4924C82.1056 64.4924 81.9942 64.5202 81.8993 64.5759C81.8044 64.6316 81.7312 64.7089 81.6796 64.808C81.6301 64.9049 81.6054 65.0183 81.6054 65.1483V67.3203H80.8195V65.074C80.8195 64.8987 80.7648 64.7584 80.6555 64.6533C80.5462 64.546 80.4059 64.4924 80.2347 64.4924C80.1171 64.4924 80.0088 64.5192 79.9098 64.5728C79.8129 64.6264 79.7355 64.7059 79.6778 64.811C79.62 64.9162 79.5912 65.0462 79.5912 65.2009V67.3203H78.7867ZM86.1909 67.3822C85.9949 67.3822 85.8309 67.3492 85.6989 67.2832C85.5669 67.2151 85.4617 67.1336 85.3833 67.0388C85.3049 66.9439 85.2451 66.8552 85.2039 66.7727H85.1513V67.3203H84.3654V62.7102H85.1698V64.4336H85.2039C85.2451 64.3511 85.3039 64.2624 85.3802 64.1675C85.4565 64.0726 85.5597 63.9911 85.6896 63.9231C85.8216 63.8529 85.9897 63.8179 86.194 63.8179C86.4621 63.8179 86.7034 63.8859 86.918 64.0221C87.1325 64.1582 87.3027 64.3593 87.4285 64.6254C87.5564 64.8894 87.6203 65.2133 87.6203 65.5969C87.6203 65.9765 87.5584 66.2993 87.4347 66.5654C87.3109 66.8315 87.1407 67.0346 86.9241 67.1749C86.7096 67.3131 86.4652 67.3822 86.1909 67.3822ZM85.9743 66.7201C86.1537 66.7201 86.3043 66.6716 86.426 66.5746C86.5477 66.4756 86.6395 66.3416 86.7014 66.1724C86.7633 66.0012 86.7942 65.8084 86.7942 65.5938C86.7942 65.3793 86.7633 65.1885 86.7014 65.0214C86.6416 64.8523 86.5508 64.7203 86.4291 64.6254C86.3074 64.5285 86.1558 64.48 85.9743 64.48C85.7969 64.48 85.6473 64.5264 85.5256 64.6192C85.4039 64.712 85.3111 64.842 85.2472 65.0091C85.1853 65.1741 85.1544 65.369 85.1544 65.5938C85.1544 65.8187 85.1853 66.0157 85.2472 66.1848C85.3111 66.3539 85.4039 66.486 85.5256 66.5808C85.6494 66.6737 85.7989 66.7201 85.9743 66.7201ZM89.7213 67.3915C89.3727 67.3915 89.0726 67.3182 88.8209 67.1718C88.5713 67.0253 88.3785 66.8191 88.2423 66.553C88.1083 66.2869 88.0412 65.9734 88.0412 65.6124C88.0412 65.2556 88.1072 64.9431 88.2392 64.6749C88.3733 64.4068 88.562 64.1974 88.8054 64.0468C89.0509 63.8942 89.3387 63.8179 89.6687 63.8179C89.8791 63.8179 90.0792 63.8519 90.2689 63.92C90.4608 63.988 90.6299 64.0932 90.7763 64.2356C90.9249 64.3779 91.0404 64.5594 91.1229 64.7801C91.2074 64.9988 91.2497 65.2597 91.2497 65.5629V65.8166H88.4218V65.269H90.8506L90.4731 65.4299C90.4731 65.236 90.4432 65.0658 90.3834 64.9193C90.3236 64.7708 90.2339 64.6553 90.1142 64.5728C89.9966 64.4903 89.8492 64.449 89.6718 64.449C89.4944 64.449 89.3438 64.4913 89.22 64.5759C89.0963 64.6584 89.0014 64.7698 88.9354 64.9101C88.8715 65.0483 88.8395 65.203 88.8395 65.3742V65.7516C88.8395 65.9703 88.8766 66.1549 88.9509 66.3055C89.0251 66.456 89.1293 66.5695 89.2634 66.6458C89.3974 66.7221 89.5532 66.7603 89.7306 66.7603C89.8481 66.7603 89.9544 66.7438 90.0492 66.7108C90.1462 66.6757 90.2297 66.6252 90.2999 66.5592C90.37 66.4911 90.4226 66.4086 90.4577 66.3117L91.1971 66.4633C91.1414 66.6489 91.0466 66.8119 90.9125 66.9521C90.7784 67.0903 90.6103 67.1986 90.4082 67.277C90.2081 67.3533 89.9791 67.3915 89.7213 67.3915ZM91.8161 67.3203V63.8612H92.5958V64.4398H92.6329C92.6948 64.2397 92.8031 64.086 92.9578 63.9788C93.1125 63.8694 93.2888 63.8148 93.4868 63.8148C93.5322 63.8148 93.5828 63.8168 93.6385 63.821C93.6941 63.8251 93.7416 63.8302 93.7808 63.8364V64.5759C93.7478 64.5656 93.6941 64.5563 93.6199 64.5481C93.5456 64.5398 93.4724 64.5357 93.4002 64.5357C93.2517 64.5357 93.1176 64.5677 92.998 64.6316C92.8804 64.6955 92.7876 64.7842 92.7195 64.8977C92.6535 65.0091 92.6205 65.138 92.6205 65.2844V67.3203H91.8161ZM103.057 65.0679V65.7331H96.7205V65.0679H103.057Z" fill="white"/>
<path d="M108.233 67.3884C107.858 67.3884 107.53 67.3182 107.249 67.178C106.969 67.0357 106.751 66.8397 106.596 66.5901C106.442 66.3385 106.364 66.0487 106.364 65.7207V62.7102H107.19V65.6526C107.19 65.8445 107.233 66.0157 107.317 66.1662C107.404 66.3168 107.525 66.4354 107.679 66.5221C107.836 66.6066 108.021 66.6489 108.233 66.6489C108.446 66.6489 108.629 66.6066 108.784 66.5221C108.941 66.4354 109.061 66.3168 109.146 66.1662C109.233 66.0157 109.276 65.8445 109.276 65.6526V62.7102H110.102V65.7207C110.102 66.0487 110.024 66.3385 109.867 66.5901C109.712 66.8397 109.495 67.0357 109.214 67.178C108.936 67.3182 108.609 67.3884 108.233 67.3884ZM112.175 67.3915C111.909 67.3915 111.674 67.3533 111.47 67.277C111.265 67.2007 111.097 67.0893 110.965 66.9428C110.835 66.7964 110.751 66.619 110.712 66.4107L111.463 66.2683C111.511 66.4395 111.594 66.5674 111.714 66.652C111.836 66.7345 111.995 66.7758 112.191 66.7758C112.389 66.7758 112.545 66.7366 112.661 66.6582C112.778 66.5777 112.837 66.4787 112.837 66.3612C112.837 66.2622 112.799 66.1807 112.723 66.1167C112.646 66.0507 112.529 66.0002 112.37 65.9651L111.779 65.8383C111.453 65.7681 111.21 65.6526 111.049 65.4917C110.888 65.3308 110.808 65.1235 110.808 64.8698C110.808 64.6553 110.866 64.4697 110.984 64.3129C111.101 64.1561 111.264 64.0344 111.473 63.9478C111.683 63.8612 111.927 63.8179 112.203 63.8179C112.465 63.8179 112.69 63.855 112.877 63.9292C113.067 64.0035 113.22 64.1077 113.335 64.2417C113.453 64.3738 113.534 64.5295 113.58 64.7089L112.862 64.8513C112.823 64.7296 112.752 64.6275 112.648 64.545C112.545 64.4604 112.4 64.4181 112.212 64.4181C112.041 64.4181 111.898 64.4563 111.782 64.5326C111.669 64.6068 111.612 64.7028 111.612 64.8203C111.612 64.9214 111.65 65.0049 111.726 65.0709C111.803 65.137 111.929 65.1885 112.104 65.2256L112.692 65.3494C113.02 65.4195 113.263 65.532 113.422 65.6867C113.581 65.8414 113.66 66.0404 113.66 66.2838C113.66 66.5025 113.597 66.6953 113.471 66.8624C113.346 67.0274 113.17 67.1574 112.946 67.2522C112.723 67.3451 112.466 67.3915 112.175 67.3915ZM115.752 67.3915C115.403 67.3915 115.103 67.3182 114.852 67.1718C114.602 67.0253 114.409 66.8191 114.273 66.553C114.139 66.2869 114.072 65.9734 114.072 65.6124C114.072 65.2556 114.138 64.9431 114.27 64.6749C114.404 64.4068 114.593 64.1974 114.836 64.0468C115.082 63.8942 115.369 63.8179 115.699 63.8179C115.91 63.8179 116.11 63.8519 116.3 63.92C116.491 63.988 116.661 64.0932 116.807 64.2356C116.956 64.3779 117.071 64.5594 117.154 64.7801C117.238 64.9988 117.28 65.2597 117.28 65.5629V65.8166H114.452V65.269H116.881L116.504 65.4299C116.504 65.236 116.474 65.0658 116.414 64.9193C116.354 64.7708 116.265 64.6553 116.145 64.5728C116.027 64.4903 115.88 64.449 115.702 64.449C115.525 64.449 115.374 64.4913 115.251 64.5759C115.127 64.6584 115.032 64.7698 114.966 64.9101C114.902 65.0483 114.87 65.203 114.87 65.3742V65.7516C114.87 65.9703 114.907 66.1549 114.982 66.3055C115.056 66.456 115.16 66.5695 115.294 66.6458C115.428 66.7221 115.584 66.7603 115.761 66.7603C115.879 66.7603 115.985 66.7438 116.08 66.7108C116.177 66.6757 116.26 66.6252 116.331 66.5592C116.401 66.4911 116.453 66.4086 116.488 66.3117L117.228 66.4633C117.172 66.6489 117.077 66.8119 116.943 66.9521C116.809 67.0903 116.641 67.1986 116.439 67.277C116.239 67.3533 116.01 67.3915 115.752 67.3915ZM117.847 67.3203V63.8612H118.626V64.4398H118.664C118.725 64.2397 118.834 64.086 118.988 63.9788C119.143 63.8694 119.319 63.8148 119.517 63.8148C119.563 63.8148 119.613 63.8168 119.669 63.821C119.725 63.8251 119.772 63.8302 119.811 63.8364V64.5759C119.778 64.5656 119.725 64.5563 119.651 64.5481C119.576 64.5398 119.503 64.5357 119.431 64.5357C119.282 64.5357 119.148 64.5677 119.029 64.6316C118.911 64.6955 118.818 64.7842 118.75 64.8977C118.684 65.0091 118.651 65.138 118.651 65.2844V67.3203H117.847ZM124.812 68.6136H124.007V66.7727H123.973C123.932 66.8552 123.871 66.9439 123.791 67.0388C123.712 67.1336 123.608 67.2151 123.478 67.2832C123.348 67.3492 123.183 67.3822 122.983 67.3822C122.711 67.3822 122.466 67.3131 122.25 67.1749C122.035 67.0346 121.866 66.8315 121.742 66.5654C121.619 66.2993 121.557 65.9765 121.557 65.5969C121.557 65.2133 121.62 64.8894 121.745 64.6254C121.873 64.3593 122.045 64.1582 122.259 64.0221C122.476 63.8859 122.716 63.8179 122.98 63.8179C123.186 63.8179 123.354 63.8529 123.484 63.9231C123.616 63.9911 123.72 64.0726 123.797 64.1675C123.875 64.2624 123.934 64.3511 123.973 64.4336H124.023V63.8612H124.812V68.6136ZM123.203 66.7201C123.378 66.7201 123.527 66.6737 123.648 66.5808C123.77 66.486 123.863 66.3539 123.927 66.1848C123.991 66.0157 124.023 65.8187 124.023 65.5938C124.023 65.369 123.991 65.1741 123.927 65.0091C123.865 64.842 123.772 64.712 123.648 64.6192C123.527 64.5264 123.378 64.48 123.203 64.48C123.021 64.48 122.87 64.5285 122.748 64.6254C122.626 64.7203 122.534 64.8523 122.473 65.0214C122.411 65.1885 122.38 65.3793 122.38 65.5938C122.38 65.8084 122.411 66.0012 122.473 66.1724C122.534 66.3416 122.626 66.4756 122.748 66.5746C122.872 66.6716 123.023 66.7201 123.203 66.7201ZM126.721 67.3636C126.484 67.3636 126.275 67.3131 126.096 67.212C125.918 67.1109 125.78 66.9635 125.681 66.7696C125.584 66.5736 125.536 66.3374 125.536 66.061V63.8612H126.34V65.9373C126.34 66.1683 126.4 66.3498 126.52 66.4818C126.641 66.6138 126.807 66.6798 127.018 66.6798C127.16 66.6798 127.287 66.6489 127.398 66.587C127.51 66.5251 127.596 66.4344 127.658 66.3148C127.722 66.1951 127.754 66.0528 127.754 65.8878V63.8612H128.562V67.3203H127.798L127.788 66.4664H127.85C127.753 66.7675 127.61 66.9923 127.42 67.1409C127.23 67.2894 126.997 67.3636 126.721 67.3636ZM130.817 67.3915C130.469 67.3915 130.169 67.3182 129.917 67.1718C129.667 67.0253 129.475 66.8191 129.338 66.553C129.204 66.2869 129.137 65.9734 129.137 65.6124C129.137 65.2556 129.203 64.9431 129.335 64.6749C129.469 64.4068 129.658 64.1974 129.902 64.0468C130.147 63.8942 130.435 63.8179 130.765 63.8179C130.975 63.8179 131.175 63.8519 131.365 63.92C131.557 63.988 131.726 64.0932 131.872 64.2356C132.021 64.3779 132.137 64.5594 132.219 64.7801C132.304 64.9988 132.346 65.2597 132.346 65.5629V65.8166H129.518V65.269H131.947L131.569 65.4299C131.569 65.236 131.539 65.0658 131.48 64.9193C131.42 64.7708 131.33 64.6553 131.21 64.5728C131.093 64.4903 130.945 64.449 130.768 64.449C130.591 64.449 130.44 64.4913 130.316 64.5759C130.192 64.6584 130.098 64.7698 130.032 64.9101C129.968 65.0483 129.936 65.203 129.936 65.3742V65.7516C129.936 65.9703 129.973 66.1549 130.047 66.3055C130.121 66.456 130.225 66.5695 130.36 66.6458C130.494 66.7221 130.649 66.7603 130.827 66.7603C130.944 66.7603 131.051 66.7438 131.145 66.7108C131.242 66.6757 131.326 66.6252 131.396 66.5592C131.466 66.4911 131.519 66.4086 131.554 66.3117L132.293 66.4633C132.238 66.6489 132.143 66.8119 132.009 66.9521C131.875 67.0903 131.706 67.1986 131.504 67.277C131.304 67.3533 131.075 67.3915 130.817 67.3915ZM134.221 67.3915C133.955 67.3915 133.72 67.3533 133.516 67.277C133.311 67.2007 133.143 67.0893 133.011 66.9428C132.881 66.7964 132.797 66.619 132.758 66.4107L133.509 66.2683C133.557 66.4395 133.64 66.5674 133.76 66.652C133.882 66.7345 134.04 66.7758 134.236 66.7758C134.434 66.7758 134.591 66.7366 134.707 66.6582C134.824 66.5777 134.883 66.4787 134.883 66.3612C134.883 66.2622 134.845 66.1807 134.769 66.1167C134.692 66.0507 134.575 66.0002 134.416 65.9651L133.825 65.8383C133.499 65.7681 133.256 65.6526 133.095 65.4917C132.934 65.3308 132.853 65.1235 132.853 64.8698C132.853 64.6553 132.912 64.4697 133.03 64.3129C133.147 64.1561 133.31 64.0344 133.519 63.9478C133.729 63.8612 133.972 63.8179 134.249 63.8179C134.511 63.8179 134.736 63.855 134.923 63.9292C135.113 64.0035 135.266 64.1077 135.381 64.2417C135.499 64.3738 135.58 64.5295 135.626 64.7089L134.908 64.8513C134.869 64.7296 134.798 64.6275 134.694 64.545C134.591 64.4604 134.446 64.4181 134.258 64.4181C134.087 64.4181 133.944 64.4563 133.828 64.5326C133.715 64.6068 133.658 64.7028 133.658 64.8203C133.658 64.9214 133.696 65.0049 133.772 65.0709C133.849 65.137 133.974 65.1885 134.15 65.2256L134.738 65.3494C135.066 65.4195 135.309 65.532 135.468 65.6867C135.627 65.8414 135.706 66.0404 135.706 66.2838C135.706 66.5025 135.643 66.6953 135.517 66.8624C135.392 67.0274 135.216 67.1574 134.991 67.2522C134.769 67.3451 134.512 67.3915 134.221 67.3915ZM137.869 63.8612V64.4924H135.904V63.8612H137.869ZM136.396 63.0382H137.201V66.3457C137.201 66.4715 137.227 66.5643 137.281 66.6242C137.335 66.6819 137.422 66.7108 137.544 66.7108C137.581 66.7108 137.63 66.7067 137.69 66.6984C137.751 66.6881 137.801 66.6788 137.838 66.6706L137.965 67.2925C137.876 67.3193 137.785 67.3378 137.693 67.3482C137.6 67.3605 137.511 67.3667 137.427 67.3667C137.094 67.3667 136.84 67.2842 136.662 67.1192C136.485 66.9542 136.396 66.719 136.396 66.4138V63.0382ZM138.383 67.3203V63.8612H139.187V67.3203H138.383ZM138.785 63.3723C138.657 63.3723 138.547 63.329 138.454 63.2424C138.363 63.1557 138.318 63.0526 138.318 62.933C138.318 62.8092 138.363 62.705 138.454 62.6205C138.547 62.5338 138.657 62.4905 138.785 62.4905C138.915 62.4905 139.025 62.5338 139.116 62.6205C139.209 62.705 139.255 62.8092 139.255 62.933C139.255 63.0526 139.209 63.1557 139.116 63.2424C139.025 63.329 138.915 63.3723 138.785 63.3723ZM141.415 67.3915C141.079 67.3915 140.787 67.3172 140.539 67.1687C140.292 67.0181 140.1 66.8098 139.964 66.5437C139.83 66.2756 139.763 65.9641 139.763 65.6093C139.763 65.2504 139.83 64.9369 139.964 64.6687C140.1 64.3985 140.292 64.1891 140.539 64.0406C140.787 63.8921 141.079 63.8179 141.415 63.8179C141.753 63.8179 142.046 63.8921 142.294 64.0406C142.541 64.1891 142.732 64.3985 142.866 64.6687C143.002 64.9369 143.07 65.2504 143.07 65.6093C143.07 65.9641 143.002 66.2756 142.866 66.5437C142.732 66.8098 142.541 67.0181 142.294 67.1687C142.046 67.3172 141.753 67.3915 141.415 67.3915ZM141.415 66.7386C141.603 66.7386 141.758 66.6881 141.882 66.587C142.008 66.486 142.101 66.3498 142.161 66.1786C142.223 66.0074 142.253 65.8166 142.253 65.6062C142.253 65.3938 142.223 65.2019 142.161 65.0307C142.101 64.8595 142.008 64.7234 141.882 64.6223C141.758 64.5212 141.603 64.4707 141.415 64.4707C141.227 64.4707 141.072 64.5212 140.948 64.6223C140.826 64.7234 140.734 64.8595 140.672 65.0307C140.613 65.1999 140.583 65.3917 140.583 65.6062C140.583 65.8166 140.613 66.0074 140.672 66.1786C140.734 66.3498 140.826 66.486 140.948 66.587C141.072 66.6881 141.227 66.7386 141.415 66.7386ZM144.453 65.2937V67.3203H143.649V63.8612H144.41L144.423 64.7151H144.358C144.454 64.416 144.597 64.1922 144.785 64.0437C144.972 63.8932 145.207 63.8179 145.49 63.8179C145.727 63.8179 145.934 63.8684 146.112 63.9695C146.289 64.0705 146.426 64.218 146.523 64.4119C146.622 64.6058 146.672 64.842 146.672 65.1205V67.3203H145.867V65.2442C145.867 65.0132 145.808 64.8317 145.688 64.6997C145.568 64.5677 145.403 64.5016 145.193 64.5016C145.051 64.5016 144.924 64.5326 144.812 64.5945C144.701 64.6563 144.613 64.7471 144.549 64.8667C144.485 64.9843 144.453 65.1266 144.453 65.2937ZM148.711 67.3915C148.445 67.3915 148.21 67.3533 148.006 67.277C147.801 67.2007 147.633 67.0893 147.501 66.9428C147.371 66.7964 147.287 66.619 147.247 66.4107L147.999 66.2683C148.047 66.4395 148.13 66.5674 148.25 66.652C148.372 66.7345 148.53 66.7758 148.726 66.7758C148.924 66.7758 149.081 66.7366 149.197 66.6582C149.314 66.5777 149.373 66.4787 149.373 66.3612C149.373 66.2622 149.335 66.1807 149.259 66.1167C149.182 66.0507 149.065 66.0002 148.906 65.9651L148.315 65.8383C147.989 65.7681 147.746 65.6526 147.585 65.4917C147.424 65.3308 147.343 65.1235 147.343 64.8698C147.343 64.6553 147.402 64.4697 147.52 64.3129C147.637 64.1561 147.8 64.0344 148.009 63.9478C148.219 63.8612 148.462 63.8179 148.739 63.8179C149.001 63.8179 149.226 63.855 149.413 63.9292C149.603 64.0035 149.756 64.1077 149.871 64.2417C149.989 64.3738 150.07 64.5295 150.116 64.7089L149.398 64.8513C149.359 64.7296 149.288 64.6275 149.184 64.545C149.081 64.4604 148.936 64.4181 148.748 64.4181C148.577 64.4181 148.434 64.4563 148.318 64.5326C148.205 64.6068 148.148 64.7028 148.148 64.8203C148.148 64.9214 148.186 65.0049 148.262 65.0709C148.339 65.137 148.464 65.1885 148.64 65.2256L149.228 65.3494C149.556 65.4195 149.799 65.532 149.958 65.6867C150.117 65.8414 150.196 66.0404 150.196 66.2838C150.196 66.5025 150.133 66.6953 150.007 66.8624C149.882 67.0274 149.706 67.1574 149.481 67.2522C149.259 67.3451 149.002 67.3915 148.711 67.3915Z" fill="#85888E"/>
<path d="M61.7555 84.9238L63.7233 79.3917H64.7629L66.7678 84.9238H65.8508L64.774 81.8459C64.6899 81.5959 64.5971 81.3013 64.4956 80.9622C64.3966 80.6231 64.2815 80.2159 64.1503 79.7407H64.3211C64.1948 80.2209 64.081 80.633 63.9795 80.9771C63.8805 81.3187 63.7926 81.6083 63.7159 81.8459L62.6726 84.9238H61.7555ZM62.8211 83.4647V82.7592H65.6985V83.4647H62.8211ZM68.8453 84.9758C68.5631 84.9758 68.3156 84.9164 68.1027 84.7976C67.8898 84.6788 67.724 84.503 67.6052 84.2704C67.4888 84.0377 67.4307 83.7506 67.4307 83.409V80.7729H68.2475V83.3087C68.2475 83.6082 68.3255 83.8422 68.4814 84.0105C68.6398 84.1788 68.8539 84.2629 69.1237 84.2629C69.3094 84.2629 69.474 84.2233 69.6175 84.1441C69.7636 84.0624 69.8787 83.9449 69.9628 83.7914C70.047 83.6355 70.0891 83.4486 70.0891 83.2308V80.7729H70.9059V84.9238H70.1262L70.1225 83.9065H70.2004C70.0792 84.2827 69.9022 84.555 69.6695 84.7233C69.4368 84.8917 69.1621 84.9758 68.8453 84.9758ZM73.7036 80.7729V81.4375H71.4536V80.7729H73.7036ZM72.0588 79.7853H72.8756V83.8025C72.8756 83.9684 72.9103 84.0909 72.9796 84.1701C73.0514 84.2469 73.1677 84.2852 73.3286 84.2852C73.3707 84.2852 73.4264 84.2803 73.4957 84.2704C73.565 84.2605 73.6244 84.2506 73.6739 84.2407L73.8187 84.8941C73.7321 84.9238 73.6392 84.9449 73.5402 84.9572C73.4412 84.9721 73.3434 84.9795 73.2469 84.9795C72.8707 84.9795 72.5786 84.883 72.3707 84.6899C72.1628 84.4944 72.0588 84.2209 72.0588 83.8694V79.7853ZM75.2686 82.4659V84.9238H74.4518V79.3917H75.2612V81.7902H75.1535C75.2748 81.4189 75.4506 81.1479 75.6807 80.9771C75.9109 80.8063 76.1894 80.7209 76.5161 80.7209C76.7983 80.7209 77.0446 80.7803 77.255 80.8991C77.4679 81.0179 77.6325 81.1937 77.7488 81.4263C77.8676 81.6565 77.927 81.9437 77.927 82.2877V84.9238H77.1102V82.388C77.1102 82.0885 77.0322 81.8545 76.8763 81.6862C76.7203 81.5179 76.5062 81.4338 76.234 81.4338C76.0508 81.4338 75.8862 81.4746 75.7402 81.5563C75.5941 81.6355 75.479 81.7518 75.3949 81.9053C75.3107 82.0587 75.2686 82.2456 75.2686 82.4659ZM80.7396 85.0092C80.3312 85.0092 79.9784 84.9214 79.6814 84.7456C79.3844 84.5699 79.1554 84.3223 78.9945 84.003C78.8361 83.6837 78.7569 83.3087 78.7569 82.8781C78.7569 82.4523 78.8349 82.0773 78.9908 81.7531C79.1492 81.4288 79.372 81.1763 79.6591 80.9956C79.9463 80.8125 80.2829 80.7209 80.669 80.7209C80.9067 80.7209 81.1356 80.7605 81.3559 80.8397C81.5762 80.9164 81.7742 81.0377 81.95 81.2036C82.1257 81.3694 82.2643 81.5847 82.3658 81.8496C82.4698 82.112 82.5217 82.4313 82.5217 82.8075V83.0971H79.2136V82.4882H82.1022L81.7198 82.6887C81.7198 82.4337 81.6802 82.2097 81.601 82.0167C81.5217 81.8211 81.4042 81.6689 81.2482 81.56C81.0948 81.4511 80.9017 81.3966 80.669 81.3966C80.4388 81.3966 80.2421 81.4523 80.0787 81.5637C79.9153 81.6751 79.7903 81.8224 79.7037 82.0055C79.6195 82.1862 79.5775 82.3842 79.5775 82.5996V83.0154C79.5775 83.3001 79.6257 83.5414 79.7223 83.7394C79.8213 83.935 79.9586 84.0835 80.1344 84.185C80.3101 84.284 80.5143 84.3335 80.747 84.3335C80.9005 84.3335 81.0391 84.3124 81.1628 84.2704C81.2866 84.2258 81.393 84.1602 81.4821 84.0736C81.5737 83.9845 81.643 83.8756 81.6901 83.7469L82.4586 83.9288C82.3918 84.1417 82.2792 84.3298 82.1208 84.4931C81.9648 84.6565 81.7693 84.784 81.5341 84.8756C81.3015 84.9647 81.0366 85.0092 80.7396 85.0092ZM84.161 82.4659V84.9238H83.3442V80.7729H84.1239L84.1313 81.7902H84.0459C84.1672 81.4189 84.343 81.1479 84.5732 80.9771C84.8034 80.8063 85.0818 80.7209 85.4086 80.7209C85.6907 80.7209 85.937 80.7803 86.1474 80.8991C86.3578 81.0179 86.5224 81.1937 86.6412 81.4263C86.76 81.6565 86.8194 81.9437 86.8194 82.2877V84.9238H86.0026V82.388C86.0026 82.0885 85.9246 81.8545 85.7687 81.6862C85.6128 81.5179 85.3987 81.4338 85.1264 81.4338C84.9432 81.4338 84.7786 81.4746 84.6326 81.5563C84.4865 81.6355 84.3714 81.7518 84.2873 81.9053C84.2031 82.0587 84.161 82.2456 84.161 82.4659ZM89.6171 80.7729V81.4375H87.3672V80.7729H89.6171ZM87.9723 79.7853H88.7892V83.8025C88.7892 83.9684 88.8238 84.0909 88.8931 84.1701C88.9649 84.2469 89.0812 84.2852 89.2421 84.2852C89.2842 84.2852 89.3399 84.2803 89.4092 84.2704C89.4785 84.2605 89.5379 84.2506 89.5874 84.2407L89.7322 84.8941C89.6456 84.9238 89.5528 84.9449 89.4538 84.9572C89.3548 84.9721 89.257 84.9795 89.1605 84.9795C88.7842 84.9795 88.4921 84.883 88.2842 84.6899C88.0763 84.4944 87.9723 84.2209 87.9723 83.8694V79.7853ZM90.3579 84.9238V80.7729H91.1747V84.9238H90.3579ZM90.77 80.138C90.629 80.138 90.5077 80.0909 90.4062 79.9969C90.3072 79.9028 90.2577 79.789 90.2577 79.6553C90.2577 79.5192 90.3072 79.4041 90.4062 79.31C90.5077 79.2159 90.629 79.1689 90.77 79.1689C90.9111 79.1689 91.0324 79.2159 91.1339 79.31C91.2354 79.4041 91.2861 79.5192 91.2861 79.6553C91.2861 79.789 91.2354 79.9028 91.1339 79.9969C91.0324 80.0909 90.9111 80.138 90.77 80.138ZM93.9427 85.0092C93.5517 85.0092 93.2113 84.9201 92.9217 84.7419C92.6321 84.5637 92.4069 84.3137 92.246 83.9919C92.0851 83.6701 92.0046 83.2964 92.0046 82.8706C92.0046 82.4399 92.0851 82.0637 92.246 81.7419C92.4069 81.4177 92.6321 81.1664 92.9217 80.9882C93.2113 80.81 93.5517 80.7209 93.9427 80.7209C94.1581 80.7209 94.3598 80.7494 94.5479 80.8063C94.7361 80.8607 94.9056 80.9412 95.0566 81.0476C95.2101 81.1516 95.3388 81.2803 95.4427 81.4338C95.5492 81.5847 95.6284 81.7555 95.6804 81.9461L94.9044 82.1318C94.8771 82.0253 94.8351 81.9288 94.7781 81.8422C94.7212 81.7531 94.6519 81.6763 94.5702 81.612C94.491 81.5476 94.3982 81.4981 94.2918 81.4635C94.1878 81.4288 94.0727 81.4115 93.9465 81.4115C93.6965 81.4115 93.4885 81.4783 93.3227 81.612C93.1593 81.7432 93.0368 81.9189 92.9551 82.1392C92.8759 82.3595 92.8363 82.6033 92.8363 82.8706C92.8363 83.1355 92.8759 83.378 92.9551 83.5983C93.0368 83.8162 93.1593 83.9907 93.3227 84.1219C93.4885 84.253 93.6965 84.3186 93.9465 84.3186C94.0752 84.3186 94.1927 84.3013 94.2992 84.2667C94.4056 84.2295 94.5009 84.1788 94.5851 84.1144C94.6692 84.0476 94.7398 83.9684 94.7967 83.8768C94.8536 83.7827 94.8945 83.68 94.9192 83.5686L95.6915 83.7543C95.642 83.9498 95.564 84.1256 95.4576 84.2815C95.3512 84.435 95.2212 84.5662 95.0677 84.6751C94.9168 84.784 94.746 84.8669 94.5554 84.9238C94.3648 84.9808 94.1606 85.0092 93.9427 85.0092ZM97.7466 85.0166C97.4843 85.0166 97.2466 84.9684 97.0338 84.8718C96.8209 84.7728 96.6526 84.6293 96.5288 84.4412C96.4051 84.253 96.3432 84.0228 96.3432 83.7506C96.3432 83.5154 96.3877 83.3224 96.4768 83.1714C96.5684 83.0204 96.6909 82.9003 96.8444 82.8112C97.0004 82.7221 97.1724 82.6553 97.3605 82.6107C97.5511 82.5662 97.7442 82.5328 97.9397 82.5105C98.1847 82.4808 98.384 82.4573 98.5375 82.4399C98.6909 82.4201 98.8036 82.3892 98.8753 82.3471C98.9496 82.3026 98.9867 82.232 98.9867 82.1355V82.1132C98.9867 81.9573 98.957 81.8261 98.8976 81.7196C98.8382 81.6132 98.7491 81.5315 98.6303 81.4746C98.514 81.4152 98.3679 81.3855 98.1922 81.3855C98.0115 81.3855 97.8555 81.414 97.7244 81.4709C97.5956 81.5253 97.4904 81.5959 97.4088 81.6825C97.3296 81.7691 97.2702 81.8595 97.2305 81.9536L96.462 81.7531C96.556 81.5055 96.6909 81.3063 96.8667 81.1553C97.0424 81.0043 97.2442 80.8942 97.4719 80.8248C97.6996 80.7555 97.9348 80.7209 98.1773 80.7209C98.3456 80.7209 98.5239 80.7407 98.712 80.7803C98.9001 80.8199 99.0771 80.8917 99.2429 80.9956C99.4087 81.0996 99.5436 81.2456 99.6476 81.4338C99.7516 81.6219 99.8035 81.8669 99.8035 82.1689V84.9238H99.0127V84.3558H98.9719C98.9174 84.4622 98.837 84.5662 98.7305 84.6676C98.6241 84.7691 98.4892 84.8533 98.3258 84.9201C98.1649 84.9845 97.9719 85.0166 97.7466 85.0166ZM97.9286 84.3595C98.1513 84.3595 98.3419 84.3162 98.5003 84.2295C98.6588 84.1429 98.78 84.0278 98.8642 83.8842C98.9484 83.7407 98.9904 83.5884 98.9904 83.4276V82.8966C98.9607 82.9263 98.9038 82.9535 98.8196 82.9783C98.738 83.0006 98.6439 83.0216 98.5375 83.0414C98.431 83.0587 98.3283 83.0736 98.2293 83.086C98.1303 83.0983 98.0486 83.1082 97.9843 83.1157C97.8308 83.1355 97.6897 83.1689 97.561 83.2159C97.4348 83.2629 97.3333 83.3298 97.2565 83.4164C97.1823 83.503 97.1452 83.6181 97.1452 83.7617C97.1452 83.8929 97.1786 84.003 97.2454 84.0922C97.3147 84.1813 97.4075 84.2481 97.5239 84.2926C97.6402 84.3372 97.7751 84.3595 97.9286 84.3595ZM102.605 80.7729V81.4375H100.355V80.7729H102.605ZM100.96 79.7853H101.777V83.8025C101.777 83.9684 101.812 84.0909 101.881 84.1701C101.953 84.2469 102.069 84.2852 102.23 84.2852C102.272 84.2852 102.328 84.2803 102.397 84.2704C102.466 84.2605 102.526 84.2506 102.575 84.2407L102.72 84.8941C102.633 84.9238 102.541 84.9449 102.442 84.9572C102.343 84.9721 102.245 84.9795 102.148 84.9795C101.772 84.9795 101.48 84.883 101.272 84.6899C101.064 84.4944 100.96 84.2209 100.96 83.8694V79.7853ZM103.346 84.9238V80.7729H104.163V84.9238H103.346ZM103.758 80.138C103.617 80.138 103.496 80.0909 103.394 79.9969C103.295 79.9028 103.246 79.789 103.246 79.6553C103.246 79.5192 103.295 79.4041 103.394 79.31C103.496 79.2159 103.617 79.1689 103.758 79.1689C103.899 79.1689 104.02 79.2159 104.122 79.31C104.223 79.4041 104.274 79.5192 104.274 79.6553C104.274 79.789 104.223 79.9028 104.122 79.9969C104.02 80.0909 103.899 80.138 103.758 80.138ZM106.931 85.0092C106.542 85.0092 106.202 84.9201 105.91 84.7419C105.62 84.5637 105.395 84.3137 105.234 83.9919C105.073 83.6701 104.992 83.2964 104.992 82.8706C104.992 82.4399 105.073 82.0637 105.234 81.7419C105.395 81.4177 105.62 81.1664 105.91 80.9882C106.202 80.81 106.542 80.7209 106.931 80.7209C107.322 80.7209 107.662 80.81 107.952 80.9882C108.244 81.1664 108.47 81.4177 108.631 81.7419C108.792 82.0637 108.872 82.4399 108.872 82.8706C108.872 83.2964 108.792 83.6701 108.631 83.9919C108.47 84.3137 108.244 84.5637 107.952 84.7419C107.662 84.9201 107.322 85.0092 106.931 85.0092ZM106.931 84.3186C107.183 84.3186 107.391 84.253 107.554 84.1219C107.72 83.9882 107.843 83.8124 107.922 83.5946C108.004 83.3743 108.044 83.133 108.044 82.8706C108.044 82.6058 108.004 82.3632 107.922 82.1429C107.843 81.9201 107.72 81.7432 107.554 81.612C107.391 81.4783 107.183 81.4115 106.931 81.4115C106.681 81.4115 106.474 81.4783 106.311 81.612C106.147 81.7432 106.025 81.9189 105.943 82.1392C105.864 82.3595 105.824 82.6033 105.824 82.8706C105.824 83.133 105.864 83.3743 105.943 83.5946C106.025 83.8124 106.147 83.9882 106.311 84.1219C106.474 84.253 106.681 84.3186 106.931 84.3186ZM110.523 82.4659V84.9238H109.706V80.7729H110.486L110.493 81.7902H110.408C110.529 81.4189 110.705 81.1479 110.935 80.9771C111.165 80.8063 111.444 80.7209 111.77 80.7209C112.053 80.7209 112.299 80.7803 112.509 80.8991C112.72 81.0179 112.884 81.1937 113.003 81.4263C113.122 81.6565 113.181 81.9437 113.181 82.2877V84.9238H112.364V82.388C112.364 82.0885 112.286 81.8545 112.13 81.6862C111.975 81.5179 111.76 81.4338 111.488 81.4338C111.305 81.4338 111.14 81.4746 110.994 81.5563C110.848 81.6355 110.733 81.7518 110.649 81.9053C110.565 82.0587 110.523 82.2456 110.523 82.4659Z" fill="#94969C"/>
<path d="M132.098 84.0142V80.3533H132.829V84.0142H132.098ZM130.635 82.529V81.8385H134.292V82.529H130.635ZM137.472 79.3917V84.9238H136.633V80.1602H136.596L135.281 81.1182V80.2679L136.492 79.3917H137.472ZM140.381 84.9981C140.037 84.9981 139.73 84.9325 139.46 84.8013C139.19 84.6701 138.975 84.4894 138.814 84.2592C138.656 84.029 138.57 83.7679 138.558 83.4758H139.382C139.395 83.6318 139.447 83.7716 139.538 83.8954C139.63 84.0167 139.749 84.112 139.895 84.1813C140.041 84.2506 140.203 84.2852 140.381 84.2852C140.591 84.2852 140.778 84.237 140.942 84.1404C141.105 84.0439 141.232 83.9102 141.324 83.7394C141.418 83.5662 141.465 83.3694 141.465 83.1491C141.465 82.9263 141.417 82.7271 141.32 82.5513C141.224 82.3731 141.091 82.2345 140.923 82.1355C140.755 82.0365 140.562 81.987 140.344 81.987C140.173 81.987 140.004 82.0167 139.835 82.0761C139.669 82.133 139.536 82.2073 139.434 82.2988L138.655 82.1875L138.963 79.3917H142.018V80.1157H139.672L139.497 81.6602H139.527C139.636 81.5538 139.78 81.4659 139.958 81.3966C140.138 81.3273 140.333 81.2927 140.541 81.2927C140.791 81.2927 141.022 81.3385 141.235 81.43C141.45 81.5191 141.636 81.6466 141.792 81.8125C141.95 81.9783 142.073 82.1738 142.159 82.3991C142.249 82.6219 142.293 82.8669 142.293 83.1342C142.293 83.4931 142.21 83.8137 142.044 84.0959C141.881 84.3756 141.656 84.5959 141.369 84.7568C141.082 84.9176 140.752 84.9981 140.381 84.9981ZM143.587 84.9795C143.434 84.9795 143.304 84.9263 143.197 84.8199C143.091 84.7134 143.038 84.5847 143.038 84.4337C143.038 84.2803 143.091 84.1516 143.197 84.0476C143.304 83.9412 143.434 83.8879 143.587 83.8879C143.738 83.8879 143.867 83.9412 143.973 84.0476C144.08 84.1516 144.133 84.2803 144.133 84.4337C144.133 84.5847 144.08 84.7134 143.973 84.8199C143.867 84.9263 143.738 84.9795 143.587 84.9795ZM146.912 84.9981C146.665 84.9981 146.419 84.9548 146.177 84.8681C145.937 84.779 145.719 84.6342 145.523 84.4337C145.33 84.2308 145.176 83.9585 145.059 83.6169C144.943 83.2753 144.885 82.8508 144.885 82.3434C144.885 81.8632 144.933 81.4362 145.03 81.0625C145.126 80.6887 145.266 80.3719 145.449 80.112C145.632 79.8521 145.853 79.6553 146.11 79.5216C146.368 79.3855 146.658 79.3174 146.983 79.3174C147.309 79.3174 147.6 79.383 147.855 79.5142C148.113 79.6429 148.322 79.8211 148.483 80.0489C148.646 80.2766 148.747 80.5377 148.787 80.8323H147.955C147.898 80.607 147.787 80.4226 147.621 80.2791C147.458 80.133 147.245 80.06 146.983 80.06C146.713 80.06 146.481 80.1392 146.288 80.2976C146.098 80.456 145.952 80.6838 145.85 80.9808C145.751 81.2753 145.702 81.6318 145.702 82.0501H145.743C145.837 81.8941 145.953 81.7605 146.092 81.6491C146.23 81.5352 146.386 81.4486 146.559 81.3892C146.735 81.3298 146.919 81.3001 147.113 81.3001C147.434 81.3001 147.725 81.3781 147.985 81.534C148.245 81.6875 148.452 81.9016 148.605 82.1763C148.761 82.4511 148.839 82.7642 148.839 83.1157C148.839 83.4696 148.759 83.7889 148.598 84.0736C148.437 84.3582 148.212 84.5835 147.922 84.7493C147.635 84.9152 147.298 84.9981 146.912 84.9981ZM146.908 84.2852C147.119 84.2852 147.307 84.2332 147.473 84.1293C147.639 84.0253 147.77 83.8867 147.866 83.7134C147.965 83.5377 148.015 83.3422 148.015 83.1268C148.015 82.9139 147.968 82.7221 147.874 82.5513C147.78 82.3781 147.65 82.2407 147.484 82.1392C147.32 82.0377 147.134 81.987 146.923 81.987C146.765 81.987 146.618 82.0179 146.481 82.0798C146.348 82.1392 146.23 82.2234 146.129 82.3323C146.027 82.4387 145.948 82.5612 145.891 82.6998C145.834 82.836 145.806 82.9808 145.806 83.1342C145.806 83.3397 145.853 83.5303 145.947 83.706C146.043 83.8793 146.174 84.0191 146.34 84.1256C146.509 84.232 146.698 84.2852 146.908 84.2852ZM151.106 81.9016C150.861 81.9016 150.654 81.8496 150.486 81.7456C150.32 81.6392 150.194 81.4981 150.107 81.3224C150.02 81.1466 149.977 80.9548 149.977 80.7469V80.4573C149.977 80.2469 150.02 80.0551 150.107 79.8818C150.196 79.706 150.325 79.5662 150.493 79.4622C150.661 79.3558 150.866 79.3026 151.106 79.3026C151.351 79.3026 151.556 79.3558 151.722 79.4622C151.888 79.5662 152.013 79.706 152.097 79.8818C152.184 80.0551 152.227 80.2469 152.227 80.4573V80.7469C152.227 80.9573 152.184 81.1503 152.097 81.3261C152.01 81.4993 151.884 81.6392 151.718 81.7456C151.553 81.8496 151.348 81.9016 151.106 81.9016ZM151.106 81.3521C151.286 81.3521 151.413 81.2902 151.485 81.1664C151.556 81.0427 151.592 80.9028 151.592 80.7469V80.4573C151.592 80.3038 151.558 80.164 151.488 80.0377C151.419 79.9115 151.291 79.8484 151.106 79.8484C150.928 79.8484 150.801 79.9115 150.727 80.0377C150.653 80.164 150.616 80.3038 150.616 80.4573V80.7469C150.616 80.9028 150.652 81.0427 150.723 81.1664C150.798 81.2902 150.925 81.3521 151.106 81.3521ZM154.808 85.0278C154.565 85.0278 154.359 84.9758 154.191 84.8718C154.023 84.7654 153.895 84.6243 153.809 84.4486C153.725 84.2728 153.683 84.081 153.683 83.8731V83.5835C153.683 83.3731 153.726 83.1813 153.812 83.008C153.899 82.8323 154.027 82.6924 154.195 82.5884C154.363 82.482 154.567 82.4288 154.808 82.4288C155.055 82.4288 155.262 82.482 155.428 82.5884C155.596 82.6924 155.722 82.8323 155.806 83.008C155.89 83.1813 155.932 83.3731 155.932 83.5835V83.8731C155.932 84.081 155.889 84.2728 155.803 84.4486C155.716 84.6243 155.59 84.7654 155.424 84.8718C155.258 84.9758 155.053 85.0278 154.808 85.0278ZM154.808 84.4783C154.988 84.4783 155.114 84.4164 155.186 84.2926C155.258 84.1689 155.294 84.029 155.294 83.8731V83.5835C155.294 83.43 155.259 83.2902 155.19 83.1639C155.121 83.0377 154.993 82.9746 154.808 82.9746C154.629 82.9746 154.503 83.0377 154.429 83.1639C154.355 83.2902 154.317 83.43 154.317 83.5835V83.8731C154.317 84.029 154.353 84.1689 154.425 84.2926C154.499 84.4164 154.627 84.4783 154.808 84.4783ZM150.697 84.9238L154.499 79.3917H155.175L151.373 84.9238H150.697Z" fill="#12B76A"/>
<path d="M61.4724 99.7256L63.4402 94.1934H64.4798L66.4848 99.7256H65.5677L64.491 96.6476C64.4068 96.3976 64.314 96.1031 64.2125 95.764C64.1135 95.4249 63.9984 95.0177 63.8672 94.5425H64.038C63.9118 95.0226 63.7979 95.4348 63.6964 95.7788C63.5974 96.1204 63.5095 96.41 63.4328 96.6476L62.3895 99.7256H61.4724ZM62.538 98.2664V97.561H65.4155V98.2664H62.538ZM67.2107 99.7256V94.1934H69.1934C69.6191 94.1934 69.9743 94.2727 70.2589 94.4311C70.5436 94.5895 70.7565 94.8036 70.8976 95.0734C71.0386 95.3432 71.1092 95.6489 71.1092 95.9905C71.1092 96.332 71.0374 96.639 70.8938 96.9112C70.7528 97.181 70.5399 97.3952 70.2552 97.5536C69.9706 97.7095 69.6141 97.7875 69.1859 97.7875H67.8307V97.0709H69.1043C69.3765 97.0709 69.5968 97.0239 69.7651 96.9298C69.9335 96.8358 70.056 96.707 70.1327 96.5437C70.2119 96.3803 70.2515 96.1959 70.2515 95.9905C70.2515 95.7825 70.2119 95.5981 70.1327 95.4372C70.056 95.2739 69.9322 95.1464 69.7614 95.0548C69.5931 94.9632 69.3716 94.9175 69.0968 94.9175H68.0572V99.7256H67.2107ZM72.8599 94.1934V99.7256H72.0133V94.1934H72.8599ZM75.9602 99.7256V94.1934H79.4429V94.9212H76.8068V96.5697H79.2535V97.2937H76.8068V98.9979H79.4652V99.7256H75.9602ZM81.227 97.2677V99.7256H80.4102V95.5746H81.1899L81.1973 96.5919H81.1119C81.2332 96.2207 81.4089 95.9496 81.6391 95.7788C81.8693 95.608 82.1478 95.5226 82.4745 95.5226C82.7567 95.5226 83.003 95.5821 83.2134 95.7009C83.4238 95.8197 83.5884 95.9954 83.7072 96.2281C83.826 96.4583 83.8854 96.7454 83.8854 97.0895V99.7256H83.0686V97.1897C83.0686 96.8902 82.9906 96.6563 82.8346 96.488C82.6787 96.3197 82.4646 96.2355 82.1923 96.2355C82.0092 96.2355 81.8446 96.2764 81.6985 96.358C81.5525 96.4372 81.4374 96.5536 81.3532 96.707C81.2691 96.8605 81.227 97.0474 81.227 97.2677ZM86.4529 99.8073C86.1163 99.8073 85.8168 99.7219 85.5544 99.5511C85.292 99.3778 85.0866 99.1315 84.9381 98.8122C84.7895 98.4904 84.7153 98.1068 84.7153 97.6612C84.7153 97.2108 84.7908 96.8259 84.9418 96.5065C85.0928 96.1872 85.2994 95.9434 85.5618 95.7751C85.8242 95.6068 86.1212 95.5226 86.4529 95.5226C86.7103 95.5226 86.917 95.566 87.0729 95.6526C87.2314 95.7368 87.3551 95.8358 87.4442 95.9496C87.5333 96.0635 87.6014 96.1637 87.6484 96.2504H87.693V94.1934H88.5098V99.7256H87.7153V99.0758H87.6484C87.6014 99.1649 87.5321 99.2664 87.4405 99.3803C87.3489 99.4942 87.2239 99.5944 87.0655 99.681C86.9071 99.7652 86.7029 99.8073 86.4529 99.8073ZM86.6311 99.113C86.8638 99.113 87.0593 99.0511 87.2177 98.9273C87.3786 98.8036 87.4999 98.6328 87.5816 98.415C87.6658 98.1947 87.7078 97.9409 87.7078 97.6538C87.7078 97.3642 87.667 97.113 87.5853 96.9001C87.5036 96.6848 87.3823 96.5177 87.2215 96.3989C87.063 96.2776 86.8663 96.2169 86.6311 96.2169C86.391 96.2169 86.1905 96.2801 86.0296 96.4063C85.8712 96.5325 85.7512 96.7046 85.6695 96.9224C85.5903 97.1377 85.5507 97.3815 85.5507 97.6538C85.5507 97.9286 85.5915 98.1761 85.6732 98.3964C85.7549 98.6167 85.8762 98.7912 86.0371 98.9199C86.1979 99.0486 86.396 99.113 86.6311 99.113ZM89.5328 101.278V95.5746H90.3273V96.2504H90.3941C90.4437 96.1637 90.5117 96.0635 90.5984 95.9496C90.6875 95.8358 90.81 95.7368 90.9659 95.6526C91.1243 95.566 91.3335 95.5226 91.5934 95.5226C91.9251 95.5226 92.2209 95.6068 92.4808 95.7751C92.7431 95.9434 92.9498 96.1872 93.1008 96.5065C93.2518 96.8259 93.3273 97.2108 93.3273 97.6612C93.3273 98.1068 93.253 98.4904 93.1045 98.8122C92.956 99.1315 92.7506 99.3778 92.4882 99.5511C92.2283 99.7219 91.93 99.8073 91.5934 99.8073C91.3434 99.8073 91.138 99.7652 90.9771 99.681C90.8187 99.5944 90.6937 99.4942 90.6021 99.3803C90.513 99.2664 90.4437 99.1649 90.3941 99.0758H90.3496V101.278H89.5328ZM91.4115 99.113C91.6491 99.113 91.8483 99.0486 92.0092 98.9199C92.1701 98.7912 92.2902 98.6167 92.3694 98.3964C92.4511 98.1761 92.4919 97.9286 92.4919 97.6538C92.4919 97.3815 92.4511 97.1377 92.3694 96.9224C92.2902 96.7046 92.1701 96.5325 92.0092 96.4063C91.8508 96.2801 91.6516 96.2169 91.4115 96.2169C91.1788 96.2169 90.982 96.2776 90.8211 96.3989C90.6602 96.5177 90.539 96.6848 90.4573 96.9001C90.3756 97.113 90.3347 97.3642 90.3347 97.6538C90.3347 97.9409 90.3756 98.1947 90.4573 98.415C90.5414 98.6328 90.6639 98.8036 90.8248 98.9273C90.9857 99.0511 91.1813 99.113 91.4115 99.113ZM95.9022 99.811C95.5136 99.811 95.1733 99.7219 94.8812 99.5437C94.5916 99.3654 94.3664 99.1154 94.2055 98.7937C94.0446 98.4719 93.9641 98.0981 93.9641 97.6724C93.9641 97.2417 94.0446 96.8655 94.2055 96.5437C94.3664 96.2194 94.5916 95.9682 94.8812 95.79C95.1733 95.6118 95.5136 95.5226 95.9022 95.5226C96.2933 95.5226 96.6337 95.6118 96.9233 95.79C97.2153 95.9682 97.4418 96.2194 97.6027 96.5437C97.7636 96.8655 97.844 97.2417 97.844 97.6724C97.844 98.0981 97.7636 98.4719 97.6027 98.7937C97.4418 99.1154 97.2153 99.3654 96.9233 99.5437C96.6337 99.7219 96.2933 99.811 95.9022 99.811ZM95.9022 99.1204C96.1547 99.1204 96.3626 99.0548 96.526 98.9236C96.6918 98.7899 96.8144 98.6142 96.8936 98.3964C96.9752 98.1761 97.0161 97.9348 97.0161 97.6724C97.0161 97.4075 96.9752 97.165 96.8936 96.9447C96.8144 96.7219 96.6918 96.5449 96.526 96.4137C96.3626 96.2801 96.1547 96.2132 95.9022 96.2132C95.6522 96.2132 95.4456 96.2801 95.2822 96.4137C95.1188 96.5449 94.9963 96.7207 94.9146 96.941C94.8354 97.1612 94.7958 97.4051 94.7958 97.6724C94.7958 97.9348 94.8354 98.1761 94.9146 98.3964C94.9963 98.6142 95.1188 98.7899 95.2822 98.9236C95.4456 99.0548 95.6522 99.1204 95.9022 99.1204ZM98.6777 99.7256V95.5746H99.4945V99.7256H98.6777ZM99.0898 94.9397C98.9487 94.9397 98.8274 94.8927 98.7259 94.7986C98.6269 94.7046 98.5774 94.5907 98.5774 94.4571C98.5774 94.3209 98.6269 94.2058 98.7259 94.1118C98.8274 94.0177 98.9487 93.9707 99.0898 93.9707C99.2309 93.9707 99.3522 94.0177 99.4536 94.1118C99.5551 94.2058 99.6059 94.3209 99.6059 94.4571C99.6059 94.5907 99.5551 94.7046 99.4536 94.7986C99.3522 94.8927 99.2309 94.9397 99.0898 94.9397ZM101.334 97.2677V99.7256H100.517V95.5746H101.297L101.305 96.5919H101.219C101.34 96.2207 101.516 95.9496 101.746 95.7788C101.977 95.608 102.255 95.5226 102.582 95.5226C102.864 95.5226 103.11 95.5821 103.321 95.7009C103.531 95.8197 103.696 95.9954 103.814 96.2281C103.933 96.4583 103.993 96.7454 103.993 97.0895V99.7256H103.176V97.1897C103.176 96.8902 103.098 96.6563 102.942 96.488C102.786 96.3197 102.572 96.2355 102.3 96.2355C102.116 96.2355 101.952 96.2764 101.806 96.358C101.66 96.4372 101.545 96.5536 101.461 96.707C101.376 96.8605 101.334 97.0474 101.334 97.2677ZM106.79 95.5746V96.2392H104.54V95.5746H106.79ZM105.146 94.587H105.962V98.6043C105.962 98.7701 105.997 98.8927 106.066 98.9719C106.138 99.0486 106.254 99.087 106.415 99.087C106.457 99.087 106.513 99.082 106.582 99.0721C106.652 99.0622 106.711 99.0523 106.761 99.0424L106.905 99.6959C106.819 99.7256 106.726 99.7466 106.627 99.759C106.528 99.7739 106.43 99.7813 106.334 99.7813C105.957 99.7813 105.665 99.6847 105.457 99.4917C105.25 99.2961 105.146 99.0226 105.146 98.6711V94.587ZM108.953 99.811C108.654 99.811 108.386 99.7677 108.151 99.681C107.919 99.5944 107.727 99.4669 107.576 99.2986C107.427 99.1278 107.328 98.9199 107.279 98.6749L108.047 98.5152C108.104 98.7305 108.211 98.8902 108.367 98.9942C108.522 99.0981 108.721 99.1501 108.961 99.1501C109.223 99.1501 109.432 99.0956 109.588 98.9867C109.744 98.8753 109.822 98.7429 109.822 98.5895C109.822 98.4558 109.774 98.3456 109.677 98.259C109.583 98.1724 109.437 98.108 109.239 98.0659L108.541 97.9063C108.155 97.8197 107.868 97.681 107.68 97.4905C107.492 97.2999 107.397 97.0561 107.397 96.759C107.397 96.5115 107.467 96.2949 107.605 96.1093C107.744 95.9236 107.933 95.7801 108.173 95.6786C108.414 95.5746 108.691 95.5226 109.005 95.5226C109.305 95.5226 109.561 95.566 109.774 95.6526C109.987 95.7392 110.159 95.8605 110.29 96.0165C110.423 96.1724 110.519 96.3531 110.576 96.5585L109.844 96.7182C109.792 96.5721 109.702 96.4447 109.573 96.3358C109.445 96.2244 109.258 96.1687 109.013 96.1687C108.787 96.1687 108.599 96.2194 108.448 96.3209C108.297 96.4224 108.222 96.5511 108.222 96.707C108.222 96.8457 108.271 96.9583 108.37 97.0449C108.472 97.1291 108.636 97.1971 108.864 97.2491L109.532 97.3976C109.916 97.4843 110.201 97.6204 110.386 97.806C110.572 97.9917 110.665 98.2293 110.665 98.5189C110.665 98.7714 110.592 98.9954 110.446 99.1909C110.302 99.384 110.102 99.5362 109.844 99.6476C109.589 99.7565 109.292 99.811 108.953 99.811Z" fill="#94969C"/>
<path d="M133.069 98.8159V95.1551H133.8V98.8159H133.069ZM131.606 97.3308V96.6402H135.263V97.3308H131.606ZM138.443 94.1934V99.7256H137.604V94.962H137.567L136.253 95.9199V95.0697L137.463 94.1934H138.443ZM141.523 94.1934V99.7256H140.684V94.962H140.647L139.333 95.9199V95.0697L140.543 94.1934H141.523ZM143.215 99.7813C143.061 99.7813 142.931 99.7281 142.825 99.6216C142.718 99.5152 142.665 99.3865 142.665 99.2355C142.665 99.082 142.718 98.9533 142.825 98.8494C142.931 98.7429 143.061 98.6897 143.215 98.6897C143.366 98.6897 143.494 98.7429 143.601 98.8494C143.707 98.9533 143.76 99.082 143.76 99.2355C143.76 99.3865 143.707 99.5152 143.601 99.6216C143.494 99.7281 143.366 99.7813 143.215 99.7813ZM144.717 98.6489V97.9657L147.1 94.1934H147.642V95.1996H147.297L145.6 97.884V97.9286H148.875V98.6489H144.717ZM147.334 99.7256V98.4447L147.342 98.1291V94.1934H148.147V99.7256H147.334ZM151.134 96.7033C150.889 96.7033 150.683 96.6514 150.514 96.5474C150.348 96.441 150.222 96.2999 150.136 96.1241C150.049 95.9484 150.006 95.7566 150.006 95.5486V95.259C150.006 95.0486 150.049 94.8568 150.136 94.6835C150.225 94.5078 150.353 94.368 150.522 94.264C150.69 94.1576 150.894 94.1043 151.134 94.1043C151.379 94.1043 151.585 94.1576 151.751 94.264C151.916 94.368 152.041 94.5078 152.126 94.6835C152.212 94.8568 152.256 95.0486 152.256 95.259V95.5486C152.256 95.759 152.212 95.9521 152.126 96.1278C152.039 96.3011 151.913 96.441 151.747 96.5474C151.581 96.6514 151.377 96.7033 151.134 96.7033ZM151.134 96.1538C151.315 96.1538 151.441 96.0919 151.513 95.9682C151.585 95.8444 151.621 95.7046 151.621 95.5486V95.259C151.621 95.1056 151.586 94.9657 151.517 94.8395C151.447 94.7132 151.32 94.6501 151.134 94.6501C150.956 94.6501 150.83 94.7132 150.756 94.8395C150.681 94.9657 150.644 95.1056 150.644 95.259V95.5486C150.644 95.7046 150.68 95.8444 150.752 95.9682C150.826 96.0919 150.954 96.1538 151.134 96.1538ZM154.836 99.8295C154.593 99.8295 154.388 99.7776 154.22 99.6736C154.051 99.5672 153.924 99.4261 153.837 99.2503C153.753 99.0746 153.711 98.8828 153.711 98.6749V98.3852C153.711 98.1749 153.754 97.983 153.841 97.8098C153.928 97.634 154.055 97.4942 154.223 97.3902C154.392 97.2838 154.596 97.2306 154.836 97.2306C155.083 97.2306 155.29 97.2838 155.456 97.3902C155.624 97.4942 155.751 97.634 155.835 97.8098C155.919 97.983 155.961 98.1749 155.961 98.3852V98.6749C155.961 98.8828 155.918 99.0746 155.831 99.2503C155.744 99.4261 155.618 99.5672 155.452 99.6736C155.286 99.7776 155.081 99.8295 154.836 99.8295ZM154.836 99.28C155.017 99.28 155.143 99.2182 155.215 99.0944C155.286 98.9706 155.322 98.8308 155.322 98.6749V98.3852C155.322 98.2318 155.288 98.0919 155.218 97.9657C155.149 97.8395 155.022 97.7763 154.836 97.7763C154.658 97.7763 154.532 97.8395 154.457 97.9657C154.383 98.0919 154.346 98.2318 154.346 98.3852V98.6749C154.346 98.8308 154.382 98.9706 154.454 99.0944C154.528 99.2182 154.655 99.28 154.836 99.28ZM150.726 99.7256L154.528 94.1934H155.204L151.402 99.7256H150.726Z" fill="#12B76A"/>
<path d="M0 133.825C3.26112 131.83 19.4672 123.68 34.1854 126.133C50.7595 128.896 48.8029 135.917 63.0751 137.528C77.3472 139.139 86.6702 127.514 100.712 122.91C114.754 118.307 116.596 130.277 132.94 131.198C149.284 132.118 153.093 112.829 168.746 108.916C184.4 105.003 182.662 128.55 202.689 131.198C222.716 133.845 247.717 116.689 263.601 114.733" stroke="#E981FA" stroke-width="1.01385"/>
<path d="M34.2219 126.537C19.5037 124.084 3.26545 132.463 0.00432947 134.458L-0.3125 150.532H263.605V114.993C247.722 116.949 222.485 134.254 202.458 131.607C182.431 128.959 184.528 105.515 168.874 109.429C153.221 113.342 149.417 132.527 133.073 131.607C116.729 130.686 115.115 118.765 101.073 123.369C87.031 127.973 77.3256 139.555 63.0534 137.943C48.7812 136.332 50.7961 129.3 34.2219 126.537Z" fill="url(#paint1_linear_987_8035)"/>
<line x1="167.918" y1="39.4092" x2="167.918" y2="150.299" stroke="url(#paint2_linear_987_8035)" stroke-width="0.633659"/>
<rect x="164.881" y="66.0754" width="5.44947" height="5.44947" rx="2.72473" fill="#A75BFE" stroke="white" stroke-width="0.887122"/>
<rect x="164.881" y="106.148" width="5.44947" height="5.44947" rx="2.72473" fill="#E981FA" stroke="white" stroke-width="0.887122"/>
</g>
<rect x="0.316829" y="0.316829" width="261.701" height="150.177" rx="9.82171" stroke="#F5F5F6" stroke-width="0.633659"/>
<defs>
<linearGradient id="paint0_linear_987_8035" x1="146.696" y1="38.4588" x2="143.211" y2="132.874" gradientUnits="userSpaceOnUse">
<stop stop-color="white"/>
<stop offset="1" stop-color="#E3D4F4"/>
</linearGradient>
<linearGradient id="paint1_linear_987_8035" x1="97.271" y1="189.586" x2="99.4888" y2="130.023" gradientUnits="userSpaceOnUse">
<stop stop-color="white"/>
<stop offset="1" stop-color="#F6E3F9"/>
</linearGradient>
<linearGradient id="paint2_linear_987_8035" x1="167.102" y1="39.4092" x2="167.102" y2="150.299" gradientUnits="userSpaceOnUse">
<stop stop-color="#E7E7E9"/>
<stop offset="0.591551" stop-color="#DBDCE0"/>
<stop offset="1" stop-color="#DBDCE0"/>
</linearGradient>
<clipPath id="clip0_987_8035">
<rect width="262.335" height="150.811" rx="10.1385" fill="white"/>
</clipPath>
</defs>
</svg>
