<svg width="70" height="26" viewBox="0 0 70 26" fill="none" xmlns="http://www.w3.org/2000/svg">
<g opacity="0.84">
<g clip-path="url(#clip0_987_8155)">
<path d="M11.9852 2.23273L10.1299 1.62012L8.5664 8.81056L7.15486 2.31898L5.29952 2.93159L6.82461 9.94526L3.02599 5.26428L1.66781 6.93796L5.83441 12.0725L0.645567 10.3591L0.148438 12.6454L5.8179 14.5174C5.75299 14.1724 5.71865 13.8129 5.71865 13.4436C5.71865 10.8291 7.43855 8.7097 9.56018 8.7097C11.6818 8.7097 13.4017 10.8291 13.4017 13.4436C13.4017 13.8106 13.3678 14.1678 13.3037 14.5108L18.4562 16.2121L18.9533 13.9258L13.2613 12.0464L18.4505 10.3329L17.9533 8.04667L12.2615 9.92602L16.0601 5.24506L14.702 3.57139L10.5932 8.63466L11.9852 2.23273Z" fill="white"/>
<path d="M13.2983 14.5374C13.1392 15.3661 12.8034 16.1106 12.3426 16.7071L16.0753 21.307L17.4335 19.6333L13.2983 14.5374Z" fill="white"/>
<path d="M12.3049 16.7552C11.8386 17.3421 11.2492 17.7801 10.5884 18.0058L11.9466 24.2525L13.8019 23.6398L12.3049 16.7552Z" fill="white"/>
<path d="M10.5191 18.0287C10.2124 18.1258 9.89105 18.1774 9.55985 18.1774C9.20502 18.1774 8.86142 18.1181 8.53522 18.0072L7.17572 24.2595L9.031 24.8721L10.5191 18.0287Z" fill="white"/>
<path d="M8.46962 17.9841C7.81883 17.7472 7.23998 17.3036 6.78317 16.715L3.04123 21.3261L4.39941 22.9998L8.46962 17.9841Z" fill="white"/>
<path d="M6.75233 16.6742C6.30334 16.0819 5.9763 15.3473 5.82063 14.5314L0.651314 16.2383L1.14844 18.5245L6.75233 16.6742Z" fill="white"/>
</g>
<path d="M30.1172 6.99219V15.2309L25.8315 6.99219H24.1172V18.3672H25.8315V10.1934L30.1172 18.3672H31.8315V6.99219H30.1172Z" fill="#ECECED"/>
<path d="M32.6039 9.12094H34.371V6.99219H32.6039V9.12094ZM32.6303 18.3672V10.2422H34.3446V18.3672H32.6303Z" fill="#ECECED"/>
<path d="M41.7204 14.3047C41.7204 11.4934 40.0985 10.1609 38.3842 10.1447C36.6567 10.1284 35.0611 11.4934 35.0611 14.3047C35.0611 17.1159 36.6567 18.4809 38.3842 18.4647C39.9534 18.4484 41.0347 17.5547 41.5358 16.0759L40.204 15.3934C39.7952 16.4009 39.149 16.7584 38.3842 16.7747C37.7248 16.7909 36.9732 16.4009 36.815 14.9547H41.6809C41.7073 14.7434 41.7204 14.5322 41.7204 14.3047ZM38.3842 11.8184C39.0435 11.8347 39.7161 12.2734 39.927 13.4434H36.8413C37.0655 12.2572 37.738 11.8022 38.3842 11.8184Z" fill="#ECECED"/>
<path d="M45.6823 11.7534V10.1447H44.6009V7.96719L42.8867 8.61719V10.1447H41.8053V11.7534H42.8867V15.9622C42.8867 17.5547 42.9922 18.3672 44.9965 18.3672H45.4581V16.5147H44.9965C44.6801 16.5147 44.6009 16.4497 44.6009 15.9622V11.7534H45.6823Z" fill="#ECECED"/>
<path d="M48.2296 16.5959L51.8691 12.0134V10.2422H46.4098V12.0134H49.9439L46.3043 16.5959V18.3672H51.9087V16.5959H48.2296Z" fill="#ECECED"/>
<path d="M52.5233 16.0759L54.2508 15.7509C54.3695 16.5634 55.1475 16.8722 55.6222 16.8722C56.1101 16.8722 56.9541 16.7422 56.9541 15.7672C56.9541 13.8659 52.7211 16.2384 52.7211 12.5984C52.7211 10.2584 54.9233 10.1284 55.6222 10.1284C56.2816 10.1284 58.1937 10.2584 58.5893 12.1434L56.9541 12.5659C56.809 11.7047 56.0706 11.5422 55.675 11.5422C55.2794 11.5422 54.4354 11.6559 54.4354 12.5984C54.4354 14.4834 58.6684 12.0784 58.6684 15.7672C58.6684 18.2534 56.3475 18.4647 55.6222 18.4647C54.9629 18.4647 52.8662 18.2534 52.5233 16.0759Z" fill="#ECECED"/>
<path d="M60.8954 14.3047C60.8954 16.2872 61.7526 16.8884 62.6493 16.8722C63.4537 16.8559 64.0075 16.4497 64.3372 15.3122L65.7482 16.1572C65.2339 17.8147 63.9811 18.4484 62.6493 18.4647C60.9218 18.4809 59.1811 17.1159 59.1811 14.3047C59.1811 11.4934 60.9218 10.1284 62.6493 10.1447C63.9811 10.1609 65.2339 10.7947 65.7482 12.4522L64.3372 13.2972C64.0075 12.1597 63.4537 11.7534 62.6493 11.7372C61.7526 11.7209 60.8954 12.3222 60.8954 14.3047Z" fill="#ECECED"/>
<path d="M70.3503 10.1122C69.4667 10.1122 68.6623 10.6809 68.1481 11.8997V6.99219H66.4338V18.3672H68.1481V15.4909C68.1481 11.7697 69.4008 11.4609 69.8623 11.4609C70.6008 11.4609 70.7063 12.4034 70.7063 13.7847V18.3672H72.4206V13.7847C72.4206 12.0622 72.1964 10.1122 70.3503 10.1122Z" fill="#ECECED"/>
<path d="M79.6583 14.3047C79.6583 11.4934 78.0363 10.1609 76.322 10.1447C74.5946 10.1284 72.999 11.4934 72.999 14.3047C72.999 17.1159 74.5946 18.4809 76.322 18.4647C77.8913 18.4484 78.9726 17.5547 79.4737 16.0759L78.1418 15.3934C77.733 16.4009 77.0869 16.7584 76.322 16.7747C75.6627 16.7909 74.911 16.4009 74.7528 14.9547H79.6187C79.6451 14.7434 79.6583 14.5322 79.6583 14.3047ZM76.322 11.8184C76.9814 11.8347 77.6539 12.2734 77.8649 13.4434H74.7792C75.0033 12.2572 75.6759 11.8022 76.322 11.8184Z" fill="#ECECED"/>
</g>
<defs>
<clipPath id="clip0_987_8155">
<rect width="19.3407" height="23.8333" fill="white" transform="translate(0 1.08301)"/>
</clipPath>
</defs>
</svg>
