<svg width="80" height="26" viewBox="0 0 80 26" fill="none" xmlns="http://www.w3.org/2000/svg">
<g opacity="0.84">
<path fill-rule="evenodd" clip-rule="evenodd" d="M0 12.9997C5.53806 12.9997 8.71287 8.65746 8.71287 1.08301C8.71287 8.65746 11.8877 12.9997 17.4257 12.9997C11.8877 12.9997 8.71287 17.3419 8.71287 24.9163C8.71287 17.3419 5.53806 12.9997 0 12.9997Z" fill="white"/>
<path d="M20.8672 18.3679L23.9088 6.99285H25.6197L28.6612 18.3679H27.0454L26.3801 15.7354H23.1365L22.4593 18.3679H20.8672ZM23.5523 14.1104H25.9642L24.7523 9.3816L23.5523 14.1104Z" fill="#ECECED"/>
<path d="M31.7116 18.5629C31.1096 18.5629 30.5789 18.3841 30.1195 18.0266C29.6601 17.6691 29.2957 17.1708 29.0264 16.5316C28.765 15.8924 28.6343 15.1612 28.6343 14.3379C28.6343 13.5145 28.765 12.7833 29.0264 12.1441C29.2957 11.5049 29.6601 11.0066 30.1195 10.6491C30.5789 10.2916 31.1096 10.1129 31.7116 10.1129C32.464 10.1129 33.0977 10.3837 33.6125 10.9254C34.1274 11.4562 34.4561 12.1929 34.5987 13.1354H32.9947C32.9155 12.7454 32.7571 12.442 32.5195 12.2254C32.2898 11.9979 32.0165 11.8841 31.6997 11.8841C31.2799 11.8841 30.9234 12.1008 30.6304 12.5341C30.3373 12.9674 30.1908 13.5687 30.1908 14.3379C30.1908 15.107 30.3373 15.7083 30.6304 16.1416C30.9234 16.5749 31.2799 16.7916 31.6997 16.7916C32.0165 16.7916 32.2898 16.6833 32.5195 16.4666C32.7571 16.2499 32.9155 15.9412 32.9947 15.5404H34.5987C34.4561 16.4504 34.1274 17.1816 33.6125 17.7341C33.0977 18.2866 32.464 18.5629 31.7116 18.5629Z" fill="#ECECED"/>
<path d="M35.3544 18.3679V10.3079H36.697L36.8277 11.3966C37.0178 11.0066 37.2673 10.6979 37.5762 10.4704C37.8931 10.232 38.2574 10.1129 38.6693 10.1129C39.5802 10.1129 40.2257 10.5949 40.6059 11.5591C40.8198 11.1149 41.1049 10.7629 41.4614 10.5029C41.8257 10.2429 42.2218 10.1129 42.6495 10.1129C43.4178 10.1129 44.0079 10.427 44.4198 11.0554C44.8317 11.6837 45.0376 12.6045 45.0376 13.8179V18.3679H43.5168V14.0129C43.5168 13.3195 43.4178 12.7887 43.2198 12.4204C43.0297 12.052 42.7327 11.8679 42.3287 11.8679C41.9168 11.8679 41.5841 12.0737 41.3307 12.4854C41.0851 12.897 40.9624 13.4712 40.9624 14.2079V18.3679H39.4416V14.0129C39.4416 13.3195 39.3426 12.7887 39.1445 12.4204C38.9465 12.052 38.6416 11.8679 38.2297 11.8679C37.8257 11.8679 37.497 12.0737 37.2435 12.4854C36.998 12.897 36.8752 13.4712 36.8752 14.2079V18.3679H35.3544Z" fill="#ECECED"/>
<path d="M48.7508 18.5629C48.1567 18.5629 47.63 18.3895 47.1706 18.0429C46.7112 17.6962 46.3508 17.2087 46.0894 16.5804C45.828 15.952 45.6973 15.2262 45.6973 14.4029C45.6973 13.5687 45.824 12.8266 46.0775 12.1766C46.3389 11.5266 46.6953 11.0229 47.1468 10.6654C47.6062 10.297 48.1448 10.1129 48.7626 10.1129C49.3409 10.1129 49.8517 10.2862 50.2953 10.6329C50.7389 10.9795 51.0834 11.4562 51.329 12.0629C51.5824 12.6587 51.7092 13.3249 51.7092 14.0616C51.7092 14.1808 51.7052 14.3054 51.6973 14.4354C51.6973 14.5654 51.6933 14.7008 51.6854 14.8416H47.2062C47.2379 15.4699 47.3963 15.9629 47.6815 16.3204C47.9745 16.6779 48.327 16.8566 48.7389 16.8566C49.0478 16.8566 49.3052 16.7645 49.5112 16.5804C49.725 16.3854 49.8834 16.1362 49.9864 15.8329H51.531C51.4201 16.342 51.2339 16.8079 50.9725 17.2304C50.7191 17.642 50.4022 17.967 50.022 18.2054C49.6498 18.4437 49.226 18.5629 48.7508 18.5629ZM48.7626 11.8029C48.3904 11.8029 48.0616 11.9491 47.7765 12.2416C47.4914 12.5233 47.3092 12.9566 47.23 13.5416H50.1646C50.1409 13.0108 49.9983 12.5883 49.7369 12.2741C49.4755 11.9599 49.1508 11.8029 48.7626 11.8029Z" fill="#ECECED"/>
<path d="M58.4332 18.5629C57.5936 18.5629 56.8728 18.3191 56.2708 17.8316C55.6688 17.3333 55.2055 16.6454 54.8807 15.7679C54.556 14.8795 54.3936 13.8558 54.3936 12.6966C54.3936 11.5374 54.556 10.5137 54.8807 9.62535C55.2055 8.73702 55.6688 8.04368 56.2708 7.54535C56.8728 7.04702 57.5936 6.79785 58.4332 6.79785C59.4312 6.79785 60.247 7.1391 60.8807 7.8216C61.5223 8.49327 61.9223 9.44118 62.0807 10.6654H60.4055C60.3025 10.0479 60.0807 9.56577 59.7401 9.2191C59.4074 8.8616 58.9639 8.68285 58.4094 8.68285C57.6411 8.68285 57.0391 9.04035 56.6035 9.75535C56.1678 10.4704 55.95 11.4508 55.95 12.6966C55.95 13.9424 56.1678 14.9229 56.6035 15.6379C57.0391 16.342 57.6411 16.6941 58.4094 16.6941C58.9639 16.6941 59.4074 16.5316 59.7401 16.2066C60.0807 15.8708 60.3025 15.4104 60.4055 14.8254H62.0807C61.9223 15.9954 61.5223 16.9108 60.8807 17.5716C60.247 18.2324 59.4312 18.5629 58.4332 18.5629Z" fill="#ECECED"/>
<path d="M65.6249 18.5629C65.0546 18.5629 64.5398 18.3841 64.0804 18.0266C63.6289 17.6691 63.2685 17.1762 62.9992 16.5479C62.7378 15.9087 62.6071 15.172 62.6071 14.3379C62.6071 13.5037 62.7418 12.7724 63.0111 12.1441C63.2804 11.5049 63.6408 11.0066 64.0923 10.6491C64.5517 10.2916 65.0665 10.1129 65.6368 10.1129C66.1992 10.1129 66.7061 10.2916 67.1576 10.6491C67.617 11.0066 67.9774 11.5049 68.2388 12.1441C68.5081 12.7724 68.6427 13.5037 68.6427 14.3379C68.6427 15.172 68.5081 15.9087 68.2388 16.5479C67.9774 17.1762 67.617 17.6691 67.1576 18.0266C66.6982 18.3841 66.1873 18.5629 65.6249 18.5629ZM65.6249 16.7591C66.021 16.7591 66.3655 16.5587 66.6586 16.1579C66.9517 15.7462 67.0982 15.1395 67.0982 14.3379C67.0982 13.5362 66.9517 12.9349 66.6586 12.5341C66.3655 12.1224 66.0249 11.9166 65.6368 11.9166C65.2328 11.9166 64.8843 12.1224 64.5913 12.5341C64.3061 12.9349 64.1635 13.5362 64.1635 14.3379C64.1635 15.1395 64.3061 15.7462 64.5913 16.1579C64.8843 16.5587 65.2289 16.7591 65.6249 16.7591Z" fill="#ECECED"/>
<path d="M69.4084 18.3679V10.3079H70.7629L70.9055 11.8191C71.1193 11.2991 71.4084 10.8874 71.7728 10.5841C72.1451 10.2699 72.5807 10.1129 73.0797 10.1129V12.3066H72.652C72.3193 12.3066 72.0223 12.377 71.7609 12.5179C71.4995 12.6587 71.2936 12.9024 71.1431 13.2491C71.0005 13.5958 70.9292 14.0779 70.9292 14.6954V18.3679H69.4084Z" fill="#ECECED"/>
<path d="M73.5251 21.9429V10.3079H74.8795L75.0459 11.4616C75.236 11.1041 75.4855 10.7899 75.7944 10.5191C76.1112 10.2483 76.5191 10.1129 77.0181 10.1129C77.5726 10.1129 78.0677 10.297 78.5033 10.6654C78.9389 11.0337 79.2835 11.5374 79.537 12.1766C79.7904 12.8158 79.9172 13.5416 79.9172 14.3541C79.9172 15.1666 79.7904 15.8924 79.537 16.5316C79.2835 17.1599 78.9389 17.6583 78.5033 18.0266C78.0677 18.3841 77.5726 18.5629 77.0181 18.5629C76.5746 18.5629 76.1865 18.4491 75.8538 18.2216C75.5211 17.9941 75.2518 17.6745 75.0459 17.2629V21.9429H73.5251ZM76.6974 16.7429C77.1805 16.7429 77.5805 16.5208 77.8974 16.0766C78.2142 15.6324 78.3726 15.0583 78.3726 14.3541C78.3726 13.6499 78.2142 13.0704 77.8974 12.6154C77.5805 12.1604 77.1805 11.9329 76.6974 11.9329C76.2063 11.9329 75.8023 12.1604 75.4855 12.6154C75.1766 13.0595 75.0221 13.6337 75.0221 14.3379C75.0221 15.042 75.1766 15.6216 75.4855 16.0766C75.8023 16.5208 76.2063 16.7429 76.6974 16.7429Z" fill="#ECECED"/>
</g>
</svg>
