<svg width="80" height="26" viewBox="0 0 80 26" fill="none" xmlns="http://www.w3.org/2000/svg">
<g opacity="0.84">
<path opacity="0.8" d="M17.3282 2.52344C18.9071 5.66751 19.7974 9.22778 19.7974 12.9993C19.7974 16.7708 18.907 20.3311 17.3281 23.4752C20.9832 21.4564 23.4641 17.5221 23.4641 12.9993C23.4641 8.47647 20.9832 4.54216 17.3282 2.52344Z" fill="white"/>
<path d="M12.0546 2.27375C11.5239 1.51019 10.6198 1.09897 9.71312 1.25878C4.19566 2.23124 0 7.11772 0 12.9995C0 18.8812 4.19564 23.7677 9.71307 24.7402C10.6198 24.9 11.5239 24.4887 12.0546 23.7252C14.162 20.6931 15.4 16.9931 15.4 12.9994C15.4 9.00581 14.162 5.30584 12.0546 2.27375Z" fill="white"/>
<path d="M34.4411 18.549C36.5019 18.549 38.1147 17.8058 39.0704 16.5622V12.6643H35.1131L35.0384 14.636L36.6213 14.5602V15.8038C36.0389 16.274 35.3221 16.5015 34.6352 16.5015C32.9179 16.5015 31.8277 15.182 31.8277 13.0738C31.8277 10.9657 32.8432 9.64616 34.4709 9.64616C35.5461 9.64616 36.2928 10.2983 36.3973 11.3448H39.0704C38.8912 9.03949 37.1141 7.59866 34.4709 7.59866C31.2901 7.59866 29.2891 9.70682 29.2891 13.0738C29.2891 16.4408 31.2752 18.549 34.4411 18.549Z" fill="#ECECED"/>
<path d="M45.6161 18.367H47.871V12.8615C47.871 10.8747 46.4225 9.75232 44.1526 9.75232C41.823 9.75232 40.3297 10.8443 40.1804 12.6188H42.4502C42.5249 11.8757 43.1222 11.4207 44.0481 11.4207C44.9889 11.4207 45.5414 11.906 45.5414 12.7098V13.2862H44.0182C41.7782 13.2862 40.4193 14.272 40.4193 16.0162C40.4193 17.5025 41.4796 18.549 43.0924 18.549C44.1228 18.549 45.0038 18.2608 45.5713 17.5328L45.6161 18.367ZM42.7041 15.8645C42.7041 15.2123 43.1969 14.9393 43.9734 14.9393L45.5414 14.9242V15.5763C45.0934 16.274 44.4812 16.6835 43.6748 16.6835C43.0177 16.6835 42.7041 16.3195 42.7041 15.8645Z" fill="#ECECED"/>
<path d="M49.5839 18.367H51.9135V7.14366H49.5839V18.367Z" fill="#ECECED"/>
<path d="M53.6961 18.367H56.0257V9.93432H53.6961V18.367ZM53.6065 8.81199H56.0854V6.59766H53.6065V8.81199Z" fill="#ECECED"/>
<path d="M57.8089 18.367H60.1385V7.14366H57.8089V18.367Z" fill="#ECECED"/>
<path d="M65.8485 18.549C68.1781 18.549 69.7611 17.3508 69.9552 15.4247H67.6256C67.4763 16.1375 66.8043 16.6532 65.8485 16.6532C64.624 16.6532 63.952 15.728 63.8773 14.5147H69.9851C70.2091 11.5875 68.656 9.75232 65.968 9.75232C63.2501 9.75232 61.5328 11.451 61.5328 14.1507C61.5328 16.8503 63.1904 18.549 65.8485 18.549ZM64.0565 12.8918C64.3403 12.0273 64.9525 11.5875 65.9531 11.5875C66.8789 11.5875 67.5509 12.1183 67.6107 12.8918H64.0565Z" fill="#ECECED"/>
<path d="M75.2537 18.549C77.9119 18.549 79.5097 16.8958 79.5097 14.1507C79.5097 11.4055 77.9119 9.75232 75.2537 9.75232C72.5956 9.75232 70.9828 11.4055 70.9828 14.1507C70.9828 16.8958 72.5956 18.549 75.2537 18.549ZM73.3124 14.1507C73.3124 12.5885 74.0441 11.6633 75.2537 11.6633C76.4484 11.6633 77.1801 12.5885 77.1801 14.1507C77.1801 15.7128 76.4484 16.638 75.2537 16.638C74.0441 16.638 73.3124 15.7128 73.3124 14.1507Z" fill="#ECECED"/>
</g>
</svg>
