<svg width="80" height="26" viewBox="0 0 80 26" fill="none" xmlns="http://www.w3.org/2000/svg">
<g opacity="0.84">
<path d="M6.75565 10.5349C9.38921 9.04252 11.4503 6.50995 12.6335 3.34423C11.8701 2.39452 10.8777 1.71615 9.80905 1.30913L9.23654 1.08301C9.19837 1.17346 9.1602 1.30914 9.1602 1.39959C8.24418 4.47485 6.37398 6.9622 3.85492 8.36416C2.09922 9.3591 0.801518 11.1681 0.190838 13.3389L0 14.0172C0.076335 14.0625 0.190839 14.1077 0.267174 14.1077C0.992357 14.4242 1.71754 14.8313 2.40456 15.3287C3.35874 13.2936 4.88544 11.5751 6.75565 10.5349Z" fill="white"/>
<path opacity="0.8" d="M17.8262 10.7158C16.414 13.2484 14.4675 15.2835 12.0629 16.6402C10.1164 17.7256 8.62785 19.7607 7.94084 22.2029L7.75 22.9717C8.47518 23.7405 9.35303 24.3284 10.3072 24.6902L10.8797 24.9163C10.9179 24.8259 10.9561 24.6902 10.9561 24.5998C11.8721 21.5245 13.7423 19.0371 16.2614 17.6352C18.0171 16.6402 19.3529 14.8313 19.9254 12.6605L20.1163 11.9821C19.3148 11.7108 18.5514 11.2585 17.8262 10.7158Z" fill="white"/>
<path opacity="0.9" d="M6.22332 20.6201C7.17751 17.9066 8.93321 15.6906 11.1851 14.4243C13.2461 13.2485 14.9637 11.4395 16.1469 9.2235C15.269 8.22857 14.5438 7.09795 14.0095 5.74121C12.5973 8.81648 10.3836 11.3038 7.67368 12.8415C6.10882 13.7007 4.84929 15.1931 4.08594 17.0021C4.92562 17.9518 5.61264 19.1277 6.14698 20.4392C6.14698 20.4392 6.18515 20.5296 6.22332 20.6201Z" fill="white"/>
<path d="M24.6641 18.4167H31.0961V16.3042H26.7349V7.04172H24.6641V18.4167Z" fill="#ECECED"/>
<path d="M37.816 10.2267H35.896V14.7117C35.896 15.7517 35.3062 16.5317 34.4697 16.5317C33.688 16.5317 33.1394 15.8167 33.1394 14.8255V10.2267H31.2331V15.3292C31.2331 17.198 32.248 18.5467 33.7977 18.5467C34.744 18.5467 35.512 18.0592 35.896 17.2792V18.4167H37.816V10.2267Z" fill="#ECECED"/>
<path d="M38.5292 18.4167H40.4492V13.7692C40.4492 12.713 40.9566 12.0142 41.7521 12.0142C42.4926 12.0142 42.9589 12.713 42.9589 13.7692V18.4167H44.8789V13.7692C44.8789 12.713 45.3863 12.0142 46.1818 12.0142C46.9223 12.0142 47.4023 12.713 47.4023 13.7692V18.4167H49.3086V13.0542C49.3086 11.413 48.3349 10.0967 46.8263 10.0967C45.7155 10.0967 44.8515 10.7955 44.5223 11.5917C44.1932 10.6167 43.4938 10.0967 42.4103 10.0967C41.4778 10.0967 40.8195 10.633 40.4492 11.3805V10.2267H38.5292V18.4167Z" fill="#ECECED"/>
<path d="M49.9627 6.66797V9.05672H51.9925V6.66797H49.9627ZM50.0176 18.4167H51.9376V10.2267H50.0176V18.4167Z" fill="#ECECED"/>
<path d="M52.6533 18.4167H54.5733V13.9317C54.5733 12.8755 55.163 12.1117 55.9996 12.1117C56.795 12.1117 57.3299 12.8267 57.3299 13.818V18.4167H59.2499V13.3142C59.2499 11.4292 58.235 10.0967 56.6716 10.0967C55.7253 10.0967 54.9573 10.568 54.5733 11.3642V10.2267H52.6533V18.4167Z" fill="#ECECED"/>
<path d="M63.2546 18.5467C65.3803 18.5467 66.9026 16.7592 66.9026 14.3217C66.9026 11.8842 65.3803 10.0967 63.2546 10.0967C61.1289 10.0967 59.6066 11.8842 59.6066 14.3217C59.6066 16.7592 61.1289 18.5467 63.2546 18.5467ZM63.2546 16.5967C62.226 16.5967 61.5266 15.6705 61.5266 14.3217C61.5266 12.9567 62.226 12.0305 63.2546 12.0305C64.2831 12.0305 64.9826 12.9567 64.9826 14.3217C64.9826 15.6705 64.2831 16.5967 63.2546 16.5967Z" fill="#ECECED"/>
<path d="M73.8561 10.2267H71.9361V14.7117C71.9361 15.7517 71.3464 16.5317 70.5098 16.5317C69.7281 16.5317 69.1796 15.8167 69.1796 14.8255V10.2267H67.2733V15.3292C67.2733 17.198 68.2881 18.5467 69.8378 18.5467C70.7841 18.5467 71.5521 18.0592 71.9361 17.2792V18.4167H73.8561V10.2267Z" fill="#ECECED"/>
<path d="M77.0928 18.5467C78.7111 18.5467 79.7808 17.523 79.7808 15.963C79.7808 12.258 75.9957 14.1592 75.9957 12.4855C75.9957 11.9655 76.366 11.6892 76.9008 11.6892C77.422 11.6892 77.9568 12.063 78.0391 12.7617H79.6985C79.63 11.153 78.5054 10.0967 76.846 10.0967C75.4334 10.0967 74.3774 11.1205 74.3774 12.5667C74.3774 16.0117 78.094 14.3705 78.094 16.0442C78.094 16.4992 77.6825 16.8405 77.0928 16.8405C76.3797 16.8405 75.8997 16.3855 75.8311 15.6542H74.1854C74.254 17.4255 75.406 18.5467 77.0928 18.5467Z" fill="#ECECED"/>
</g>
</svg>
