<svg width="80" height="26" viewBox="0 0 80 26" fill="none" xmlns="http://www.w3.org/2000/svg">
<g opacity="0.84">
<path d="M9.13675 2.16602C7.59601 2.16602 6.35156 3.73916 6.35156 5.68685C6.35156 7.61957 7.59601 9.19269 9.12489 9.20768C8.74563 9.19269 8.44934 8.80317 8.44934 8.32372C8.44934 7.84429 8.75749 7.43978 9.14861 7.43978C10.8079 7.43978 14.4938 7.43978 16.1175 7.43978C17.2671 7.43978 18.2034 6.25618 18.2034 4.80291C18.2034 3.34961 17.2671 2.16602 16.1175 2.16602L9.13675 2.16602Z" fill="white"/>
<path opacity="0.9" d="M5.74612 9.20801C4.20538 9.20801 2.96094 10.7812 2.96094 12.7288C2.96094 14.6616 4.20538 16.2347 5.73426 16.2497C5.35501 16.2347 5.05872 15.8452 5.05872 15.3657C5.05872 14.8863 5.36687 14.4818 5.75799 14.4818C7.41723 14.4818 11.1032 14.4818 12.7269 14.4818C13.8765 14.4818 14.8128 13.2982 14.8128 11.8449C14.8128 10.3916 13.8765 9.20801 12.7269 9.20801L5.74612 9.20801Z" fill="white"/>
<path opacity="0.8" d="M3.406 16.25C1.75521 16.25 0.421875 17.9442 0.421875 20.0417C0.421875 22.1231 1.75521 23.8172 3.39329 23.8333C2.98695 23.8172 2.66949 23.3977 2.66949 22.8814C2.66949 22.3651 2.99966 21.9294 3.41871 21.9294C5.19647 21.9294 9.14569 21.9294 10.8854 21.9294C12.1171 21.9294 13.1203 20.6548 13.1203 19.0897C13.1203 17.5246 12.1171 16.25 10.8854 16.25L3.406 16.25Z" fill="white"/>
<path d="M22.4219 18.3672V6.99215H28.1362V8.94215H24.0981V11.6559H27.7806V13.6059H24.0981V16.4171H28.2124V18.3672H22.4219Z" fill="#ECECED"/>
<path d="M28.869 21.6172V10.3071H30.4436V11.2821H30.6722C30.8161 10.968 31.0404 10.6917 31.3452 10.4534C31.65 10.2042 32.0859 10.0796 32.6531 10.0796C33.1611 10.0796 33.6309 10.2421 34.0626 10.5671C34.4944 10.8813 34.8415 11.3471 35.1039 11.9646C35.3664 12.5821 35.4976 13.3296 35.4976 14.2071V14.4671C35.4976 15.3446 35.3664 16.0921 35.1039 16.7097C34.8415 17.3272 34.4944 17.7984 34.0626 18.1234C33.6309 18.4376 33.1611 18.5947 32.6531 18.5947C32.2722 18.5947 31.9505 18.5351 31.688 18.4159C31.4341 18.3076 31.2267 18.1667 31.0658 17.9934C30.9134 17.8092 30.7907 17.6251 30.6976 17.4409H30.469V21.6172H28.869ZM32.1706 16.8071C32.6701 16.8071 33.0806 16.6067 33.4023 16.2059C33.7325 15.7942 33.8976 15.1984 33.8976 14.4184V14.2559C33.8976 13.4759 33.7325 12.8855 33.4023 12.4846C33.0722 12.073 32.6616 11.8671 32.1706 11.8671C31.6796 11.8671 31.269 12.073 30.9388 12.4846C30.6087 12.8855 30.4436 13.4759 30.4436 14.2559V14.4184C30.4436 15.1984 30.6087 15.7942 30.9388 16.2059C31.269 16.6067 31.6796 16.8071 32.1706 16.8071Z" fill="#ECECED"/>
<path d="M36.3318 18.3672V10.3071H37.9318V18.3672H36.3318ZM37.1318 9.36465C36.844 9.36465 36.5985 9.24548 36.3953 9.00715C36.2006 8.76882 36.1032 8.45465 36.1032 8.06465C36.1032 7.67465 36.2006 7.36048 36.3953 7.12215C36.5985 6.88382 36.844 6.76465 37.1318 6.76465C37.4281 6.76465 37.6736 6.88382 37.8683 7.12215C38.063 7.36048 38.1604 7.67465 38.1604 8.06465C38.1604 8.45465 38.063 8.76882 37.8683 9.00715C37.6736 9.24548 37.4281 9.36465 37.1318 9.36465Z" fill="#ECECED"/>
<path d="M42.0286 18.5947C41.4191 18.5947 40.8646 18.4321 40.3651 18.1072C39.8741 17.7822 39.4847 17.3109 39.1969 16.6934C38.909 16.0759 38.7651 15.3284 38.7651 14.4509V14.2234C38.7651 13.3459 38.909 12.5984 39.1969 11.9809C39.4847 11.3634 39.8741 10.8921 40.3651 10.5671C40.8646 10.2421 41.4191 10.0796 42.0286 10.0796C42.6297 10.0796 43.1461 10.2151 43.5778 10.4859C44.0096 10.7567 44.3567 11.1305 44.6191 11.6071C44.89 12.073 45.0678 12.6038 45.1524 13.1996L43.6032 13.6221C43.5694 13.2971 43.4932 13.0046 43.3747 12.7446C43.2561 12.4846 43.0868 12.2788 42.8667 12.1271C42.6551 11.9755 42.3884 11.8996 42.0667 11.8996C41.745 11.8996 41.453 11.9917 41.1905 12.1759C40.9366 12.3492 40.7334 12.6146 40.581 12.9721C40.4371 13.3188 40.3651 13.7467 40.3651 14.2559V14.4184C40.3651 14.9276 40.4371 15.3609 40.581 15.7184C40.7334 16.0651 40.9366 16.3305 41.1905 16.5146C41.453 16.688 41.745 16.7746 42.0667 16.7746C42.5493 16.7746 42.9133 16.6176 43.1588 16.3034C43.4128 15.9784 43.5736 15.5559 43.6413 15.0359L45.1905 15.5071C45.0805 16.0813 44.89 16.6067 44.6191 17.0834C44.3567 17.5492 44.0096 17.9176 43.5778 18.1884C43.1461 18.4592 42.6297 18.5947 42.0286 18.5947Z" fill="#ECECED"/>
<path d="M48.2754 18.4971C47.7844 18.4971 47.3527 18.3563 46.9802 18.0746C46.6162 17.7821 46.3326 17.3813 46.1294 16.8721C45.9262 16.363 45.8247 15.778 45.8247 15.1171V10.3071H47.4247V14.9546C47.4247 15.5613 47.5389 16.0163 47.7675 16.3196C48.0045 16.623 48.3389 16.7746 48.7707 16.7746C49.2617 16.7746 49.6426 16.5688 49.9135 16.1572C50.1844 15.7346 50.3199 15.1496 50.3199 14.4022V10.3071H51.9199V18.3672H50.3453V17.3109H50.1167C50.0151 17.5817 49.8247 17.8471 49.5453 18.1072C49.2659 18.3672 48.8426 18.4971 48.2754 18.4971Z" fill="#ECECED"/>
<path d="M53.0654 18.3672V10.3071H54.64V11.2171H54.8686C54.9617 10.8921 55.1141 10.6538 55.3257 10.5021C55.5459 10.3505 55.7998 10.2746 56.0877 10.2746H56.8496V12.0946H56.0623C55.6559 12.0946 55.3215 12.2355 55.0591 12.5171C54.7966 12.788 54.6654 13.2105 54.6654 13.7846V18.3672H53.0654Z" fill="#ECECED"/>
<path d="M57.4652 18.3672V10.3071H59.0652V18.3672H57.4652ZM58.2652 9.36465C57.9774 9.36465 57.7319 9.24548 57.5287 9.00715C57.334 8.76882 57.2367 8.45465 57.2367 8.06465C57.2367 7.67465 57.334 7.36048 57.5287 7.12215C57.7319 6.88382 57.9774 6.76465 58.2652 6.76465C58.5615 6.76465 58.807 6.88382 59.0017 7.12215C59.1964 7.36048 59.2938 7.67465 59.2938 8.06465C59.2938 8.45465 59.1964 8.76882 59.0017 9.00715C58.807 9.24548 58.5615 9.36465 58.2652 9.36465Z" fill="#ECECED"/>
<path d="M63.2001 18.5947C62.5737 18.5947 62.0107 18.4321 61.5113 18.1072C61.0118 17.7822 60.6181 17.3109 60.3303 16.6934C60.0425 16.0759 59.8986 15.3338 59.8986 14.4671V14.2071C59.8986 13.3405 60.0425 12.5984 60.3303 11.9809C60.6181 11.3634 61.0118 10.8921 61.5113 10.5671C62.0107 10.2421 62.5737 10.0796 63.2001 10.0796C63.8266 10.0796 64.3896 10.2421 64.889 10.5671C65.3885 10.8921 65.7822 11.3634 66.07 11.9809C66.3578 12.5984 66.5017 13.3405 66.5017 14.2071V14.4671C66.5017 15.3338 66.3578 16.0759 66.07 16.6934C65.7822 17.3109 65.3885 17.7822 64.889 18.1072C64.3896 18.4321 63.8266 18.5947 63.2001 18.5947ZM63.2001 16.7746C63.6912 16.7746 64.0975 16.5742 64.4192 16.1734C64.7409 15.7617 64.9017 15.1767 64.9017 14.4184V14.2559C64.9017 13.4976 64.7409 12.918 64.4192 12.5171C64.106 12.1055 63.6996 11.8996 63.2001 11.8996C62.7091 11.8996 62.3028 12.1055 61.9811 12.5171C61.6594 12.918 61.4986 13.4976 61.4986 14.2559V14.4184C61.4986 15.1767 61.6594 15.7617 61.9811 16.1734C62.3028 16.5742 62.7091 16.7746 63.2001 16.7746Z" fill="#ECECED"/>
<path d="M69.7437 18.4971C69.2527 18.4971 68.8209 18.3563 68.4485 18.0746C68.0844 17.7821 67.8008 17.3813 67.5977 16.8721C67.3945 16.363 67.2929 15.778 67.2929 15.1171V10.3071H68.8929V14.9546C68.8929 15.5613 69.0072 16.0163 69.2358 16.3196C69.4728 16.623 69.8072 16.7746 70.2389 16.7746C70.7299 16.7746 71.1109 16.5688 71.3818 16.1572C71.6527 15.7346 71.7881 15.1496 71.7881 14.4022V10.3071H73.3881V18.3672H71.8135V17.3109H71.585C71.4834 17.5817 71.2929 17.8471 71.0135 18.1072C70.7342 18.3672 70.3109 18.4971 69.7437 18.4971Z" fill="#ECECED"/>
<path d="M77.1496 18.5947C76.3284 18.5947 75.6554 18.3672 75.1305 17.9121C74.6056 17.4571 74.2882 16.8071 74.1781 15.9621L75.6511 15.4746C75.7104 15.8538 75.8078 16.1517 75.9432 16.3684C76.0871 16.5851 76.2607 16.7422 76.4638 16.8397C76.6755 16.9263 76.9041 16.9697 77.1496 16.9697C77.522 16.9697 77.7972 16.8884 77.975 16.7259C78.1527 16.5526 78.2416 16.3413 78.2416 16.0921C78.2416 15.843 78.157 15.6534 77.9877 15.5234C77.8183 15.3826 77.5474 15.2688 77.175 15.1821L76.8194 15.1009C76.3792 14.9926 75.9771 14.8463 75.613 14.6621C75.249 14.4671 74.957 14.2017 74.7369 13.8659C74.5168 13.5301 74.4067 13.0967 74.4067 12.5659C74.4067 11.7642 74.6353 11.1521 75.0924 10.7296C75.5496 10.2963 76.1506 10.0796 76.8956 10.0796C77.5982 10.0796 78.1824 10.2801 78.648 10.6809C79.1136 11.0817 79.4183 11.6071 79.5623 12.2571L78.0765 12.8421C78.0088 12.4305 77.8691 12.138 77.6575 11.9646C77.4543 11.7913 77.2004 11.7046 76.8956 11.7046C76.5908 11.7046 76.358 11.7751 76.1972 11.9159C76.0363 12.0459 75.9559 12.2301 75.9559 12.4684C75.9559 12.7284 76.0406 12.9234 76.2099 13.0534C76.3792 13.1726 76.6078 13.2646 76.8956 13.3296L77.2511 13.4109C77.7252 13.5192 78.1527 13.6655 78.5337 13.8496C78.9231 14.023 79.2279 14.2776 79.448 14.6134C79.6765 14.9384 79.7908 15.3826 79.7908 15.9459C79.7908 16.7909 79.5496 17.4463 79.067 17.9121C78.5929 18.3672 77.9538 18.5947 77.1496 18.5947Z" fill="#ECECED"/>
</g>
</svg>
