<svg width="420" height="260" viewBox="0 0 420 260" fill="none" xmlns="http://www.w3.org/2000/svg">
<g clip-path="url(#clip0_947_10421)">
<path d="M22.1055 0H0V22.1053H22.1055V0Z" stroke="#ECECED" stroke-width="0.630746"/>
<path d="M44.2071 0H22.1016V22.1053H44.2071V0Z" stroke="#ECECED" stroke-width="0.630746"/>
<path d="M66.3242 0H44.2188V22.1053H66.3242V0Z" stroke="#ECECED" stroke-width="0.630746"/>
<path d="M88.4258 0H66.3203V22.1053H88.4258V0Z" stroke="#ECECED" stroke-width="0.630746"/>
<path d="M110.527 0H88.4219V22.1053H110.527V0Z" stroke="#ECECED" stroke-width="0.630746"/>
<path d="M132.637 0H110.531V22.1053H132.637V0Z" stroke="#ECECED" stroke-width="0.630746"/>
<path d="M154.746 0H132.641V22.1053H154.746V0Z" stroke="#ECECED" stroke-width="0.630746"/>
<path d="M176.84 0H154.734V22.1053H176.84V0Z" stroke="#ECECED" stroke-width="0.630746"/>
<path d="M198.949 0H176.844V22.1053H198.949V0Z" stroke="#ECECED" stroke-width="0.630746"/>
<path d="M221.059 0H198.953V22.1053H221.059V0Z" stroke="#ECECED" stroke-width="0.630746"/>
<path d="M243.16 0H221.055V22.1053H243.16V0Z" stroke="#ECECED" stroke-width="0.630746"/>
<path d="M265.27 0H243.164V22.1053H265.27V0Z" stroke="#ECECED" stroke-width="0.630746"/>
<path d="M287.379 0H265.273V22.1053H287.379V0Z" stroke="#ECECED" stroke-width="0.630746"/>
<path d="M309.488 0H287.383V22.1053H309.488V0Z" stroke="#ECECED" stroke-width="0.630746"/>
<path d="M331.574 0H309.469V22.1053H331.574V0Z" stroke="#ECECED" stroke-width="0.630746"/>
<path d="M353.691 0H331.586V22.1053H353.691V0Z" stroke="#ECECED" stroke-width="0.630746"/>
<path d="M375.793 0H353.688V22.1053H375.793V0Z" stroke="#ECECED" stroke-width="0.630746"/>
<path d="M397.895 0H375.789V22.1053H397.895V0Z" stroke="#ECECED" stroke-width="0.630746"/>
<path d="M419.996 0H397.891V22.1053H419.996V0Z" stroke="#ECECED" stroke-width="0.630746"/>
<path d="M22.1055 22.1045H0V44.2098H22.1055V22.1045Z" stroke="#ECECED" stroke-width="0.630746"/>
<path d="M44.2071 22.1045H22.1016V44.2098H44.2071V22.1045Z" stroke="#ECECED" stroke-width="0.630746"/>
<path d="M66.3242 22.1045H44.2188V44.2098H66.3242V22.1045Z" stroke="#ECECED" stroke-width="0.630746"/>
<path d="M88.4258 22.1045H66.3203V44.2098H88.4258V22.1045Z" stroke="#ECECED" stroke-width="0.630746"/>
<path d="M110.527 22.1045H88.4219V44.2098H110.527V22.1045Z" stroke="#ECECED" stroke-width="0.630746"/>
<path d="M132.637 22.1045H110.531V44.2098H132.637V22.1045Z" stroke="#ECECED" stroke-width="0.630746"/>
<path d="M154.746 22.1045H132.641V44.2098H154.746V22.1045Z" stroke="#ECECED" stroke-width="0.630746"/>
<path d="M176.84 22.1045H154.734V44.2098H176.84V22.1045Z" stroke="#ECECED" stroke-width="0.630746"/>
<path d="M198.949 22.1045H176.844V44.2098H198.949V22.1045Z" stroke="#ECECED" stroke-width="0.630746"/>
<path d="M221.059 22.1045H198.953V44.2098H221.059V22.1045Z" stroke="#ECECED" stroke-width="0.630746"/>
<path d="M243.16 22.1045H221.055V44.2098H243.16V22.1045Z" stroke="#ECECED" stroke-width="0.630746"/>
<path d="M265.27 22.1045H243.164V44.2098H265.27V22.1045Z" stroke="#ECECED" stroke-width="0.630746"/>
<path d="M287.379 22.1045H265.273V44.2098H287.379V22.1045Z" stroke="#ECECED" stroke-width="0.630746"/>
<path d="M309.488 22.1045H287.383V44.2098H309.488V22.1045Z" stroke="#ECECED" stroke-width="0.630746"/>
<path d="M331.574 22.1045H309.469V44.2098H331.574V22.1045Z" stroke="#ECECED" stroke-width="0.630746"/>
<path d="M353.691 22.1045H331.586V44.2098H353.691V22.1045Z" stroke="#ECECED" stroke-width="0.630746"/>
<path d="M375.793 22.1045H353.688V44.2098H375.793V22.1045Z" stroke="#ECECED" stroke-width="0.630746"/>
<path d="M397.895 22.1045H375.789V44.2098H397.895V22.1045Z" stroke="#ECECED" stroke-width="0.630746"/>
<path d="M419.996 22.1045H397.891V44.2098H419.996V22.1045Z" stroke="#ECECED" stroke-width="0.630746"/>
<path d="M22.1055 44.2109H0V66.3162H22.1055V44.2109Z" stroke="#ECECED" stroke-width="0.630746"/>
<path d="M44.2071 44.2109H22.1016V66.3162H44.2071V44.2109Z" stroke="#ECECED" stroke-width="0.630746"/>
<path d="M66.3242 44.2109H44.2188V66.3162H66.3242V44.2109Z" stroke="#ECECED" stroke-width="0.630746"/>
<path d="M88.4258 44.2109H66.3203V66.3162H88.4258V44.2109Z" stroke="#ECECED" stroke-width="0.630746"/>
<path d="M110.527 44.2109H88.4219V66.3162H110.527V44.2109Z" stroke="#ECECED" stroke-width="0.630746"/>
<path d="M132.637 44.2109H110.531V66.3162H132.637V44.2109Z" stroke="#ECECED" stroke-width="0.630746"/>
<path d="M154.746 44.2109H132.641V66.3162H154.746V44.2109Z" stroke="#ECECED" stroke-width="0.630746"/>
<path d="M176.84 44.2109H154.734V66.3162H176.84V44.2109Z" stroke="#ECECED" stroke-width="0.630746"/>
<path d="M198.949 44.2109H176.844V66.3162H198.949V44.2109Z" stroke="#ECECED" stroke-width="0.630746"/>
<path d="M221.059 44.2109H198.953V66.3162H221.059V44.2109Z" stroke="#ECECED" stroke-width="0.630746"/>
<path d="M243.16 44.2109H221.055V66.3162H243.16V44.2109Z" stroke="#ECECED" stroke-width="0.630746"/>
<path d="M265.27 44.2109H243.164V66.3162H265.27V44.2109Z" stroke="#ECECED" stroke-width="0.630746"/>
<path d="M287.379 44.2109H265.273V66.3162H287.379V44.2109Z" stroke="#ECECED" stroke-width="0.630746"/>
<path d="M309.488 44.2109H287.383V66.3162H309.488V44.2109Z" stroke="#ECECED" stroke-width="0.630746"/>
<path d="M331.574 44.2109H309.469V66.3162H331.574V44.2109Z" stroke="#ECECED" stroke-width="0.630746"/>
<path d="M353.691 44.2109H331.586V66.3162H353.691V44.2109Z" stroke="#ECECED" stroke-width="0.630746"/>
<path d="M375.793 44.2109H353.688V66.3162H375.793V44.2109Z" stroke="#ECECED" stroke-width="0.630746"/>
<path d="M397.895 44.2109H375.789V66.3162H397.895V44.2109Z" stroke="#ECECED" stroke-width="0.630746"/>
<path d="M419.996 44.2109H397.891V66.3162H419.996V44.2109Z" stroke="#ECECED" stroke-width="0.630746"/>
<path d="M22.1055 66.3154H0V88.4207H22.1055V66.3154Z" stroke="#ECECED" stroke-width="0.630746"/>
<path d="M44.2071 66.3154H22.1016V88.4207H44.2071V66.3154Z" stroke="#ECECED" stroke-width="0.630746"/>
<path d="M66.3242 66.3154H44.2188V88.4207H66.3242V66.3154Z" stroke="#ECECED" stroke-width="0.630746"/>
<path d="M88.4258 66.3154H66.3203V88.4207H88.4258V66.3154Z" stroke="#ECECED" stroke-width="0.630746"/>
<path d="M110.527 66.3154H88.4219V88.4207H110.527V66.3154Z" stroke="#ECECED" stroke-width="0.630746"/>
<path d="M132.637 66.3154H110.531V88.4207H132.637V66.3154Z" stroke="#ECECED" stroke-width="0.630746"/>
<path d="M154.746 66.3154H132.641V88.4207H154.746V66.3154Z" stroke="#ECECED" stroke-width="0.630746"/>
<path d="M176.84 66.3154H154.734V88.4207H176.84V66.3154Z" stroke="#ECECED" stroke-width="0.630746"/>
<path d="M198.949 66.3154H176.844V88.4207H198.949V66.3154Z" stroke="#ECECED" stroke-width="0.630746"/>
<path d="M221.059 66.3154H198.953V88.4207H221.059V66.3154Z" stroke="#ECECED" stroke-width="0.630746"/>
<path d="M243.16 66.3154H221.055V88.4207H243.16V66.3154Z" stroke="#ECECED" stroke-width="0.630746"/>
<path d="M265.27 66.3154H243.164V88.4207H265.27V66.3154Z" stroke="#ECECED" stroke-width="0.630746"/>
<path d="M287.379 66.3154H265.273V88.4207H287.379V66.3154Z" stroke="#ECECED" stroke-width="0.630746"/>
<path d="M309.488 66.3154H287.383V88.4207H309.488V66.3154Z" stroke="#ECECED" stroke-width="0.630746"/>
<path d="M331.574 66.3154H309.469V88.4207H331.574V66.3154Z" stroke="#ECECED" stroke-width="0.630746"/>
<path d="M353.691 66.3154H331.586V88.4207H353.691V66.3154Z" stroke="#ECECED" stroke-width="0.630746"/>
<path d="M375.793 66.3154H353.688V88.4207H375.793V66.3154Z" stroke="#ECECED" stroke-width="0.630746"/>
<path d="M397.895 66.3154H375.789V88.4207H397.895V66.3154Z" stroke="#ECECED" stroke-width="0.630746"/>
<path d="M419.996 66.3154H397.891V88.4207H419.996V66.3154Z" stroke="#ECECED" stroke-width="0.630746"/>
<path d="M22.1055 88.4219H0V110.527H22.1055V88.4219Z" stroke="#ECECED" stroke-width="0.630746"/>
<path d="M44.2071 88.4219H22.1016V110.527H44.2071V88.4219Z" stroke="#ECECED" stroke-width="0.630746"/>
<path d="M66.3242 88.4219H44.2188V110.527H66.3242V88.4219Z" stroke="#ECECED" stroke-width="0.630746"/>
<path d="M88.4258 88.4219H66.3203V110.527H88.4258V88.4219Z" stroke="#ECECED" stroke-width="0.630746"/>
<path d="M110.527 88.4219H88.4219V110.527H110.527V88.4219Z" stroke="#ECECED" stroke-width="0.630746"/>
<path d="M132.637 88.4219H110.531V110.527H132.637V88.4219Z" stroke="#ECECED" stroke-width="0.630746"/>
<path d="M154.746 88.4219H132.641V110.527H154.746V88.4219Z" stroke="#ECECED" stroke-width="0.630746"/>
<path d="M176.84 88.4219H154.734V110.527H176.84V88.4219Z" stroke="#ECECED" stroke-width="0.630746"/>
<path d="M198.949 88.4219H176.844V110.527H198.949V88.4219Z" stroke="#ECECED" stroke-width="0.630746"/>
<path d="M221.059 88.4219H198.953V110.527H221.059V88.4219Z" stroke="#ECECED" stroke-width="0.630746"/>
<path d="M243.16 88.4219H221.055V110.527H243.16V88.4219Z" stroke="#ECECED" stroke-width="0.630746"/>
<path d="M265.27 88.4219H243.164V110.527H265.27V88.4219Z" stroke="#ECECED" stroke-width="0.630746"/>
<path d="M287.379 88.4219H265.273V110.527H287.379V88.4219Z" stroke="#ECECED" stroke-width="0.630746"/>
<path d="M309.488 88.4219H287.383V110.527H309.488V88.4219Z" stroke="#ECECED" stroke-width="0.630746"/>
<path d="M331.574 88.4219H309.469V110.527H331.574V88.4219Z" stroke="#ECECED" stroke-width="0.630746"/>
<path d="M353.691 88.4219H331.586V110.527H353.691V88.4219Z" stroke="#ECECED" stroke-width="0.630746"/>
<path d="M375.793 88.4219H353.688V110.527H375.793V88.4219Z" stroke="#ECECED" stroke-width="0.630746"/>
<path d="M397.895 88.4219H375.789V110.527H397.895V88.4219Z" stroke="#ECECED" stroke-width="0.630746"/>
<path d="M419.996 88.4219H397.891V110.527H419.996V88.4219Z" stroke="#ECECED" stroke-width="0.630746"/>
<path d="M22.1055 110.526H0V132.632H22.1055V110.526Z" stroke="#ECECED" stroke-width="0.630746"/>
<path d="M44.2071 110.526H22.1016V132.632H44.2071V110.526Z" stroke="#ECECED" stroke-width="0.630746"/>
<path d="M66.3242 110.526H44.2188V132.632H66.3242V110.526Z" stroke="#ECECED" stroke-width="0.630746"/>
<path d="M88.4258 110.526H66.3203V132.632H88.4258V110.526Z" stroke="#ECECED" stroke-width="0.630746"/>
<path d="M110.527 110.526H88.4219V132.632H110.527V110.526Z" stroke="#ECECED" stroke-width="0.630746"/>
<path d="M132.637 110.526H110.531V132.632H132.637V110.526Z" stroke="#ECECED" stroke-width="0.630746"/>
<path d="M154.746 110.526H132.641V132.632H154.746V110.526Z" stroke="#ECECED" stroke-width="0.630746"/>
<path d="M176.84 110.526H154.734V132.632H176.84V110.526Z" stroke="#ECECED" stroke-width="0.630746"/>
<path d="M198.949 110.526H176.844V132.632H198.949V110.526Z" stroke="#ECECED" stroke-width="0.630746"/>
<path d="M221.059 110.526H198.953V132.632H221.059V110.526Z" stroke="#ECECED" stroke-width="0.630746"/>
<path d="M243.16 110.526H221.055V132.632H243.16V110.526Z" stroke="#ECECED" stroke-width="0.630746"/>
<path d="M265.27 110.526H243.164V132.632H265.27V110.526Z" stroke="#ECECED" stroke-width="0.630746"/>
<path d="M287.379 110.526H265.273V132.632H287.379V110.526Z" stroke="#ECECED" stroke-width="0.630746"/>
<path d="M309.488 110.526H287.383V132.632H309.488V110.526Z" stroke="#ECECED" stroke-width="0.630746"/>
<path d="M331.574 110.526H309.469V132.632H331.574V110.526Z" stroke="#ECECED" stroke-width="0.630746"/>
<path d="M353.691 110.526H331.586V132.632H353.691V110.526Z" stroke="#ECECED" stroke-width="0.630746"/>
<path d="M375.793 110.526H353.688V132.632H375.793V110.526Z" stroke="#ECECED" stroke-width="0.630746"/>
<path d="M397.895 110.526H375.789V132.632H397.895V110.526Z" stroke="#ECECED" stroke-width="0.630746"/>
<path d="M419.996 110.526H397.891V132.632H419.996V110.526Z" stroke="#ECECED" stroke-width="0.630746"/>
<path d="M22.1055 132.632H0V154.737H22.1055V132.632Z" stroke="#ECECED" stroke-width="0.630746"/>
<path d="M44.2071 132.632H22.1016V154.737H44.2071V132.632Z" stroke="#ECECED" stroke-width="0.630746"/>
<path d="M66.3242 132.632H44.2188V154.737H66.3242V132.632Z" stroke="#ECECED" stroke-width="0.630746"/>
<path d="M88.4258 132.632H66.3203V154.737H88.4258V132.632Z" stroke="#ECECED" stroke-width="0.630746"/>
<path d="M110.527 132.632H88.4219V154.737H110.527V132.632Z" stroke="#ECECED" stroke-width="0.630746"/>
<path d="M132.637 132.632H110.531V154.737H132.637V132.632Z" stroke="#ECECED" stroke-width="0.630746"/>
<path d="M154.746 132.632H132.641V154.737H154.746V132.632Z" stroke="#ECECED" stroke-width="0.630746"/>
<path d="M176.84 132.632H154.734V154.737H176.84V132.632Z" stroke="#ECECED" stroke-width="0.630746"/>
<path d="M198.949 132.632H176.844V154.737H198.949V132.632Z" stroke="#ECECED" stroke-width="0.630746"/>
<path d="M221.059 132.632H198.953V154.737H221.059V132.632Z" stroke="#ECECED" stroke-width="0.630746"/>
<path d="M243.16 132.632H221.055V154.737H243.16V132.632Z" stroke="#ECECED" stroke-width="0.630746"/>
<path d="M265.27 132.632H243.164V154.737H265.27V132.632Z" stroke="#ECECED" stroke-width="0.630746"/>
<path d="M287.379 132.632H265.273V154.737H287.379V132.632Z" stroke="#ECECED" stroke-width="0.630746"/>
<path d="M309.488 132.632H287.383V154.737H309.488V132.632Z" stroke="#ECECED" stroke-width="0.630746"/>
<path d="M331.574 132.632H309.469V154.737H331.574V132.632Z" stroke="#ECECED" stroke-width="0.630746"/>
<path d="M353.691 132.632H331.586V154.737H353.691V132.632Z" stroke="#ECECED" stroke-width="0.630746"/>
<path d="M375.793 132.632H353.688V154.737H375.793V132.632Z" stroke="#ECECED" stroke-width="0.630746"/>
<path d="M397.895 132.632H375.789V154.737H397.895V132.632Z" stroke="#ECECED" stroke-width="0.630746"/>
<path d="M419.996 132.632H397.891V154.737H419.996V132.632Z" stroke="#ECECED" stroke-width="0.630746"/>
<path d="M22.1055 154.736H0V176.842H22.1055V154.736Z" stroke="#ECECED" stroke-width="0.630746"/>
<path d="M44.2071 154.736H22.1016V176.842H44.2071V154.736Z" stroke="#ECECED" stroke-width="0.630746"/>
<path d="M66.3242 154.736H44.2188V176.842H66.3242V154.736Z" stroke="#ECECED" stroke-width="0.630746"/>
<path d="M88.4258 154.736H66.3203V176.842H88.4258V154.736Z" stroke="#ECECED" stroke-width="0.630746"/>
<path d="M110.527 154.736H88.4219V176.842H110.527V154.736Z" stroke="#ECECED" stroke-width="0.630746"/>
<path d="M132.637 154.736H110.531V176.842H132.637V154.736Z" stroke="#ECECED" stroke-width="0.630746"/>
<path d="M154.746 154.736H132.641V176.842H154.746V154.736Z" stroke="#ECECED" stroke-width="0.630746"/>
<path d="M176.84 154.736H154.734V176.842H176.84V154.736Z" stroke="#ECECED" stroke-width="0.630746"/>
<path d="M198.949 154.736H176.844V176.842H198.949V154.736Z" stroke="#ECECED" stroke-width="0.630746"/>
<path d="M221.059 154.736H198.953V176.842H221.059V154.736Z" stroke="#ECECED" stroke-width="0.630746"/>
<path d="M243.16 154.736H221.055V176.842H243.16V154.736Z" stroke="#ECECED" stroke-width="0.630746"/>
<path d="M265.27 154.736H243.164V176.842H265.27V154.736Z" stroke="#ECECED" stroke-width="0.630746"/>
<path d="M287.379 154.736H265.273V176.842H287.379V154.736Z" stroke="#ECECED" stroke-width="0.630746"/>
<path d="M309.488 154.736H287.383V176.842H309.488V154.736Z" stroke="#ECECED" stroke-width="0.630746"/>
<path d="M331.574 154.736H309.469V176.842H331.574V154.736Z" stroke="#ECECED" stroke-width="0.630746"/>
<path d="M353.691 154.736H331.586V176.842H353.691V154.736Z" stroke="#ECECED" stroke-width="0.630746"/>
<path d="M375.793 154.736H353.688V176.842H375.793V154.736Z" stroke="#ECECED" stroke-width="0.630746"/>
<path d="M397.895 154.736H375.789V176.842H397.895V154.736Z" stroke="#ECECED" stroke-width="0.630746"/>
<path d="M419.996 154.736H397.891V176.842H419.996V154.736Z" stroke="#ECECED" stroke-width="0.630746"/>
<path d="M22.1055 176.844H0V198.949H22.1055V176.844Z" stroke="#ECECED" stroke-width="0.630746"/>
<path d="M44.2071 176.844H22.1016V198.949H44.2071V176.844Z" stroke="#ECECED" stroke-width="0.630746"/>
<path d="M66.3242 176.844H44.2188V198.949H66.3242V176.844Z" stroke="#ECECED" stroke-width="0.630746"/>
<path d="M88.4258 176.844H66.3203V198.949H88.4258V176.844Z" stroke="#ECECED" stroke-width="0.630746"/>
<path d="M110.527 176.844H88.4219V198.949H110.527V176.844Z" stroke="#ECECED" stroke-width="0.630746"/>
<path d="M132.637 176.844H110.531V198.949H132.637V176.844Z" stroke="#ECECED" stroke-width="0.630746"/>
<path d="M154.746 176.844H132.641V198.949H154.746V176.844Z" stroke="#ECECED" stroke-width="0.630746"/>
<path d="M176.84 176.844H154.734V198.949H176.84V176.844Z" stroke="#ECECED" stroke-width="0.630746"/>
<path d="M198.949 176.844H176.844V198.949H198.949V176.844Z" stroke="#ECECED" stroke-width="0.630746"/>
<path d="M221.059 176.844H198.953V198.949H221.059V176.844Z" stroke="#ECECED" stroke-width="0.630746"/>
<path d="M243.16 176.844H221.055V198.949H243.16V176.844Z" stroke="#ECECED" stroke-width="0.630746"/>
<path d="M265.27 176.844H243.164V198.949H265.27V176.844Z" stroke="#ECECED" stroke-width="0.630746"/>
<path d="M287.379 176.844H265.273V198.949H287.379V176.844Z" stroke="#ECECED" stroke-width="0.630746"/>
<path d="M309.488 176.844H287.383V198.949H309.488V176.844Z" stroke="#ECECED" stroke-width="0.630746"/>
<path d="M331.574 176.844H309.469V198.949H331.574V176.844Z" stroke="#ECECED" stroke-width="0.630746"/>
<path d="M353.691 176.844H331.586V198.949H353.691V176.844Z" stroke="#ECECED" stroke-width="0.630746"/>
<path d="M375.793 176.844H353.688V198.949H375.793V176.844Z" stroke="#ECECED" stroke-width="0.630746"/>
<path d="M397.895 176.844H375.789V198.949H397.895V176.844Z" stroke="#ECECED" stroke-width="0.630746"/>
<path d="M419.996 176.844H397.891V198.949H419.996V176.844Z" stroke="#ECECED" stroke-width="0.630746"/>
<path d="M22.1055 198.947H0V221.053H22.1055V198.947Z" stroke="#ECECED" stroke-width="0.630746"/>
<path d="M44.2071 198.947H22.1016V221.053H44.2071V198.947Z" stroke="#ECECED" stroke-width="0.630746"/>
<path d="M66.3242 198.947H44.2188V221.053H66.3242V198.947Z" stroke="#ECECED" stroke-width="0.630746"/>
<path d="M88.4258 198.947H66.3203V221.053H88.4258V198.947Z" stroke="#ECECED" stroke-width="0.630746"/>
<path d="M110.527 198.947H88.4219V221.053H110.527V198.947Z" stroke="#ECECED" stroke-width="0.630746"/>
<path d="M132.637 198.947H110.531V221.053H132.637V198.947Z" stroke="#ECECED" stroke-width="0.630746"/>
<path d="M154.746 198.947H132.641V221.053H154.746V198.947Z" stroke="#ECECED" stroke-width="0.630746"/>
<path d="M176.84 198.947H154.734V221.053H176.84V198.947Z" stroke="#ECECED" stroke-width="0.630746"/>
<path d="M198.949 198.947H176.844V221.053H198.949V198.947Z" stroke="#ECECED" stroke-width="0.630746"/>
<path d="M221.059 198.947H198.953V221.053H221.059V198.947Z" stroke="#ECECED" stroke-width="0.630746"/>
<path d="M243.16 198.947H221.055V221.053H243.16V198.947Z" stroke="#ECECED" stroke-width="0.630746"/>
<path d="M265.27 198.947H243.164V221.053H265.27V198.947Z" stroke="#ECECED" stroke-width="0.630746"/>
<path d="M287.379 198.947H265.273V221.053H287.379V198.947Z" stroke="#ECECED" stroke-width="0.630746"/>
<path d="M309.488 198.947H287.383V221.053H309.488V198.947Z" stroke="#ECECED" stroke-width="0.630746"/>
<path d="M331.574 198.947H309.469V221.053H331.574V198.947Z" stroke="#ECECED" stroke-width="0.630746"/>
<path d="M353.691 198.947H331.586V221.053H353.691V198.947Z" stroke="#ECECED" stroke-width="0.630746"/>
<path d="M375.793 198.947H353.688V221.053H375.793V198.947Z" stroke="#ECECED" stroke-width="0.630746"/>
<path d="M397.895 198.947H375.789V221.053H397.895V198.947Z" stroke="#ECECED" stroke-width="0.630746"/>
<path d="M419.996 198.947H397.891V221.053H419.996V198.947Z" stroke="#ECECED" stroke-width="0.630746"/>
<path d="M22.1055 221.054H0V243.159H22.1055V221.054Z" stroke="#ECECED" stroke-width="0.630746"/>
<path d="M44.2071 221.054H22.1016V243.159H44.2071V221.054Z" stroke="#ECECED" stroke-width="0.630746"/>
<path d="M66.3242 221.054H44.2188V243.159H66.3242V221.054Z" stroke="#ECECED" stroke-width="0.630746"/>
<path d="M88.4258 221.054H66.3203V243.159H88.4258V221.054Z" stroke="#ECECED" stroke-width="0.630746"/>
<path d="M110.527 221.054H88.4219V243.159H110.527V221.054Z" stroke="#ECECED" stroke-width="0.630746"/>
<path d="M132.637 221.054H110.531V243.159H132.637V221.054Z" stroke="#ECECED" stroke-width="0.630746"/>
<path d="M154.746 221.054H132.641V243.159H154.746V221.054Z" stroke="#ECECED" stroke-width="0.630746"/>
<path d="M176.84 221.054H154.734V243.159H176.84V221.054Z" stroke="#ECECED" stroke-width="0.630746"/>
<path d="M198.949 221.054H176.844V243.159H198.949V221.054Z" stroke="#ECECED" stroke-width="0.630746"/>
<path d="M221.059 221.054H198.953V243.159H221.059V221.054Z" stroke="#ECECED" stroke-width="0.630746"/>
<path d="M243.16 221.054H221.055V243.159H243.16V221.054Z" stroke="#ECECED" stroke-width="0.630746"/>
<path d="M265.27 221.054H243.164V243.159H265.27V221.054Z" stroke="#ECECED" stroke-width="0.630746"/>
<path d="M287.379 221.054H265.273V243.159H287.379V221.054Z" stroke="#ECECED" stroke-width="0.630746"/>
<path d="M309.488 221.054H287.383V243.159H309.488V221.054Z" stroke="#ECECED" stroke-width="0.630746"/>
<path d="M331.574 221.054H309.469V243.159H331.574V221.054Z" stroke="#ECECED" stroke-width="0.630746"/>
<path d="M353.691 221.054H331.586V243.159H353.691V221.054Z" stroke="#ECECED" stroke-width="0.630746"/>
<path d="M375.793 221.054H353.688V243.159H375.793V221.054Z" stroke="#ECECED" stroke-width="0.630746"/>
<path d="M397.895 221.054H375.789V243.159H397.895V221.054Z" stroke="#ECECED" stroke-width="0.630746"/>
<path d="M419.996 221.054H397.891V243.159H419.996V221.054Z" stroke="#ECECED" stroke-width="0.630746"/>
<path d="M22.1055 243.157H0V265.262H22.1055V243.157Z" stroke="#ECECED" stroke-width="0.630746"/>
<path d="M44.2071 243.157H22.1016V265.262H44.2071V243.157Z" stroke="#ECECED" stroke-width="0.630746"/>
<path d="M66.3242 243.157H44.2188V265.262H66.3242V243.157Z" stroke="#ECECED" stroke-width="0.630746"/>
<path d="M88.4258 243.157H66.3203V265.262H88.4258V243.157Z" stroke="#ECECED" stroke-width="0.630746"/>
<path d="M110.527 243.157H88.4219V265.262H110.527V243.157Z" stroke="#ECECED" stroke-width="0.630746"/>
<path d="M132.637 243.157H110.531V265.262H132.637V243.157Z" stroke="#ECECED" stroke-width="0.630746"/>
<path d="M154.746 243.157H132.641V265.262H154.746V243.157Z" stroke="#ECECED" stroke-width="0.630746"/>
<path d="M176.84 243.157H154.734V265.262H176.84V243.157Z" stroke="#ECECED" stroke-width="0.630746"/>
<path d="M198.949 243.157H176.844V265.262H198.949V243.157Z" stroke="#ECECED" stroke-width="0.630746"/>
<path d="M221.059 243.157H198.953V265.262H221.059V243.157Z" stroke="#ECECED" stroke-width="0.630746"/>
<path d="M243.16 243.157H221.055V265.262H243.16V243.157Z" stroke="#ECECED" stroke-width="0.630746"/>
<path d="M265.27 243.157H243.164V265.262H265.27V243.157Z" stroke="#ECECED" stroke-width="0.630746"/>
<path d="M287.379 243.157H265.273V265.262H287.379V243.157Z" stroke="#ECECED" stroke-width="0.630746"/>
<path d="M309.488 243.157H287.383V265.262H309.488V243.157Z" stroke="#ECECED" stroke-width="0.630746"/>
<path d="M331.574 243.157H309.469V265.262H331.574V243.157Z" stroke="#ECECED" stroke-width="0.630746"/>
<path d="M353.691 243.157H331.586V265.262H353.691V243.157Z" stroke="#ECECED" stroke-width="0.630746"/>
<path d="M375.793 243.157H353.688V265.262H375.793V243.157Z" stroke="#ECECED" stroke-width="0.630746"/>
<path d="M397.895 243.157H375.789V265.262H397.895V243.157Z" stroke="#ECECED" stroke-width="0.630746"/>
<path d="M419.996 243.157H397.891V265.262H419.996V243.157Z" stroke="#ECECED" stroke-width="0.630746"/>
</g>
<defs>
<clipPath id="clip0_947_10421">
<rect width="419.996" height="420" fill="white"/>
</clipPath>
</defs>
</svg>
