<svg width="102" height="41" viewBox="0 0 102 41" fill="none" xmlns="http://www.w3.org/2000/svg">
<path d="M70.0471 25.4713C68.9399 25.4713 67.9424 25.2729 67.0546 24.876C66.1772 24.4791 65.4826 23.8941 64.9708 23.1212C64.459 22.3483 64.2031 21.3926 64.2031 20.2541C64.2031 19.2722 64.3859 18.4628 64.7515 17.8256C65.1171 17.1885 65.6132 16.6819 66.2399 16.3059C66.877 15.9194 67.5925 15.627 68.3863 15.4285C69.1802 15.23 70.0001 15.089 70.8461 15.0055C71.8697 14.8906 72.6949 14.7914 73.3216 14.7078C73.9483 14.6242 74.4026 14.4885 74.6847 14.3004C74.9771 14.1124 75.1233 13.8252 75.1233 13.4387V13.3447C75.1233 12.7911 75.0032 12.3211 74.763 11.9347C74.5332 11.5377 74.1937 11.2348 73.7446 11.0259C73.2955 10.817 72.7367 10.7126 72.0682 10.7126C71.4102 10.7126 70.8305 10.817 70.3291 11.0259C69.8382 11.2244 69.4361 11.496 69.1227 11.8407C68.8198 12.1749 68.6057 12.5457 68.4803 12.953L64.7045 12.3577C64.9865 11.3027 65.4722 10.4254 66.1616 9.72554C66.8614 9.01529 67.7126 8.48259 68.7154 8.12746C69.7285 7.76189 70.8513 7.5791 72.0839 7.5791C72.9612 7.5791 73.8177 7.68355 74.6533 7.89245C75.4994 8.10135 76.2618 8.44081 76.9408 8.91084C77.6197 9.37041 78.1576 9.98145 78.5545 10.7439C78.9619 11.496 79.1655 12.4203 79.1655 13.5171V25.1267H75.2644V22.7295H75.1233C74.8727 23.2204 74.5228 23.6748 74.0736 24.0926C73.6245 24.5104 73.0657 24.8446 72.3972 25.0953C71.7392 25.346 70.9558 25.4713 70.0471 25.4713ZM71.0811 22.4632C71.9167 22.4632 72.6374 22.3013 73.2432 21.9775C73.8595 21.6433 74.3295 21.2046 74.6533 20.6614C74.9876 20.1183 75.1547 19.5229 75.1547 18.8753V16.8699C75.0189 16.9744 74.7995 17.0736 74.4966 17.1676C74.2042 17.2511 73.8647 17.3295 73.4783 17.4026C73.1022 17.4653 72.721 17.5279 72.3345 17.5906C71.9585 17.6428 71.6243 17.6846 71.3318 17.7159C70.7365 17.7995 70.1933 17.9405 69.7024 18.139C69.2219 18.327 68.8407 18.5881 68.5587 18.9223C68.2767 19.2461 68.1357 19.6744 68.1357 20.2071C68.1357 20.698 68.261 21.1106 68.5117 21.4448C68.7624 21.779 69.107 22.0349 69.5457 22.2125C69.9844 22.3796 70.4962 22.4632 71.0811 22.4632Z" fill="black"/>
<path d="M52.9922 25.1275V7.83067H56.9091V10.7135H57.0657C57.3791 9.71077 57.9118 8.94306 58.6638 8.41037C59.4158 7.87767 60.3037 7.61133 61.3273 7.61133C61.5675 7.61133 61.8182 7.62177 62.0793 7.64266C62.3509 7.65311 62.5807 7.674 62.7687 7.70533V11.4029C62.6016 11.3611 62.33 11.3193 61.954 11.2775C61.5884 11.2357 61.2228 11.2148 60.8573 11.2148C60.1365 11.2148 59.4837 11.3715 58.8988 11.6849C58.3243 11.9982 57.87 12.4421 57.5358 13.0166C57.2015 13.5806 57.0344 14.2543 57.0344 15.0377V25.1275H52.9922Z" fill="black"/>
<path d="M49.9256 7.82987V11.0104H39.9141V7.82987H49.9256ZM42.4992 3.58398H46.5414V20.2385C46.5414 20.8547 46.672 21.3039 46.9331 21.5859C47.2047 21.8679 47.6538 22.0089 48.2805 22.0089C48.4789 22.0089 48.7348 21.9932 49.0482 21.9619C49.3615 21.9306 49.6122 21.8992 49.8002 21.8679L50.3016 25.0171C49.8942 25.1215 49.4608 25.1946 49.0012 25.2364C48.5416 25.2886 48.0925 25.3148 47.6538 25.3148C45.9721 25.3148 44.6926 24.9126 43.8153 24.1084C42.9379 23.3041 42.4992 22.1447 42.4992 20.6302V3.58398Z" fill="black"/>
<path d="M30.8872 25.487C29.5502 25.487 28.3595 25.2938 27.315 24.9073C26.2705 24.5104 25.4192 23.9359 24.7612 23.1839C24.1032 22.4214 23.6854 21.497 23.5078 20.4108L27.3463 19.8467C27.5448 20.7032 27.9469 21.3456 28.5527 21.7738C29.1585 22.1916 29.9524 22.4005 30.9342 22.4005C31.9265 22.4005 32.7098 22.2021 33.2843 21.8052C33.8692 21.4082 34.1617 20.9173 34.1617 20.3324C34.1617 19.8311 33.9632 19.4185 33.5663 19.0947C33.1799 18.7709 32.6002 18.5254 31.8272 18.3583L28.8818 17.7316C27.2419 17.3765 26.0146 16.7916 25.1999 15.9769C24.3852 15.1622 23.9778 14.1177 23.9778 12.8434C23.9778 11.778 24.2703 10.8536 24.8552 10.0702C25.4401 9.27641 26.2548 8.66538 27.2993 8.23713C28.3438 7.79845 29.5607 7.5791 30.9499 7.5791C32.2764 7.5791 33.4201 7.77756 34.381 8.17447C35.3524 8.56093 36.1306 9.10929 36.7155 9.81955C37.3108 10.5194 37.7025 11.3497 37.8905 12.3107L34.24 12.859C34.0833 12.2323 33.7387 11.6996 33.206 11.261C32.6733 10.8223 31.9421 10.6029 31.0125 10.6029C30.1456 10.6029 29.4301 10.7962 28.8661 11.1826C28.3021 11.5586 28.02 12.0391 28.02 12.624C28.02 13.1358 28.2133 13.5536 28.5997 13.8774C28.9862 14.2012 29.6025 14.4571 30.4485 14.6451L33.4253 15.2718C35.0756 15.627 36.2977 16.191 37.0915 16.9639C37.8958 17.7368 38.2979 18.7343 38.2979 19.9564C38.2979 21.0636 37.9793 22.0297 37.3422 22.8549C36.7155 23.68 35.8433 24.3276 34.7257 24.7976C33.6185 25.2572 32.339 25.487 30.8872 25.487Z" fill="black"/>
<path d="M0 25.1267L8.17841 1.78223H13.474L21.7934 25.1267H17.2185L13.0823 12.9688C12.675 11.705 12.2467 10.3001 11.7976 8.75425C11.3589 7.19795 10.868 5.41185 10.3249 3.39597H11.2649C10.7322 5.4223 10.2517 7.21883 9.8235 8.78558C9.39525 10.3419 8.9879 11.7363 8.60144 12.9688L4.54356 25.1267H0ZM4.77858 19.3925V16.0083H16.9992V19.3925H4.77858Z" fill="black"/>
<g clip-path="url(#clip0_947_12399)">
<g clip-path="url(#clip1_947_12399)">
<path d="M93.6921 0.641206H88.8421V-0.571289H86.4172V0.641206H81.5672C79.5583 0.641206 77.9297 2.26977 77.9297 4.27869V7.91618C77.9297 11.2644 80.644 13.9787 83.9922 13.9787H91.2671C94.6153 13.9787 97.3296 11.2644 97.3296 7.91618V4.27869C97.3296 2.26977 95.7011 0.641206 93.6921 0.641206ZM86.4172 7.30993C86.4172 8.3144 85.6028 9.12867 84.5984 9.12867C83.5939 9.12867 82.7797 8.3144 82.7797 7.30993C82.7797 6.30546 83.5939 5.49119 84.5984 5.49119C85.6028 5.49119 86.4172 6.30546 86.4172 7.30993ZM92.4796 7.30993C92.4796 8.3144 91.6653 9.12867 90.6609 9.12867C89.6565 9.12867 88.8421 8.3144 88.8421 7.30993C88.8421 6.30546 89.6565 5.49119 90.6609 5.49119C91.6653 5.49119 92.4796 6.30546 92.4796 7.30993ZM77.9297 24.8911C77.9297 19.5339 82.2725 15.1911 87.6296 15.1911C92.9868 15.1911 97.3296 19.5339 97.3296 24.8911H77.9297Z" fill="black"/>
</g>
</g>
<defs>
<clipPath id="clip0_947_12399">
<rect width="28.5217" height="16.0435" fill="white" transform="translate(73.0859)"/>
</clipPath>
<clipPath id="clip1_947_12399">
<rect width="29.0999" height="29.0999" fill="white" transform="translate(73.0859)"/>
</clipPath>
</defs>
</svg>
