<svg width="57" height="23" viewBox="0 0 57 23" fill="none" xmlns="http://www.w3.org/2000/svg">
<path d="M39.2939 14.2891C38.6729 14.2891 38.1133 14.1777 37.6152 13.9551C37.123 13.7324 36.7334 13.4043 36.4463 12.9707C36.1592 12.5371 36.0156 12.001 36.0156 11.3623C36.0156 10.8115 36.1182 10.3574 36.3232 10C36.5283 9.64258 36.8066 9.3584 37.1582 9.14746C37.5156 8.93066 37.917 8.7666 38.3623 8.65527C38.8076 8.54395 39.2676 8.46484 39.7422 8.41797C40.3164 8.35352 40.7793 8.29785 41.1309 8.25098C41.4824 8.2041 41.7373 8.12793 41.8955 8.02246C42.0596 7.91699 42.1416 7.75586 42.1416 7.53906V7.48633C42.1416 7.17578 42.0742 6.91211 41.9395 6.69531C41.8105 6.47266 41.6201 6.30273 41.3682 6.18555C41.1162 6.06836 40.8027 6.00977 40.4277 6.00977C40.0586 6.00977 39.7334 6.06836 39.4521 6.18555C39.1768 6.29688 38.9512 6.44922 38.7754 6.64258C38.6055 6.83008 38.4854 7.03809 38.415 7.2666L36.2969 6.93262C36.4551 6.34082 36.7275 5.84863 37.1143 5.45605C37.5068 5.05762 37.9844 4.75879 38.5469 4.55957C39.1152 4.35449 39.7451 4.25195 40.4365 4.25195C40.9287 4.25195 41.4092 4.31055 41.8779 4.42773C42.3525 4.54492 42.7803 4.73535 43.1611 4.99902C43.542 5.25684 43.8438 5.59961 44.0664 6.02734C44.2949 6.44922 44.4092 6.96777 44.4092 7.58301V14.0957H42.2207V12.751H42.1416C42.001 13.0264 41.8047 13.2812 41.5527 13.5156C41.3008 13.75 40.9873 13.9375 40.6123 14.0781C40.2432 14.2188 39.8037 14.2891 39.2939 14.2891ZM39.874 12.6016C40.3428 12.6016 40.7471 12.5107 41.0869 12.3291C41.4326 12.1416 41.6963 11.8955 41.8779 11.5908C42.0654 11.2861 42.1592 10.9521 42.1592 10.5889V9.46387C42.083 9.52246 41.96 9.57812 41.79 9.63086C41.626 9.67773 41.4355 9.72168 41.2188 9.7627C41.0078 9.79785 40.7939 9.83301 40.5771 9.86816C40.3662 9.89746 40.1787 9.9209 40.0146 9.93848C39.6807 9.98535 39.376 10.0645 39.1006 10.1758C38.8311 10.2812 38.6172 10.4277 38.459 10.6152C38.3008 10.7969 38.2217 11.0371 38.2217 11.3359C38.2217 11.6113 38.292 11.8428 38.4326 12.0303C38.5732 12.2178 38.7666 12.3613 39.0127 12.4609C39.2588 12.5547 39.5459 12.6016 39.874 12.6016Z" fill="white"/>
<path d="M29.7266 14.0957V4.39258H31.9238V6.00977H32.0117C32.1875 5.44727 32.4863 5.0166 32.9082 4.71777C33.3301 4.41895 33.8281 4.26953 34.4023 4.26953C34.5371 4.26953 34.6777 4.27539 34.8242 4.28711C34.9766 4.29297 35.1055 4.30469 35.2109 4.32227V6.39648C35.1172 6.37305 34.9648 6.34961 34.7539 6.32617C34.5488 6.30273 34.3438 6.29102 34.1387 6.29102C33.7344 6.29102 33.3682 6.37891 33.04 6.55469C32.7178 6.73047 32.4629 6.97949 32.2754 7.30176C32.0879 7.61816 31.9941 7.99609 31.9941 8.43555V14.0957H29.7266Z" fill="white"/>
<path d="M27.999 4.39258V6.17676H22.3828V4.39258H27.999ZM23.833 2.01074H26.1006V11.3535C26.1006 11.6992 26.1738 11.9512 26.3203 12.1094C26.4727 12.2676 26.7246 12.3467 27.0762 12.3467C27.1875 12.3467 27.3311 12.3379 27.5068 12.3203C27.6826 12.3027 27.8232 12.2852 27.9287 12.2676L28.21 14.0342C27.9814 14.0928 27.7383 14.1338 27.4805 14.1572C27.2227 14.1865 26.9707 14.2012 26.7246 14.2012C25.7812 14.2012 25.0635 13.9756 24.5713 13.5244C24.0791 13.0732 23.833 12.4229 23.833 11.5732V2.01074Z" fill="white"/>
<path d="M17.3271 14.2979C16.5771 14.2979 15.9092 14.1895 15.3232 13.9727C14.7373 13.75 14.2598 13.4277 13.8906 13.0059C13.5215 12.5781 13.2871 12.0596 13.1875 11.4502L15.3408 11.1338C15.4521 11.6143 15.6777 11.9746 16.0176 12.2148C16.3574 12.4492 16.8027 12.5664 17.3535 12.5664C17.9102 12.5664 18.3496 12.4551 18.6719 12.2324C19 12.0098 19.1641 11.7344 19.1641 11.4062C19.1641 11.125 19.0527 10.8936 18.8301 10.7119C18.6133 10.5303 18.2881 10.3926 17.8545 10.2988L16.2021 9.94727C15.2822 9.74805 14.5938 9.41992 14.1367 8.96289C13.6797 8.50586 13.4512 7.91992 13.4512 7.20508C13.4512 6.60742 13.6152 6.08887 13.9434 5.64941C14.2715 5.2041 14.7285 4.86133 15.3145 4.62109C15.9004 4.375 16.583 4.25195 17.3623 4.25195C18.1064 4.25195 18.748 4.36328 19.2871 4.58594C19.832 4.80273 20.2686 5.11035 20.5967 5.50879C20.9307 5.90137 21.1504 6.36719 21.2559 6.90625L19.208 7.21387C19.1201 6.8623 18.9268 6.56348 18.6279 6.31738C18.3291 6.07129 17.9189 5.94824 17.3975 5.94824C16.9111 5.94824 16.5098 6.05664 16.1934 6.27344C15.877 6.48438 15.7188 6.75391 15.7188 7.08203C15.7188 7.36914 15.8271 7.60352 16.0439 7.78516C16.2607 7.9668 16.6064 8.11035 17.0811 8.21582L18.751 8.56738C19.6768 8.7666 20.3623 9.08301 20.8076 9.5166C21.2588 9.9502 21.4844 10.5098 21.4844 11.1953C21.4844 11.8164 21.3057 12.3584 20.9482 12.8213C20.5967 13.2842 20.1074 13.6475 19.4805 13.9111C18.8594 14.1689 18.1416 14.2979 17.3271 14.2979Z" fill="white"/>
<path d="M0 14.0957L4.58789 1H7.55859L12.2256 14.0957H9.65918L7.33887 7.27539C7.11035 6.56641 6.87012 5.77832 6.61816 4.91113C6.37207 4.03809 6.09668 3.03613 5.79199 1.90527H6.31934C6.02051 3.04199 5.75098 4.0498 5.51074 4.92871C5.27051 5.80176 5.04199 6.58398 4.8252 7.27539L2.54883 14.0957H0ZM2.68066 10.8789V8.98047H9.53613V10.8789H2.68066Z" fill="white"/>
<g clip-path="url(#clip0_987_8103)">
<g clip-path="url(#clip1_987_8103)">
<path d="M52.5611 0.359868H49.8404V-0.320312H48.48V0.359868H45.7593C44.6323 0.359868 43.7188 1.27345 43.7188 2.40041V4.44095C43.7188 6.3192 45.2414 7.84185 47.1197 7.84185H51.2007C53.079 7.84185 54.6016 6.3192 54.6016 4.44095V2.40041C54.6016 1.27345 53.6881 0.359868 52.5611 0.359868ZM48.48 4.10086C48.48 4.66434 48.0232 5.12113 47.4597 5.12113C46.8963 5.12113 46.4395 4.66434 46.4395 4.10086C46.4395 3.53738 46.8963 3.08059 47.4597 3.08059C48.0232 3.08059 48.48 3.53738 48.48 4.10086ZM51.8809 4.10086C51.8809 4.66434 51.4241 5.12113 50.8606 5.12113C50.2972 5.12113 49.8404 4.66434 49.8404 4.10086C49.8404 3.53738 50.2972 3.08059 50.8606 3.08059C51.4241 3.08059 51.8809 3.53738 51.8809 4.10086ZM43.7188 13.9635C43.7188 10.9582 46.155 8.52203 49.1602 8.52203C52.1654 8.52203 54.6016 10.9582 54.6016 13.9635H43.7188Z" fill="#F5F5F6"/>
</g>
</g>
<defs>
<clipPath id="clip0_987_8103">
<rect width="16" height="9" fill="white" transform="translate(41)"/>
</clipPath>
<clipPath id="clip1_987_8103">
<rect width="16.3243" height="16.3243" fill="white" transform="translate(41)"/>
</clipPath>
</defs>
</svg>
