<svg width="12" height="12" viewBox="0 0 12 12" fill="none" xmlns="http://www.w3.org/2000/svg">
<path fill-rule="evenodd" clip-rule="evenodd" d="M1.42188 2.85151C1.42188 2.47339 1.57209 2.11075 1.83946 1.84337C2.10684 1.57599 2.46948 1.42578 2.84761 1.42578H8.55054C8.92867 1.42578 9.29131 1.57599 9.55868 1.84337C9.82606 2.11075 9.97627 2.47339 9.97627 2.85151V8.55444C9.97627 8.93257 9.82606 9.29521 9.55868 9.56259C9.29131 9.82997 8.92867 9.98018 8.55054 9.98018H2.84761C2.46948 9.98018 2.10684 9.82997 1.83946 9.56259C1.57209 9.29521 1.42188 8.93257 1.42188 8.55444V2.85151ZM8.1941 5.70298C8.19402 5.79748 8.15641 5.88808 8.08955 5.95486L7.02025 7.02416C6.98762 7.05918 6.94827 7.08727 6.90455 7.10675C6.86083 7.12623 6.81363 7.1367 6.76577 7.13755C6.71791 7.13839 6.67037 7.12959 6.62599 7.11166C6.58161 7.09373 6.54129 7.06705 6.50744 7.03321C6.4736 6.99936 6.44692 6.95904 6.42899 6.91466C6.41106 6.87028 6.40226 6.82274 6.4031 6.77488C6.40395 6.72702 6.41442 6.67982 6.4339 6.6361C6.45339 6.59238 6.48147 6.55303 6.51649 6.5204L7.33391 5.70298L6.51649 4.88556C6.48147 4.85293 6.45339 4.81358 6.4339 4.76986C6.41442 4.72613 6.40395 4.67893 6.4031 4.63108C6.40226 4.58322 6.41106 4.53568 6.42899 4.4913C6.44692 4.44692 6.4736 4.4066 6.50744 4.37275C6.54129 4.33891 6.58161 4.31222 6.62599 4.2943C6.67037 4.27637 6.71791 4.26757 6.76577 4.26841C6.81363 4.26925 6.86083 4.27973 6.90455 4.29921C6.94827 4.31869 6.98762 4.34678 7.02025 4.3818L8.08955 5.4511C8.15656 5.51763 8.1941 5.60841 8.1941 5.70298ZM3.30859 5.4511C3.24185 5.51793 3.20435 5.60852 3.20435 5.70298C3.20435 5.79743 3.24185 5.88803 3.30859 5.95486L4.37789 7.02416C4.41053 7.05918 4.44988 7.08727 4.4936 7.10675C4.53732 7.12623 4.58452 7.1367 4.63238 7.13755C4.68023 7.13839 4.72777 7.12959 4.77216 7.11166C4.81654 7.09373 4.85685 7.06705 4.8907 7.03321C4.92455 6.99936 4.95123 6.95904 4.96916 6.91466C4.98708 6.87028 4.99589 6.82274 4.99504 6.77488C4.9942 6.72702 4.98372 6.67982 4.96424 6.6361C4.94476 6.59238 4.91667 6.55303 4.88165 6.5204L4.06423 5.70298L4.88165 4.88556C4.91667 4.85293 4.94476 4.81358 4.96424 4.76986C4.98372 4.72613 4.9942 4.67893 4.99504 4.63108C4.99589 4.58322 4.98708 4.53568 4.96916 4.4913C4.95123 4.44692 4.92455 4.4066 4.8907 4.37275C4.85685 4.33891 4.81654 4.31222 4.77216 4.2943C4.72777 4.27637 4.68023 4.26757 4.63238 4.26841C4.58452 4.26925 4.53732 4.27973 4.4936 4.29921C4.44988 4.31869 4.41053 4.34678 4.37789 4.3818L3.30859 5.4511Z" fill="#85888E"/>
</svg>
