<svg width="11" height="11" viewBox="0 0 11 11" fill="none" xmlns="http://www.w3.org/2000/svg">
<path fill-rule="evenodd" clip-rule="evenodd" d="M2.22636 3.80166C2.22636 3.0454 2.52679 2.32012 3.06154 1.78537C3.59629 1.25062 4.32157 0.950195 5.07783 0.950195C5.83408 0.950195 6.55937 1.25062 7.09412 1.78537C7.62887 2.32012 7.92929 3.0454 7.92929 3.80166V4.11849C7.92929 5.01533 8.26725 5.83233 8.82402 6.45036C8.8587 6.48879 8.88344 6.53514 8.89606 6.58535C8.90869 6.63556 8.90881 6.6881 8.89644 6.73837C8.88406 6.78864 8.85955 6.83511 8.82505 6.87371C8.79055 6.91232 8.74712 6.94188 8.69856 6.95982C8.04631 7.20061 7.36365 7.37803 6.65775 7.48491C6.67365 7.7021 6.64459 7.92024 6.57239 8.1257C6.50019 8.33116 6.38641 8.51952 6.23815 8.67903C6.08988 8.83854 5.91032 8.96577 5.71068 9.05277C5.51104 9.13977 5.2956 9.18467 5.07783 9.18467C4.86006 9.18467 4.64462 9.13977 4.44498 9.05277C4.24534 8.96577 4.06578 8.83854 3.91751 8.67903C3.76925 8.51952 3.65546 8.33116 3.58327 8.1257C3.51107 7.92024 3.48201 7.7021 3.49791 7.48491C2.80158 7.37939 2.11779 7.20331 1.4571 6.95939C1.40858 6.94148 1.36518 6.91196 1.33069 6.87341C1.29621 6.83486 1.27168 6.78845 1.25927 6.73823C1.24685 6.68802 1.24691 6.63553 1.25945 6.58535C1.272 6.53517 1.29663 6.48882 1.33121 6.45036C1.90861 5.81107 2.22766 4.97992 2.22636 4.11849V3.80166ZM4.12819 7.56137C4.12278 7.68945 4.14334 7.8173 4.18863 7.93723C4.23392 8.05715 4.303 8.16668 4.39171 8.25922C4.48043 8.35175 4.58695 8.42539 4.70486 8.47569C4.82277 8.52599 4.94964 8.55193 5.07783 8.55193C5.20602 8.55193 5.33289 8.52599 5.4508 8.47569C5.56871 8.42539 5.67523 8.35175 5.76395 8.25922C5.85266 8.16668 5.92174 8.05715 5.96703 7.93723C6.01232 7.8173 6.03288 7.68945 6.02747 7.56137C5.39566 7.61828 4.76 7.61828 4.12819 7.56137Z" fill="#94969C"/>
</svg>
