<svg width="16" height="16" viewBox="0 0 16 16" fill="none" xmlns="http://www.w3.org/2000/svg">
<path d="M3.67144 2.69867C3.85919 2.47955 4.09213 2.30365 4.35427 2.18306C4.61642 2.06246 4.90155 2.00001 5.1901 2H10.8101C11.0987 2.00001 11.3838 2.06246 11.6459 2.18306C11.9081 2.30365 12.141 2.47955 12.3288 2.69867L13.4768 4.03733C13.3191 4.01232 13.1597 3.99984 13.0001 4H3.0001C2.8381 4 2.67877 4.01333 2.52344 4.03733L3.67144 2.69867Z" fill="white"/>
<path fill-rule="evenodd" clip-rule="evenodd" d="M1 7C1 6.46957 1.21071 5.96086 1.58579 5.58579C1.96086 5.21071 2.46957 5 3 5H13C13.5304 5 14.0391 5.21071 14.4142 5.58579C14.7893 5.96086 15 6.46957 15 7C15 7.53043 14.7893 8.03914 14.4142 8.41421C14.0391 8.78929 13.5304 9 13 9H3C2.46957 9 1.96086 8.78929 1.58579 8.41421C1.21071 8.03914 1 7.53043 1 7ZM11 7C11 7.13261 10.9473 7.25978 10.8536 7.35355C10.7598 7.44732 10.6326 7.5 10.5 7.5C10.3674 7.5 10.2402 7.44732 10.1464 7.35355C10.0527 7.25978 10 7.13261 10 7C10 6.86739 10.0527 6.74022 10.1464 6.64645C10.2402 6.55268 10.3674 6.5 10.5 6.5C10.6326 6.5 10.7598 6.55268 10.8536 6.64645C10.9473 6.74022 11 6.86739 11 7ZM12.5 7.5C12.6326 7.5 12.7598 7.44732 12.8536 7.35355C12.9473 7.25978 13 7.13261 13 7C13 6.86739 12.9473 6.74022 12.8536 6.64645C12.7598 6.55268 12.6326 6.5 12.5 6.5C12.3674 6.5 12.2402 6.55268 12.1464 6.64645C12.0527 6.74022 12 6.86739 12 7C12 7.13261 12.0527 7.25978 12.1464 7.35355C12.2402 7.44732 12.3674 7.5 12.5 7.5ZM3 10C2.46957 10 1.96086 10.2107 1.58579 10.5858C1.21071 10.9609 1 11.4696 1 12C1 12.5304 1.21071 13.0391 1.58579 13.4142C1.96086 13.7893 2.46957 14 3 14H13C13.5304 14 14.0391 13.7893 14.4142 13.4142C14.7893 13.0391 15 12.5304 15 12C15 11.4696 14.7893 10.9609 14.4142 10.5858C14.0391 10.2107 13.5304 10 13 10H3ZM10.5 12.5C10.6326 12.5 10.7598 12.4473 10.8536 12.3536C10.9473 12.2598 11 12.1326 11 12C11 11.8674 10.9473 11.7402 10.8536 11.6464C10.7598 11.5527 10.6326 11.5 10.5 11.5C10.3674 11.5 10.2402 11.5527 10.1464 11.6464C10.0527 11.7402 10 11.8674 10 12C10 12.1326 10.0527 12.2598 10.1464 12.3536C10.2402 12.4473 10.3674 12.5 10.5 12.5ZM13 12C13 12.1326 12.9473 12.2598 12.8536 12.3536C12.7598 12.4473 12.6326 12.5 12.5 12.5C12.3674 12.5 12.2402 12.4473 12.1464 12.3536C12.0527 12.2598 12 12.1326 12 12C12 11.8674 12.0527 11.7402 12.1464 11.6464C12.2402 11.5527 12.3674 11.5 12.5 11.5C12.6326 11.5 12.7598 11.5527 12.8536 11.6464C12.9473 11.7402 13 11.8674 13 12Z" fill="white"/>
</svg>
