<svg width="12" height="12" viewBox="0 0 12 12" fill="none" xmlns="http://www.w3.org/2000/svg">
<g clip-path="url(#clip0_987_8029)">
<path d="M9.5417 4.9905L10.113 5.3333C10.2255 5.40083 10.262 5.54678 10.1945 5.65931C10.1744 5.69277 10.1464 5.72076 10.113 5.74082L5.70011 8.3885L1.28728 5.74082C1.17475 5.67329 1.13825 5.52734 1.20577 5.4148C1.22584 5.38134 1.25383 5.35335 1.28728 5.3333L1.85857 4.9905L5.70011 7.29544L9.5417 4.9905ZM9.5417 7.22415L10.113 7.56694C10.2255 7.63448 10.262 7.78042 10.1945 7.89296C10.1744 7.92642 10.1464 7.95441 10.113 7.97447L5.94462 10.4754C5.79411 10.5658 5.6061 10.5658 5.45559 10.4754L1.28728 7.97447C1.17475 7.90693 1.13825 7.76099 1.20577 7.64845C1.22584 7.61499 1.25383 7.587 1.28728 7.56694L1.85857 7.22415L5.70011 9.52909L9.5417 7.22415ZM5.94462 0.62241L10.113 3.12341C10.2255 3.19093 10.262 3.33689 10.1945 3.44942C10.1744 3.48287 10.1464 3.51086 10.113 3.53093L5.70011 6.17861L1.28728 3.53093C1.17475 3.46341 1.13825 3.31745 1.20577 3.20492C1.22584 3.17147 1.25383 3.14348 1.28728 3.12341L5.45559 0.62241C5.6061 0.532113 5.79411 0.532113 5.94462 0.62241Z" fill="#61646C"/>
</g>
<defs>
<clipPath id="clip0_987_8029">
<rect width="11.4059" height="11.4059" fill="white"/>
</clipPath>
</defs>
</svg>
