<svg width="12" height="12" viewBox="0 0 12 12" fill="none" xmlns="http://www.w3.org/2000/svg">
<path d="M9.02446 10.4561H2.37105C1.58364 10.4561 0.945312 9.81776 0.945312 9.03032V1.42642C0.945312 1.16395 1.15809 0.951172 1.42056 0.951172H8.07398C8.33645 0.951172 8.54922 1.16395 8.54922 1.42642V7.12935H10.4502V9.03032C10.4502 9.81776 9.8119 10.4561 9.02446 10.4561ZM8.54922 8.07983V9.03032C8.54922 9.2928 8.76199 9.50557 9.02446 9.50557C9.28694 9.50557 9.49971 9.2928 9.49971 9.03032V8.07983H8.54922ZM2.84629 3.32739V4.27788H6.64824V3.32739H2.84629ZM2.84629 5.22837V6.17886H6.64824V5.22837H2.84629ZM2.84629 7.12935V8.07983H5.22251V7.12935H2.84629Z" fill="#85888E"/>
</svg>
