<svg width="11" height="11" viewBox="0 0 11 11" fill="none" xmlns="http://www.w3.org/2000/svg">
<g clip-path="url(#clip0_987_7991)">
<path d="M7.32959 0.861666H5.60558V0.430664H4.74358V0.861666H3.01957C2.30546 0.861666 1.72656 1.44057 1.72656 2.15467V3.44768C1.72656 4.63785 2.6914 5.60269 3.88157 5.60269H6.46759C7.65776 5.60269 8.6226 4.63785 8.6226 3.44768V2.15467C8.6226 1.44057 8.04372 0.861666 7.32959 0.861666ZM4.74358 3.23218C4.74358 3.58923 4.45412 3.87868 4.09707 3.87868C3.74002 3.87868 3.45057 3.58923 3.45057 3.23218C3.45057 2.87512 3.74002 2.58568 4.09707 2.58568C4.45412 2.58568 4.74358 2.87512 4.74358 3.23218ZM6.89859 3.23218C6.89859 3.58923 6.60913 3.87868 6.25209 3.87868C5.89504 3.87868 5.60558 3.58923 5.60558 3.23218C5.60558 2.87512 5.89504 2.58568 6.25209 2.58568C6.60913 2.58568 6.89859 2.87512 6.89859 3.23218ZM1.72656 9.48171C1.72656 7.57741 3.27029 6.03369 5.17458 6.03369C7.07888 6.03369 8.6226 7.57741 8.6226 9.48171H1.72656Z" fill="white"/>
</g>
<defs>
<clipPath id="clip0_987_7991">
<rect width="10.3441" height="10.3441" fill="white"/>
</clipPath>
</defs>
</svg>
