<svg width="20" height="20" viewBox="0 0 20 20" fill="none" xmlns="http://www.w3.org/2000/svg">
<path fill-rule="evenodd" clip-rule="evenodd" d="M12.0386 2.522C12.1179 2.54352 12.1921 2.58046 12.2571 2.63069C12.322 2.68092 12.3765 2.74346 12.4173 2.81474C12.458 2.88602 12.4844 2.96463 12.4948 3.04609C12.5051 3.12756 12.4994 3.21027 12.4778 3.2895L8.72778 17.0395C8.68424 17.1995 8.57892 17.3357 8.43499 17.418C8.29105 17.5004 8.1203 17.5222 7.96028 17.4787C7.80027 17.4351 7.66411 17.3298 7.58175 17.1859C7.49939 17.0419 7.47758 16.8712 7.52112 16.7112L11.2711 2.96116C11.2926 2.88191 11.3296 2.80768 11.3798 2.74272C11.43 2.67775 11.4926 2.62331 11.5639 2.58253C11.6351 2.54174 11.7138 2.51541 11.7952 2.50502C11.8767 2.49463 11.9594 2.5004 12.0386 2.522ZM13.9328 5.18366C14.05 5.06662 14.2088 5.00088 14.3744 5.00088C14.5401 5.00088 14.6989 5.06662 14.8161 5.18366L19.1911 9.55866C19.3082 9.67585 19.3739 9.8347 19.3739 10.0003C19.3739 10.166 19.3082 10.3248 19.1911 10.442L14.8161 14.817C14.7589 14.8784 14.6899 14.9277 14.6132 14.9618C14.5366 14.996 14.4538 15.0143 14.3699 15.0158C14.286 15.0173 14.2026 15.0019 14.1248 14.9704C14.047 14.939 13.9763 14.8922 13.9169 14.8329C13.8576 14.7735 13.8108 14.7028 13.7793 14.625C13.7479 14.5472 13.7325 14.4638 13.734 14.3799C13.7354 14.296 13.7538 14.2132 13.788 14.1365C13.8221 14.0599 13.8714 13.9909 13.9328 13.9337L17.8661 10.0003L13.9328 6.067C13.8157 5.94981 13.75 5.79096 13.75 5.62533C13.75 5.45971 13.8157 5.30085 13.9328 5.18366ZM6.06612 5.18366C6.18316 5.30085 6.2489 5.45971 6.2489 5.62533C6.2489 5.79096 6.18316 5.94981 6.06612 6.067L2.13278 10.0003L6.06612 13.9337C6.17652 14.0521 6.23662 14.2088 6.23376 14.3708C6.23091 14.5327 6.16531 14.6872 6.0508 14.8017C5.93629 14.9162 5.7818 14.9818 5.61989 14.9846C5.45797 14.9875 5.30126 14.9274 5.18278 14.817L0.807783 10.442C0.690741 10.3248 0.625 10.166 0.625 10.0003C0.625 9.8347 0.690741 9.67585 0.807783 9.55866L5.18278 5.18366C5.29997 5.06662 5.45882 5.00088 5.62445 5.00088C5.79008 5.00088 5.94893 5.06662 6.06612 5.18366Z" fill="#94969C"/>
</svg>
