<svg width="18" height="18" viewBox="0 0 18 18" fill="none" xmlns="http://www.w3.org/2000/svg">
<g clip-path="url(#clip0_947_12458)">
<path d="M11.5515 15.75V10.5255H13.3012L13.563 8.4945H11.5515V7.1985C11.5515 6.6105 11.715 6.20925 12.558 6.20925H13.6335V4.39275C13.1128 4.33751 12.5896 4.31072 12.066 4.3125C10.5157 4.3125 9.4545 5.259 9.4545 6.9975V8.4945H7.701V10.5255H9.4545V15.75H3C2.80109 15.75 2.61032 15.671 2.46967 15.5303C2.32902 15.3897 2.25 15.1989 2.25 15V3C2.25 2.80109 2.32902 2.61032 2.46967 2.46967C2.61032 2.32902 2.80109 2.25 3 2.25H15C15.1989 2.25 15.3897 2.32902 15.5303 2.46967C15.671 2.61032 15.75 2.80109 15.75 3V15C15.75 15.1989 15.671 15.3897 15.5303 15.5303C15.3897 15.671 15.1989 15.75 15 15.75H11.5515Z" fill="#1F242F"/>
</g>
<defs>
<clipPath id="clip0_947_12458">
<rect width="18" height="18" fill="white"/>
</clipPath>
</defs>
</svg>
