<svg width="12" height="12" viewBox="0 0 12 12" fill="none" xmlns="http://www.w3.org/2000/svg">
<path d="M5.3397 2.15434C4.59504 1.67737 3.72898 1.42448 2.84467 1.42579C2.31857 1.42525 1.79623 1.51445 1.30012 1.68955C1.23064 1.71411 1.17048 1.75962 1.12792 1.81979C1.08537 1.87996 1.06251 1.95184 1.0625 2.02554V8.79777C1.06251 8.85479 1.0762 8.91098 1.10241 8.96161C1.12863 9.01224 1.16661 9.05585 1.21317 9.08877C1.25972 9.12168 1.3135 9.14295 1.36998 9.15078C1.42645 9.15861 1.48399 9.15278 1.53774 9.13377C1.95754 8.98571 2.39952 8.91033 2.84467 8.91088C3.79278 8.91088 4.66152 9.24688 5.3397 9.80719V2.15434ZM6.05256 9.80719C6.75422 9.22651 7.63682 8.90944 8.5476 8.91088C9.00668 8.91088 9.44581 8.98977 9.85452 9.13425C9.90831 9.15327 9.96589 9.15909 10.0224 9.15124C10.0789 9.14338 10.1327 9.12207 10.1793 9.0891C10.2259 9.05613 10.2638 9.01247 10.29 8.96177C10.3162 8.91107 10.3298 8.85483 10.3298 8.79777V2.02554C10.3298 1.95184 10.3069 1.87996 10.2643 1.81979C10.2218 1.75962 10.1616 1.71411 10.0921 1.68955C9.59603 1.51445 9.0737 1.42525 8.5476 1.42579C7.66328 1.42448 6.79722 1.67737 6.05256 2.15434V9.80719Z" fill="#85888E"/>
</svg>
