<svg width="16" height="16" viewBox="0 0 16 16" fill="none" xmlns="http://www.w3.org/2000/svg">
<path d="M14.4814 8.50158C14.5718 7.35356 14.3543 6.2022 13.8514 5.16624C13.019 5.95717 12.035 6.5713 10.9588 6.97158C11.0453 8.0338 10.9974 9.1027 10.8161 10.1529C12.1258 9.82307 13.3667 9.264 14.4814 8.50158ZM9.75677 10.3669C9.9697 9.34892 10.0442 8.30683 9.97811 7.26891C9.34344 7.42024 8.68144 7.50025 8.00078 7.50025C7.32011 7.50025 6.65811 7.42024 6.02344 7.26891C5.95894 8.30683 6.03337 9.34871 6.24478 10.3669C7.40865 10.5453 8.59291 10.5453 9.75677 10.3669ZM6.51544 11.4129C7.50222 11.5297 8.49933 11.5297 9.48611 11.4129C9.14697 12.5046 8.64631 13.5394 8.00078 14.4829C7.35523 13.5394 6.85457 12.5046 6.51544 11.4129ZM5.18544 10.1536C5.0032 9.10302 4.95526 8.03356 5.04278 6.97091C3.9663 6.57073 2.98205 5.9566 2.14944 5.16558C1.64665 6.2018 1.42941 7.35339 1.52011 8.50158C2.63487 9.264 3.87579 9.82374 5.18544 10.1536ZM14.2381 9.83491C13.9015 10.9755 13.2589 12.0022 12.38 12.8034C11.5011 13.6045 10.4196 14.1497 9.25278 14.3796C9.83712 13.3971 10.2831 12.3387 10.5781 11.2342C11.8644 10.9646 13.0998 10.4925 14.2381 9.83558V9.83491ZM1.76344 9.83491C2.88478 10.4822 4.11678 10.9602 5.42344 11.2342C5.71845 12.3387 6.16443 13.3971 6.74878 14.3796C5.58203 14.1497 4.50054 13.6047 3.62167 12.8036C2.7428 12.0026 2.10014 10.9761 1.76344 9.83558V9.83491ZM9.25278 1.62024C10.9046 1.94492 12.3662 2.89747 13.3301 4.27758C12.6186 4.9965 11.7691 5.56429 10.8328 5.94691C10.5805 4.41879 10.0446 2.95134 9.25278 1.62024ZM8.00078 1.51758C8.97372 2.93898 9.61296 4.56182 9.87078 6.26491C9.27278 6.41825 8.64611 6.50025 8.00078 6.50025C7.35544 6.50025 6.72878 6.41891 6.13077 6.26491C6.38857 4.56181 7.02781 2.93897 8.00078 1.51758ZM6.74878 1.62024C5.95693 2.95133 5.42105 4.41879 5.16878 5.94691C4.23241 5.56431 3.38298 4.99651 2.67144 4.27758C3.63547 2.89767 5.09704 1.94469 6.74878 1.62024Z" fill="white"/>
</svg>
