<svg width="12" height="12" viewBox="0 0 12 12" fill="none" xmlns="http://www.w3.org/2000/svg">
<path fill-rule="evenodd" clip-rule="evenodd" d="M1.0625 6.41686C1.0625 5.37701 1.47558 4.37974 2.21087 3.64446C2.94615 2.90917 3.94341 2.49609 4.98326 2.49609C5.0778 2.49609 5.16846 2.53365 5.2353 2.60049C5.30214 2.66733 5.3397 2.75799 5.3397 2.85253V6.06042H8.5476C8.64213 6.06042 8.73279 6.09798 8.79963 6.16482C8.86648 6.23167 8.90403 6.32233 8.90403 6.41686C8.90403 7.45671 8.49095 8.45397 7.75566 9.18926C7.02038 9.92454 6.02312 10.3376 4.98326 10.3376C3.94341 10.3376 2.94615 9.92454 2.21087 9.18926C1.47558 8.45397 1.0625 7.45671 1.0625 6.41686Z" fill="#85888E"/>
<path fill-rule="evenodd" clip-rule="evenodd" d="M6.0625 1.42675C6.0625 1.33221 6.10005 1.24155 6.1669 1.17471C6.23374 1.10787 6.3244 1.07031 6.41893 1.07031C7.45878 1.07031 8.45605 1.48339 9.19133 2.21868C9.92662 2.95396 10.3397 3.95123 10.3397 4.99108C10.3397 5.08561 10.3021 5.17627 10.2353 5.24311C10.1685 5.30996 10.0778 5.34751 9.98326 5.34751H6.41893C6.3244 5.34751 6.23374 5.30996 6.1669 5.24311C6.10005 5.17627 6.0625 5.08561 6.0625 4.99108V1.42675Z" fill="#85888E"/>
</svg>
