<svg width="12" height="12" viewBox="0 0 12 12" fill="none" xmlns="http://www.w3.org/2000/svg">
<path d="M3 8.50041C3 8.67606 3 8.76389 3.00783 8.84024C3.07287 9.47412 3.5313 9.99773 4.15103 10.146C4.22567 10.1638 4.31275 10.1754 4.48684 10.1987L7.78281 10.6381C8.72102 10.7632 9.19013 10.8258 9.55422 10.681C9.87388 10.5539 10.1401 10.3208 10.3084 10.0207C10.5 9.67895 10.5 9.20569 10.5 8.25917V3.74165C10.5 2.79513 10.5 2.32187 10.3084 1.9801C10.1401 1.68004 9.87388 1.44693 9.55422 1.31983C9.19013 1.17506 8.72102 1.2376 7.78281 1.3627L4.48684 1.80216C4.31273 1.82538 4.22568 1.83698 4.15103 1.85484C3.5313 2.00309 3.07287 2.5267 3.00783 3.16058C3 3.23693 3 3.32476 3 3.50041M6 4.00041L8 6.00041M8 6.00041L6 8.00041M8 6.00041H1.5" stroke="white" stroke-linecap="round" stroke-linejoin="round"/>
</svg>
