<svg width="11" height="11" viewBox="0 0 11 11" fill="none" xmlns="http://www.w3.org/2000/svg">
<path d="M5.06783 1.26773C4.36789 1.26773 3.80049 1.83513 3.80049 2.53505V4.22481C3.80049 4.92474 4.36789 5.49212 5.06783 5.49212C5.76773 5.49212 6.33515 4.92474 6.33515 4.22481V2.53505C6.33515 1.83513 5.76773 1.26773 5.06783 1.26773ZM5.06783 0.422852C6.23435 0.422852 7.18002 1.36852 7.18002 2.53505V4.22481C7.18002 5.39133 6.23435 6.337 5.06783 6.337C3.90127 6.337 2.95562 5.39133 2.95562 4.22481V2.53505C2.95562 1.36852 3.90127 0.422852 5.06783 0.422852ZM1.28906 4.64724H2.14068C2.34566 6.08029 3.57809 7.18188 5.06783 7.18188C6.55752 7.18188 7.78994 6.08029 7.99495 4.64724H8.84655C8.65176 6.40949 7.25252 7.80874 5.49027 8.00357V9.71652H4.64539V8.00357C2.88312 7.80874 1.48387 6.40949 1.28906 4.64724Z" fill="black"/>
</svg>
