<svg width="14" height="14" viewBox="0 0 14 14" fill="none" xmlns="http://www.w3.org/2000/svg">
<path d="M6.78125 9.625C7.07133 9.625 7.34953 9.50977 7.55465 9.30465C7.75977 9.09953 7.875 8.82133 7.875 8.53125C7.875 8.24117 7.75977 7.96297 7.55465 7.75785C7.34953 7.55273 7.07133 7.4375 6.78125 7.4375C6.49117 7.4375 6.21297 7.55273 6.00785 7.75785C5.80273 7.96297 5.6875 8.24117 5.6875 8.53125C5.6875 8.82133 5.80273 9.09953 6.00785 9.30465C6.21297 9.50977 6.49117 9.625 6.78125 9.625Z" fill="white"/>
<path fill-rule="evenodd" clip-rule="evenodd" d="M3.28125 0.875H5.25C5.83016 0.875 6.38656 1.10547 6.7968 1.5157C7.20703 1.92594 7.4375 2.48234 7.4375 3.0625V4.15625C7.4375 4.76058 7.9275 5.25 8.53125 5.25H9.625C10.2052 5.25 10.7616 5.48047 11.1718 5.8907C11.582 6.30094 11.8125 6.85734 11.8125 7.4375V12.0312C11.8125 12.635 11.3225 13.125 10.7188 13.125H3.28125C2.99117 13.125 2.71297 13.0098 2.50785 12.8046C2.30273 12.5995 2.1875 12.3213 2.1875 12.0312V1.96875C2.1875 1.36442 2.6775 0.875 3.28125 0.875ZM6.78125 10.5C7.16625 10.5 7.52617 10.3892 7.8295 10.1978L8.44083 10.8092C8.52377 10.8864 8.63346 10.9285 8.7468 10.9265C8.86015 10.9245 8.96829 10.8786 9.04845 10.7984C9.1286 10.7183 9.17452 10.6101 9.17652 10.4968C9.17852 10.3835 9.13645 10.2738 9.05917 10.1908L8.44842 9.5795C8.68086 9.20997 8.78388 8.77367 8.7413 8.3392C8.69871 7.90473 8.51293 7.49673 8.21316 7.17937C7.9134 6.86201 7.51665 6.65328 7.08531 6.58601C6.65397 6.51874 6.21251 6.59675 5.83034 6.80776C5.44817 7.01876 5.14697 7.35081 4.97411 7.75168C4.80125 8.15255 4.76652 8.59951 4.8754 9.02227C4.98428 9.44502 5.23058 9.8196 5.57558 10.0871C5.92058 10.3546 6.3447 10.4998 6.78125 10.5Z" fill="white"/>
<path d="M8.3164 3.06274C8.31742 2.32689 8.05245 1.61547 7.57031 1.05957C8.5464 1.31622 9.43681 1.82751 10.1505 2.54117C10.8641 3.25483 11.3754 4.14523 11.6321 5.12132C11.0762 4.63919 10.3647 4.37422 9.6289 4.37524H8.53515C8.47713 4.37524 8.42149 4.35219 8.38047 4.31117C8.33944 4.27014 8.3164 4.2145 8.3164 4.15649V3.06274Z" fill="white"/>
</svg>
