<svg width="17" height="17" viewBox="0 0 17 17" fill="none" xmlns="http://www.w3.org/2000/svg">
<path d="M11.5611 1.36084H8.84037V0.680664H7.48001V1.36084H4.75929C3.63233 1.36084 2.71875 2.27443 2.71875 3.40138V5.44193C2.71875 7.32018 4.24139 8.84283 6.11965 8.84283H10.2007C12.079 8.84283 13.6016 7.32018 13.6016 5.44193V3.40138C13.6016 2.27443 12.6881 1.36084 11.5611 1.36084ZM7.48001 5.10184C7.48001 5.66532 7.0232 6.12211 6.45974 6.12211C5.89626 6.12211 5.43947 5.66532 5.43947 5.10184C5.43947 4.53835 5.89626 4.08156 6.45974 4.08156C7.0232 4.08156 7.48001 4.53835 7.48001 5.10184ZM10.8809 5.10184C10.8809 5.66532 10.4241 6.12211 9.86064 6.12211C9.29718 6.12211 8.84037 5.66532 8.84037 5.10184C8.84037 4.53835 9.29718 4.08156 9.86064 4.08156C10.4241 4.08156 10.8809 4.53835 10.8809 5.10184ZM2.71875 14.9644C2.71875 11.9592 5.15496 9.52301 8.16019 9.52301C11.1654 9.52301 13.6016 11.9592 13.6016 14.9644H2.71875Z" fill="#FAFAFA"/>
</svg>
