<svg width="11" height="11" viewBox="0 0 11 11" fill="none" xmlns="http://www.w3.org/2000/svg">
<path d="M1.46772 1.01551C1.41281 0.999559 1.35462 0.998762 1.2993 1.0132C1.24398 1.02764 1.1936 1.05678 1.1535 1.09753C1.1134 1.13828 1.08508 1.18913 1.07153 1.24467C1.05798 1.30021 1.05971 1.35839 1.07654 1.41302L2.10391 4.75241H5.7014C5.78543 4.75241 5.86602 4.78579 5.92544 4.8452C5.98485 4.90462 6.01823 4.98521 6.01823 5.06924C6.01823 5.15326 5.98485 5.23385 5.92544 5.29327C5.86602 5.35269 5.78543 5.38607 5.7014 5.38607H2.10391L1.07654 8.72545C1.05981 8.78006 1.05815 8.83818 1.07175 8.89366C1.08534 8.94913 1.11368 8.9999 1.15377 9.04059C1.19385 9.08128 1.24419 9.11038 1.29945 9.12481C1.35472 9.13923 1.41286 9.13845 1.46772 9.12254C4.26214 8.3099 6.8973 7.02611 9.25961 5.3265C9.30043 5.29716 9.33368 5.25853 9.35662 5.21379C9.37956 5.16906 9.39152 5.11951 9.39152 5.06924C9.39152 5.01896 9.37956 4.96941 9.35662 4.92468C9.33368 4.87995 9.30043 4.84131 9.25961 4.81197C6.89734 3.1122 4.26217 1.82826 1.46772 1.01551Z" fill="white"/>
</svg>
