<svg width="16" height="16" viewBox="0 0 16 16" fill="none" xmlns="http://www.w3.org/2000/svg">
<path d="M3 8.00046C3 9.32655 3.52678 10.5983 4.46447 11.536C5.40215 12.4737 6.67392 13.0005 8 13.0005C9.32608 13.0005 10.5979 12.4737 11.5355 11.536C12.4732 10.5983 13 9.32655 13 8.00046M3 8.00046C3 6.67438 3.52678 5.40261 4.46447 4.46493C5.40215 3.52725 6.67392 3.00046 8 3.00046C9.32608 3.00046 10.5979 3.52725 11.5355 4.46493C12.4732 5.40261 13 6.67438 13 8.00046M3 8.00046H2M13 8.00046H14M13 8.00046H8L5 2.8038M2.362 10.0518L3.302 9.7098M12.6987 6.2898L13.6387 5.9478M3.404 11.8571L4.17067 11.2145M11.8307 4.78646L12.5967 4.1438M5.00067 13.1971L5.50067 12.3305L8.00133 8.00046M10.5007 3.67046L11.0007 2.8038M6.95867 13.9091L7.132 12.9245M8.86867 3.07646L9.042 2.0918M9.042 13.9091L8.86867 12.9245M7.132 3.07646L6.95867 2.0918M11 13.1965L10.5 12.3305M12.596 11.8571L11.83 11.2145M4.17067 4.7858L3.404 4.14313M13.6387 10.0525L12.6987 9.71046M3.30267 6.29046L2.36267 5.9478" stroke="#ECECED" stroke-width="1.3" stroke-linecap="round" stroke-linejoin="round"/>
</svg>
