<svg width="12" height="12" viewBox="0 0 12 12" fill="none" xmlns="http://www.w3.org/2000/svg">
<path d="M4.40434 1.59855L5.7191 1.10552C5.82305 1.06654 5.87502 1.04705 5.92849 1.03932C5.97592 1.03247 6.02408 1.03247 6.07151 1.03932C6.12498 1.04705 6.17695 1.06654 6.2809 1.10552L8.9618 2.11085C9.3361 2.25122 9.52325 2.3214 9.66117 2.44294C9.78301 2.55032 9.87686 2.68575 9.93462 2.83753C10 3.00935 10 3.20922 10 3.60898V6.00018C10 6.36033 9.94235 6.70607 9.8409 7.03567M8.81093 8.81301C7.9681 9.7932 6.89394 10.4896 6.34982 10.8071C6.23861 10.872 6.183 10.9045 6.10488 10.9212C6.04427 10.9342 5.9558 10.9342 5.89518 10.9212C5.81707 10.9045 5.76171 10.8722 5.651 10.8076C4.67698 10.2394 2 8.4544 2 6.00018V2.88834C2 2.65486 2.14483 2.44587 2.36344 2.36389M1.5 1.50018L10.5 10.5002" stroke="white" stroke-linecap="round" stroke-linejoin="round"/>
</svg>
