<svg width="16" height="16" viewBox="0 0 16 16" fill="none" xmlns="http://www.w3.org/2000/svg">
<path fill-rule="evenodd" clip-rule="evenodd" d="M4.99941 4C4.99941 3.20435 5.31548 2.44129 5.87809 1.87868C6.4407 1.31607 7.20376 1 7.99941 1C8.79506 1 9.55812 1.31607 10.1207 1.87868C10.6833 2.44129 10.9994 3.20435 10.9994 4C10.9994 4.79565 10.6833 5.55871 10.1207 6.12132C9.55812 6.68393 8.79506 7 7.99941 7C7.20376 7 6.4407 6.68393 5.87809 6.12132C5.31548 5.55871 4.99941 4.79565 4.99941 4ZM2.50008 13.4033C2.52256 11.9596 3.11184 10.5827 4.14072 9.56972C5.1696 8.55674 6.55555 7.98897 7.99941 7.98897C9.44327 7.98897 10.8292 8.55674 11.8581 9.56972C12.887 10.5827 13.4763 11.9596 13.4987 13.4033C13.5005 13.5005 13.4738 13.5961 13.4221 13.6784C13.3704 13.7607 13.2958 13.8261 13.2074 13.8667C11.5735 14.6158 9.79685 15.0024 7.99941 15C6.14208 15 4.37741 14.5947 2.79141 13.8667C2.70307 13.8261 2.62846 13.7607 2.57672 13.6784C2.52498 13.5961 2.49835 13.5005 2.50008 13.4033Z" fill="white"/>
</svg>
