<svg width="11" height="13" viewBox="0 0 11 13" fill="none" xmlns="http://www.w3.org/2000/svg">
<path d="M0.414482 2.7491C0.372165 9.04813 3.5451 11.4263 5.2712 11.8671C5.34308 11.8854 5.41574 11.8847 5.48737 11.8654C7.30802 11.3745 10.6229 8.92509 10.3985 2.72909C10.3898 2.48856 10.2055 2.29082 9.96736 2.25584C8.61302 2.05689 6.61025 1.61334 5.88565 0.69498C5.75511 0.529522 5.56417 0.404272 5.35382 0.417419L5.30016 0.420773C5.13597 0.431034 4.99051 0.524031 4.88763 0.652404C4.05863 1.68685 2.11234 2.09062 0.853451 2.25928C0.606346 2.29238 0.416156 2.49979 0.414482 2.7491Z" stroke="#161B26" stroke-width="0.83329"/>
<path d="M3.69531 6.01898L4.79961 6.97096C4.85989 7.02292 4.9485 7.025 5.01116 6.97592L7.40271 5.10254" stroke="#161B26" stroke-width="0.83329" stroke-linecap="round"/>
</svg>
