<svg width="18" height="18" viewBox="0 0 18 18" fill="none" xmlns="http://www.w3.org/2000/svg">
<g clip-path="url(#clip0_947_12448)">
<path d="M16.6154 4.24121C16.0428 4.49448 15.4356 4.66082 14.8139 4.73471C15.4692 4.34279 15.9597 3.72597 16.1939 2.99921C15.5789 3.36521 14.9046 3.62171 14.2019 3.76046C13.7298 3.2554 13.1041 2.92043 12.4221 2.80765C11.74 2.69487 11.0398 2.81058 10.4303 3.1368C9.82082 3.46302 9.33617 3.98148 9.05171 4.61156C8.76726 5.24164 8.69894 5.94805 8.85737 6.62096C7.61021 6.55845 6.39012 6.23436 5.27634 5.66971C4.16256 5.10507 3.17997 4.3125 2.39237 3.34346C2.11359 3.8223 1.96709 4.36663 1.96787 4.92071C1.96787 6.00821 2.52138 6.96896 3.36287 7.53146C2.86488 7.51578 2.37785 7.3813 1.94238 7.13921V7.17821C1.94253 7.90249 2.19315 8.60442 2.65176 9.16501C3.11037 9.72559 3.74874 10.1103 4.45862 10.254C3.99634 10.3792 3.51161 10.3977 3.04113 10.308C3.24128 10.9314 3.63138 11.4766 4.15682 11.8673C4.68226 12.258 5.31672 12.4746 5.97137 12.4867C5.32074 12.9977 4.57576 13.3754 3.77904 13.5983C2.98231 13.8212 2.14947 13.8849 1.32812 13.7857C2.7619 14.7078 4.43095 15.1973 6.13562 15.1957C11.9054 15.1957 15.0606 10.416 15.0606 6.27071C15.0606 6.13571 15.0569 5.99921 15.0509 5.86571C15.665 5.42184 16.1951 4.87198 16.6161 4.24196L16.6154 4.24121Z" fill="#1F242F"/>
</g>
<defs>
<clipPath id="clip0_947_12448">
<rect width="18" height="18" fill="white"/>
</clipPath>
</defs>
</svg>
